<?xml version="1.0" encoding="UTF-8" standalone="no"?>
<!-- Created with Inkscape (http://www.inkscape.org/) -->

<svg
   width="18mm"
   height="18mm"
   viewBox="0 0 18 18"
   version="1.1"
   id="svg2047"
   inkscape:version="1.2.2 (732a01da63, 2022-12-09)"
   sodipodi:docname="kotak-pengaduan.svg"
   xmlns:inkscape="http://www.inkscape.org/namespaces/inkscape"
   xmlns:sodipodi="http://sodipodi.sourceforge.net/DTD/sodipodi-0.dtd"
   xmlns="http://www.w3.org/2000/svg"
   xmlns:svg="http://www.w3.org/2000/svg">
  <sodipodi:namedview
     id="namedview2049"
     pagecolor="#505050"
     bordercolor="#ffffff"
     borderopacity="1"
     inkscape:showpageshadow="0"
     inkscape:pageopacity="0"
     inkscape:pagecheckerboard="1"
     inkscape:deskcolor="#505050"
     inkscape:document-units="mm"
     showgrid="false"
     inkscape:zoom="5.8012346"
     inkscape:cx="57.746329"
     inkscape:cy="35.423494"
     inkscape:window-width="958"
     inkscape:window-height="991"
     inkscape:window-x="944"
     inkscape:window-y="0"
     inkscape:window-maximized="0"
     inkscape:current-layer="g2032" />
  <defs
     id="defs2044" />
  <g
     inkscape:label="Layer 1"
     inkscape:groupmode="layer"
     id="layer1">
    <g
       id="g2032"
       transform="matrix(0.7709627,0,0,0.78038773,-73.908418,-0.78340641)">
      <rect
         style="fill:#3481ac;fill-opacity:1;stroke-width:0.427198"
         id="rect893"
         width="21.509903"
         height="21.250122"
         x="96.783867"
         y="1.9115367"
         ry="1.4890114" />
      <path
         d="m 112.29369,11.536258 c 0.005,0.193049 0.1684,0.34513 0.3638,0.339682 0.19541,-0.0055 0.34936,-0.166362 0.34383,-0.359411 z m 0.0568,-1.454454 0.30498,-0.1774818 -10e-6,-2.4e-5 z m -1.95562,-1.3678138 -0.16454,0.30961 1.5e-4,7.8e-5 z m -1.02257,-0.530357 0.16454,-0.3096106 -1.3e-4,-6.58e-5 z m -3.65868,0 0.16453,0.309612 2e-5,-8e-6 z m -1.02255,0.530357 0.16438,0.309688 1.5e-4,-7.8e-5 z m -1.95564,1.3678138 -0.30496,-0.1775058 -6e-5,9.1e-5 z m 0,4.909584 -0.30502,0.177415 6e-5,9e-5 z m 1.95564,1.36832 -0.16451,0.309626 9e-5,4.8e-5 z m 1.02255,0.529851 -0.16441,0.309673 v 2e-6 z m 3.65868,0 -0.16452,-0.309612 -2e-5,8e-6 z m 1.02257,-0.530357 -0.16451,-0.309626 -3e-5,1.5e-5 z m 1.95562,-1.367814 0.30497,0.177505 10e-6,-2.2e-5 z m 0.65087,-1.434725 c 0.005,-0.193049 -0.14842,-0.353963 -0.34383,-0.359412 -0.19541,-0.0055 -0.3583,0.146633 -0.36381,0.339682 z m -0.69862,-2.980254 c 0.17485,-0.08637 0.24572,-0.296415 0.1583,-0.469153 -0.0874,-0.1727358 -0.30004,-0.2427528 -0.47488,-0.1563838 z m -9.20297,-0.6255368 c -0.17484,-0.08637 -0.38746,-0.01635 -0.47489,0.1563838 -0.0874,0.172738 -0.0166,0.382784 0.1583,0.469153 z m 4.08923,7.3841858 c 0,0.193124 0.15848,0.349684 0.35396,0.349684 0.19549,0 0.35397,-0.15656 0.35397,-0.349684 z m 2.55638,-4.29336 c 0,0.193124 0.15848,0.349683 0.35396,0.349683 0.19549,0 0.35396,-0.156559 0.35396,-0.349683 z m -4.33831,-4.6028048 c -0.17298,-0.08995 -0.38703,-0.02432 -0.47808,0.146579 -0.091,0.170901 -0.0246,0.382361 0.14837,0.472309 z m 7.59429,3.0776358 c -0.0191,-0.669256 -0.0822,-1.169926 -0.34589,-1.6122068 l -0.60995,0.3549638 c 0.16575,0.277994 0.22948,0.621854 0.2482,1.276972 z m -0.3459,-1.6122308 c -0.18895,-0.316835 -0.44861,-0.551583 -0.78845,-0.775798 -0.33242,-0.21931 -0.76438,-0.442687 -1.30776,-0.724196 l -0.32877,0.619374 c 0.55637,0.288242 0.94934,0.492434 1.24337,0.686423 0.2866,0.189083 0.45488,0.3533658 0.57167,0.5492068 z m -2.09607,-1.499918 -1.02255,-0.5303576 -0.32906,0.6192226 1.02255,0.530355 z M 109.53668,7.8739568 C 109.09343,7.6442863 108.7403,7.460872 108.4372,7.337023 108.12759,7.2105114 107.84688,7.1358993 107.54293,7.1358993 v 0.6993704 c 0.1787,0 0.36376,0.04181 0.6237,0.1480276 0.26646,0.108875 0.58669,0.2744859 1.04124,0.5100129 z m -1.99375,-0.7380575 c -0.30384,0 -0.5845,0.074428 -0.8942,0.2009086 -0.3032,0.1238203 -0.65634,0.3072471 -1.09969,0.5372229 l 0.3291,0.6192064 c 0.45444,-0.235728 0.77466,-0.4013263 1.04102,-0.5101034 0.25986,-0.1061211 0.44496,-0.1478641 0.62377,-0.1478641 z m -1.99388,0.7381233 -1.02255,0.5303576 0.32907,0.61922 1.02255,-0.530355 z m -1.0224,0.5302816 c -0.54339,0.281509 -0.97536,0.504886 -1.30776,0.724196 -0.33984,0.224215 -0.59951,0.458963 -0.78845,0.775798 l 0.60992,0.3550098 c 0.1168,-0.195841 0.28508,-0.3601238 0.57168,-0.5492068 0.29403,-0.193989 0.68701,-0.398181 1.24338,-0.686423 z m -2.09627,1.500085 c -0.18814,0.3156938 -0.27334,0.6584468 -0.31432,1.0697048 -0.0403,0.40399 -0.0399,0.902356 -0.0399,1.533206 h 0.70792 c 0,-0.644531 4.9e-4,-1.102827 0.0365,-1.464696 0.0354,-0.354602 0.10276,-0.586906 0.21985,-0.783385 z M 102.07621,12.5073 v 0.0591 h 0.70792 v -0.0591 z m 0,0.0591 c 0,0.630598 -4.7e-4,1.12884 0.0398,1.532771 0.041,0.411196 0.12619,0.753945 0.31432,1.069635 l 0.61004,-0.354828 c -0.11709,-0.196482 -0.18451,-0.428791 -0.21984,-0.783329 -0.036,-0.361803 -0.0365,-0.819972 -0.0365,-1.464249 z m 0.35423,2.602497 c 0.18894,0.316833 0.44859,0.551572 0.7884,0.775835 0.33238,0.219354 0.76434,0.442859 1.30769,0.724605 l 0.329,-0.619253 c -0.5564,-0.288513 -0.94939,-0.492829 -1.24345,-0.686899 -0.28662,-0.189163 -0.45492,-0.353454 -0.57172,-0.549298 z m 2.09618,1.500488 1.02256,0.52985 0.32882,-0.619348 -1.02255,-0.529851 z m 1.02256,0.529852 c 0.44325,0.229672 0.79637,0.413085 1.09948,0.536937 0.30961,0.126511 0.59032,0.201122 0.89427,0.201122 v -0.69937 c -0.1787,0 -0.36376,-0.04181 -0.62371,-0.148027 -0.26645,-0.108875 -0.58668,-0.274486 -1.04123,-0.510013 z m 1.99375,0.738059 c 0.30384,0 0.5845,-0.07443 0.89421,-0.200906 0.3032,-0.123823 0.65633,-0.30725 1.09969,-0.537225 l -0.32909,-0.619206 c -0.45445,0.23573 -0.77466,0.401327 -1.04103,0.510104 -0.25985,0.106121 -0.44497,0.147864 -0.62377,0.147864 z m 1.99388,-0.738123 1.02255,-0.530355 -0.32906,-0.619223 -1.02255,0.530355 z m 1.02252,-0.53034 c 0.54329,-0.281713 0.97526,-0.505098 1.3076,-0.724298 0.33981,-0.224124 0.59952,-0.458749 0.7885,-0.775638 l -0.60994,-0.35501 c -0.11675,0.195788 -0.285,0.35994 -0.57162,0.54899 -0.2941,0.193972 -0.68708,0.398156 -1.24354,0.686702 z m 2.09611,-1.499958 c 0.26372,-0.442283 0.32677,-0.942953 0.34589,-1.612209 l -0.70764,-0.01973 c -0.0188,0.65512 -0.0825,0.998982 -0.2482,1.276974 z m -0.66931,-5.2179988 -2.04512,1.0102018 0.3166,0.625536 2.0451,-1.010202 z m -4.2849,2.2729548 -4.60149,-2.2729548 -0.31659,0.6255358 4.60149,2.272955 z m -0.51226,0.312768 v 4.798462 h 0.70793 v -4.798462 z m 0.51226,0.312768 2.30074,-1.136478 -0.3166,-0.625537 -2.30073,1.136479 z m 2.30074,-1.136478 0.25564,-0.126275 -0.3166,-0.625536 -0.25564,0.126274 z m -0.25662,-0.439043 v 1.767855 h 0.70792 v -1.767855 z m 0.51882,-0.309442 -4.85713,-2.5255078 -0.32971,0.618888 4.85712,2.5255058 z"
         style="fill:#ffffff;fill-opacity:1;fill-rule:nonzero;stroke:none;stroke-width:0.469088"
         id="path2287" />
    </g>
  </g>
</svg>
