<?xml version="1.0" encoding="UTF-8" standalone="no"?>
<!-- Created with Inkscape (http://www.inkscape.org/) -->

<svg
   width="189.62302mm"
   height="57.915676mm"
   viewBox="0 0 189.62302 57.915676"
   version="1.1"
   id="svg410"
   inkscape:version="1.3.2 (091e20e, 2023-11-25, custom)"
   sodipodi:docname="banner-footer.svg"
   inkscape:export-filename="banner.png"
   inkscape:export-xdpi="96"
   inkscape:export-ydpi="96"
   xmlns:inkscape="http://www.inkscape.org/namespaces/inkscape"
   xmlns:sodipodi="http://sodipodi.sourceforge.net/DTD/sodipodi-0.dtd"
   xmlns="http://www.w3.org/2000/svg"
   xmlns:svg="http://www.w3.org/2000/svg">
  <sodipodi:namedview
     id="namedview412"
     pagecolor="#505050"
     bordercolor="#ffffff"
     borderopacity="1"
     inkscape:showpageshadow="0"
     inkscape:pageopacity="0"
     inkscape:pagecheckerboard="1"
     inkscape:deskcolor="#505050"
     inkscape:document-units="mm"
     showgrid="false"
     inkscape:zoom="2.56"
     inkscape:cx="364.45313"
     inkscape:cy="59.179688"
     inkscape:window-width="1920"
     inkscape:window-height="1001"
     inkscape:window-x="-9"
     inkscape:window-y="-9"
     inkscape:window-maximized="1"
     inkscape:current-layer="layer1" />
  <defs
     id="defs407" />
  <g
     inkscape:label="Layer 1"
     inkscape:groupmode="layer"
     id="layer1"
     transform="translate(-0.87697814,-9.6467595)">
    <path
       d="m 83.48238,27.644697 -0.155141,-3.223487 5.774697,-6.084978 h 3.102822 l -5.205846,5.602317 -1.551411,1.654838 z m -2.499495,2.758064 V 18.336232 h 2.775302 v 12.066529 z m 8.256954,0 -4.292237,-5.257559 1.827217,-1.982358 5.722983,7.239917 z m 7.067535,-7.205442 h 5.809176 v 2.171976 h -5.809176 z m 0.206854,4.964515 h 6.567642 v 2.240927 H 93.738926 V 18.336232 h 9.118854 v 2.240927 h -6.343552 z m 8.791322,2.240927 V 18.336232 h 2.79254 v 9.791127 h 6.0505 v 2.275402 z m 15.61752,0.206855 q -2.56844,0 -4.01643,-1.430745 -1.44798,-1.430746 -1.44798,-4.085383 v -6.757256 h 2.79254 v 6.653829 q 0,1.72379 0.70675,2.482257 0.70676,0.758468 1.98236,0.758468 1.27561,0 1.98236,-0.758468 0.70675,-0.758467 0.70675,-2.482257 v -6.653829 h 2.75807 v 6.757256 q 0,2.654637 -1.44799,4.085383 -1.44798,1.430745 -4.01643,1.430745 z m 16.49668,-12.273384 h 2.79254 v 12.066529 h -2.79254 z m -5.48166,12.066529 h -2.79253 V 18.336232 h 2.79253 z m 5.68851,-4.947277 h -5.89536 v -2.361592 h 5.89536 z m 3.8613,4.947277 5.37823,-12.066529 h 2.75806 l 5.39546,12.066529 h -2.93044 l -4.4129,-10.653022 h 1.10322 l -4.43014,10.653022 z m 2.68911,-2.585685 0.74123,-2.120261 h 6.20565 l 0.75847,2.120261 z m 12.10102,2.585685 V 18.336232 h 2.30988 l 7.11925,8.687901 h -1.12046 v -8.687901 h 2.75806 v 12.066529 h -2.29264 l -7.13649,-8.687901 h 1.12046 v 8.687901 z"
       id="text1234"
       style="font-weight:bold;font-size:17.2379px;font-family:Montserrat;-inkscape-font-specification:'Montserrat Bold';fill:#ffffff;stroke-width:18.3239"
       aria-label="KELUHAN" />
    <path
       d="m 80.982885,49.056221 v -12.06653 h 5.481652 q 1.965121,0 3.464818,0.758468 1.499697,0.741229 2.344354,2.085786 0.844657,1.344556 0.844657,3.189011 0,1.827217 -0.844657,3.189012 -0.844657,1.344556 -2.344354,2.103023 -1.499697,0.74123 -3.464818,0.74123 z m 2.79254,-2.292641 h 2.551209 q 1.206653,0 2.085786,-0.448185 0.896371,-0.465423 1.379032,-1.31008 0.499899,-0.844658 0.499899,-1.982359 0,-1.154939 -0.499899,-1.982358 -0.482661,-0.844657 -1.379032,-1.292843 -0.879133,-0.465423 -2.085786,-0.465423 h -2.551209 z m 14.014416,-4.912801 h 5.809169 v 2.171975 h -5.809169 z m 0.206855,4.964515 h 6.567644 v 2.240927 h -9.342946 v -12.06653 h 9.118846 v 2.240927 h -6.343544 z m 12.756034,2.447782 q -1.44798,0 -2.7753,-0.379234 -1.32732,-0.396472 -2.1375,-1.017036 l 0.94809,-2.103024 q 0.7757,0.551613 1.82721,0.913609 1.06875,0.344758 2.15474,0.344758 0.82742,0 1.32732,-0.155141 0.51714,-0.172379 0.75847,-0.465424 0.24133,-0.293044 0.24133,-0.672278 0,-0.482661 -0.37924,-0.758467 -0.37923,-0.293045 -0.99979,-0.465424 -0.62057,-0.189616 -1.37904,-0.344758 -0.74123,-0.172379 -1.49969,-0.413709 -0.74123,-0.241331 -1.3618,-0.620565 -0.62056,-0.379233 -1.01703,-0.999798 -0.37924,-0.620564 -0.37924,-1.585886 0,-1.034274 0.55162,-1.878932 0.56885,-0.861895 1.68931,-1.361794 1.1377,-0.517137 2.84425,-0.517137 1.1377,0 2.24093,0.275807 1.10323,0.258568 1.94788,0.792943 l -0.86189,2.120262 q -0.84466,-0.482661 -1.68932,-0.706754 -0.84465,-0.241331 -1.65483,-0.241331 -0.81019,0 -1.32732,0.189617 -0.51714,0.189617 -0.74123,0.499899 -0.2241,0.293045 -0.2241,0.689516 0,0.465424 0.37924,0.758468 0.37923,0.275806 0.9998,0.448185 0.62056,0.172379 1.36179,0.344758 0.75847,0.172379 1.4997,0.396472 0.75847,0.224093 1.37903,0.603326 0.62056,0.379234 0.9998,0.999799 0.39647,0.620564 0.39647,1.568649 0,1.017036 -0.56885,1.861693 -0.56885,0.844657 -1.70655,1.361794 -1.12047,0.517137 -2.84426,0.517137 z m 5.44719,-0.206855 5.37822,-12.06653 h 2.75807 l 5.39546,12.06653 h -2.93044 l -4.4129,-10.653022 h 1.10322 l -4.43014,10.653022 z m 2.68911,-2.585685 0.74123,-2.120262 h 6.20565 l 0.75846,2.120262 z"
       id="text1238"
       style="font-weight:bold;font-size:17.2379px;font-family:Montserrat;-inkscape-font-specification:'Montserrat Bold';fill:#ffffff;stroke-width:18.3239"
       aria-label="DESA" />
    <path
       d="m 82.121152,56.446209 q -0.436114,0 -0.835885,-0.11422 -0.399771,-0.119412 -0.643787,-0.306318 l 0.285551,-0.633403 q 0.233632,0.166138 0.550334,0.275167 0.321893,0.103836 0.648979,0.103836 0.249208,0 0.399771,-0.04673 0.155755,-0.05192 0.22844,-0.14018 0.07269,-0.08826 0.07269,-0.202481 0,-0.145371 -0.114221,-0.22844 -0.11422,-0.08826 -0.301126,-0.14018 -0.186906,-0.05711 -0.415346,-0.103836 -0.223249,-0.05192 -0.451689,-0.124604 -0.223249,-0.07269 -0.410155,-0.186906 -0.186906,-0.114221 -0.306318,-0.301126 -0.11422,-0.186906 -0.11422,-0.477649 0,-0.31151 0.166138,-0.565909 0.171331,-0.259592 0.5088,-0.410155 0.342661,-0.155755 0.856652,-0.155755 0.342661,0 0.674938,0.08307 0.332277,0.07788 0.586677,0.238824 l -0.259592,0.638595 q -0.2544,-0.145371 -0.508799,-0.212865 -0.2544,-0.07269 -0.498416,-0.07269 -0.244016,0 -0.399771,0.05711 -0.155755,0.05711 -0.223249,0.150563 -0.06749,0.08826 -0.06749,0.207674 0,0.140179 0.11422,0.22844 0.11422,0.08307 0.301126,0.134988 0.186906,0.05192 0.410155,0.103836 0.22844,0.05192 0.451689,0.119412 0.22844,0.06749 0.415346,0.181714 0.186906,0.114221 0.301126,0.301127 0.119412,0.186905 0.119412,0.472456 0,0.306318 -0.17133,0.560718 -0.17133,0.254399 -0.513991,0.410154 -0.337469,0.155755 -0.856652,0.155755 z m 3.390267,-0.02077 q -0.446497,0 -0.79435,-0.186906 -0.34266,-0.186906 -0.545142,-0.508799 -0.197289,-0.327086 -0.197289,-0.742432 0,-0.420538 0.197289,-0.742432 0.202482,-0.327085 0.545142,-0.508799 0.347853,-0.186906 0.79435,-0.186906 0.441306,0 0.789159,0.186906 0.347852,0.181714 0.545142,0.503607 0.197289,0.321894 0.197289,0.747624 0,0.415346 -0.197289,0.742432 -0.19729,0.321893 -0.545142,0.508799 -0.347853,0.186906 -0.789159,0.186906 z m 0,-0.664554 q 0.202482,0 0.363429,-0.09345 0.160946,-0.09345 0.254399,-0.264784 0.09345,-0.176522 0.09345,-0.415346 0,-0.244016 -0.09345,-0.415346 -0.09345,-0.171331 -0.254399,-0.264784 -0.160947,-0.09345 -0.363429,-0.09345 -0.202481,0 -0.363428,0.09345 -0.160946,0.09345 -0.259591,0.264784 -0.09345,0.17133 -0.09345,0.415346 0,0.238824 0.09345,0.415346 0.09864,0.171331 0.259591,0.264784 0.160947,0.09345 0.363428,0.09345 z m 2.071544,0.623019 v -3.852338 h 0.809926 v 3.852338 z m 2.74129,0.04153 q -0.347853,0 -0.62302,-0.134988 -0.269975,-0.134987 -0.420538,-0.410154 -0.150563,-0.280359 -0.150563,-0.711281 v -1.578316 h 0.809925 v 1.458904 q 0,0.347853 0.145371,0.513991 0.150564,0.160947 0.420539,0.160947 0.186906,0 0.332277,-0.07788 0.145371,-0.08307 0.22844,-0.249207 0.08307,-0.171331 0.08307,-0.42573 v -1.381027 h 0.809925 v 2.793204 h -0.768391 v -0.768391 l 0.14018,0.223249 q -0.14018,0.290743 -0.415347,0.441306 -0.269975,0.145371 -0.591868,0.145371 z m 3.327964,0 q -0.358236,0 -0.690513,-0.08307 -0.327086,-0.08826 -0.519183,-0.218057 l 0.269975,-0.581485 q 0.192098,0.119412 0.451689,0.197289 0.264783,0.07269 0.519183,0.07269 0.280359,0 0.394579,-0.06749 0.119412,-0.06749 0.119412,-0.186906 0,-0.09864 -0.09345,-0.145371 -0.08826,-0.05192 -0.238824,-0.07788 -0.150563,-0.02596 -0.332277,-0.05192 -0.176522,-0.02596 -0.358236,-0.06749 -0.181714,-0.04673 -0.332277,-0.134988 -0.150563,-0.08826 -0.244016,-0.238824 -0.08826,-0.150563 -0.08826,-0.389388 0,-0.264783 0.150564,-0.467264 0.155754,-0.202482 0.446497,-0.316702 0.290742,-0.119412 0.695705,-0.119412 0.285551,0 0.581485,0.0623 0.295934,0.0623 0.493224,0.181714 l -0.269975,0.576293 q -0.202482,-0.119412 -0.410155,-0.160947 -0.202481,-0.04673 -0.394579,-0.04673 -0.269975,0 -0.394579,0.07269 -0.124604,0.07268 -0.124604,0.186906 0,0.103836 0.08826,0.155754 0.09345,0.05192 0.244016,0.08307 0.150563,0.03115 0.327086,0.05711 0.181714,0.02077 0.363428,0.06749 0.181714,0.04673 0.327085,0.134987 0.150563,0.08307 0.244016,0.233633 0.09345,0.145371 0.09345,0.384195 0,0.259592 -0.155755,0.462073 -0.155755,0.197289 -0.451689,0.31151 -0.290743,0.11422 -0.711281,0.11422 z m 1.817141,-0.04153 v -2.793204 h 0.809926 v 2.793204 z m 0.404963,-3.182592 q -0.223248,0 -0.363428,-0.129795 -0.140179,-0.129796 -0.140179,-0.321894 0,-0.192098 0.140179,-0.321893 0.14018,-0.129796 0.363428,-0.129796 0.223249,0 0.363428,0.124604 0.14018,0.119412 0.14018,0.31151 0,0.202481 -0.14018,0.337469 -0.134987,0.129795 -0.363428,0.129795 z m 4.278079,3.224127 q -0.353046,0 -0.61783,-0.155755 -0.264783,-0.155755 -0.415346,-0.472456 -0.145371,-0.321894 -0.145371,-0.809926 0,-0.493224 0.140179,-0.809925 0.14018,-0.316702 0.404963,-0.472457 0.264783,-0.155755 0.633405,-0.155755 0.39458,0 0.70609,0.181714 0.3167,0.176522 0.49841,0.498416 0.18691,0.321893 0.18691,0.758007 0,0.441306 -0.18691,0.763199 -0.18171,0.321894 -0.49841,0.498416 -0.31151,0.176522 -0.70609,0.176522 z m -1.651004,0.96568 v -3.800419 h 0.773583 v 0.571101 l -0.01558,0.830693 0.05192,0.825501 v 1.573124 z m 1.510824,-1.630234 q 0.20248,0 0.35824,-0.09345 0.16094,-0.09345 0.25439,-0.264784 0.0987,-0.176522 0.0987,-0.415346 0,-0.244016 -0.0987,-0.415346 -0.0934,-0.171331 -0.25439,-0.264784 -0.15576,-0.09345 -0.35824,-0.09345 -0.202483,0 -0.363429,0.09345 -0.160947,0.09345 -0.2544,0.264784 -0.09345,0.17133 -0.09345,0.415346 0,0.238824 0.09345,0.415346 0.09345,0.171331 0.2544,0.264784 0.160946,0.09345 0.363429,0.09345 z m 3.45776,0.664554 q -0.47765,0 -0.84108,-0.186906 -0.35823,-0.186906 -0.55552,-0.508799 -0.19729,-0.327086 -0.19729,-0.742432 0,-0.420538 0.1921,-0.742432 0.19729,-0.327085 0.53475,-0.508799 0.33747,-0.186906 0.7632,-0.186906 0.41016,0 0.73724,0.176522 0.33228,0.171331 0.52438,0.498416 0.1921,0.321893 0.1921,0.773583 0,0.04673 -0.005,0.109028 -0.005,0.05711 -0.0104,0.109029 h -2.26883 v -0.472457 h 1.8431 l -0.31151,0.140179 q 0,-0.218056 -0.0883,-0.379003 -0.0883,-0.160947 -0.24402,-0.249208 -0.15575,-0.09345 -0.36342,-0.09345 -0.20768,0 -0.36862,0.09345 -0.15576,0.08826 -0.24402,0.2544 -0.0883,0.160946 -0.0883,0.384195 v 0.124604 q 0,0.228441 0.0986,0.404963 0.10384,0.17133 0.28555,0.264783 0.18691,0.08826 0.43612,0.08826 0.22325,0 0.38938,-0.06749 0.17133,-0.06749 0.31151,-0.202481 l 0.43093,0.467265 q -0.1921,0.218057 -0.48284,0.337469 -0.29075,0.11422 -0.66975,0.11422 z m 3.58756,-2.876274 q 0.33227,0 0.59187,0.134988 0.26478,0.129795 0.41534,0.404962 0.15056,0.269976 0.15056,0.695706 v 1.599083 h -0.80992 v -1.474479 q 0,-0.337469 -0.15056,-0.498416 -0.14538,-0.160947 -0.41535,-0.160947 -0.1921,0 -0.34785,0.08307 -0.15057,0.07788 -0.23883,0.244016 -0.0831,0.166139 -0.0831,0.42573 v 1.381027 h -0.80992 v -2.793204 h 0.77358 v 0.773582 l -0.14537,-0.233632 q 0.15056,-0.280359 0.43092,-0.430922 0.28036,-0.150563 0.6386,-0.150563 z m 3.22412,3.883489 q -0.39458,0 -0.7632,-0.09864 -0.36343,-0.09345 -0.60744,-0.28555 l 0.32189,-0.581485 q 0.17652,0.145371 0.4465,0.22844 0.27517,0.08826 0.53995,0.08826 0.43092,0 0.62302,-0.192097 0.19729,-0.192098 0.19729,-0.571102 v -0.420538 l 0.0519,-0.700897 -0.0104,-0.706089 v -0.602252 h 0.76839 v 2.32594 q 0,0.778774 -0.40496,1.147394 -0.40496,0.36862 -1.16297,0.36862 z m -0.1246,-1.183737 q -0.38939,0 -0.70609,-0.166139 -0.31151,-0.17133 -0.50361,-0.472456 -0.1869,-0.306318 -0.1869,-0.711281 0,-0.410155 0.1869,-0.711281 0.1921,-0.306318 0.50361,-0.472456 0.3167,-0.166139 0.70609,-0.166139 0.35304,0 0.62302,0.145371 0.26997,0.14018 0.42054,0.441306 0.15056,0.295934 0.15056,0.763199 0,0.462073 -0.15056,0.763199 -0.15057,0.295934 -0.42054,0.441305 -0.26998,0.145372 -0.62302,0.145372 z m 0.16094,-0.664555 q 0.21287,0 0.37901,-0.08307 0.16614,-0.08826 0.25959,-0.244016 0.0935,-0.155755 0.0935,-0.358236 0,-0.207673 -0.0935,-0.358236 -0.0934,-0.155755 -0.25959,-0.238825 -0.16614,-0.08826 -0.37901,-0.08826 -0.21286,0 -0.379,0.08826 -0.16614,0.08307 -0.26478,0.238825 -0.0935,0.150563 -0.0935,0.358236 0,0.202481 0.0935,0.358236 0.0986,0.155755 0.26478,0.244016 0.16614,0.08307 0.379,0.08307 z m 3.99772,0.799542 v -0.545142 l -0.0519,-0.119412 v -0.976064 q 0,-0.259592 -0.16095,-0.404963 -0.15575,-0.145371 -0.48284,-0.145371 -0.22325,0 -0.4413,0.07269 -0.21287,0.06749 -0.36343,0.186905 l -0.29074,-0.565909 q 0.22844,-0.160947 0.55033,-0.249208 0.32189,-0.08826 0.65417,-0.08826 0.6386,0 0.99164,0.301126 0.35304,0.301126 0.35304,0.939721 v 1.593892 z m -0.85146,0.04153 q -0.32709,0 -0.56072,-0.109028 -0.23363,-0.114221 -0.35824,-0.306318 -0.1246,-0.192098 -0.1246,-0.430922 0,-0.249208 0.11941,-0.436114 0.12461,-0.186906 0.38939,-0.290743 0.26478,-0.109028 0.69051,-0.109028 h 0.74243 v 0.472457 h -0.65417 q -0.28555,0 -0.39458,0.09345 -0.10383,0.09345 -0.10383,0.233633 0,0.155755 0.11941,0.249208 0.1246,0.08826 0.33747,0.08826 0.20248,0 0.36343,-0.09345 0.16094,-0.09865 0.23363,-0.285551 l 0.1246,0.373812 q -0.0883,0.269975 -0.32189,0.410155 -0.23363,0.140179 -0.60225,0.140179 z m 3.56159,0 q -0.39458,0 -0.71128,-0.176522 -0.3167,-0.181714 -0.50361,-0.503608 -0.18171,-0.321893 -0.18171,-0.758007 0,-0.441306 0.18171,-0.763199 0.18691,-0.321893 0.50361,-0.498416 0.3167,-0.176522 0.71128,-0.176522 0.35305,0 0.61783,0.155755 0.26478,0.155755 0.41016,0.472457 0.14537,0.316701 0.14537,0.809925 0,0.488032 -0.14018,0.809926 -0.14018,0.316701 -0.40497,0.472456 -0.25959,0.155755 -0.62821,0.155755 z m 0.14018,-0.664554 q 0.19729,0 0.35824,-0.09345 0.16095,-0.09345 0.2544,-0.264784 0.0986,-0.176522 0.0986,-0.415346 0,-0.244016 -0.0986,-0.415346 -0.0935,-0.171331 -0.2544,-0.264784 -0.16095,-0.09345 -0.35824,-0.09345 -0.20248,0 -0.36343,0.09345 -0.16094,0.09345 -0.25959,0.264784 -0.0934,0.17133 -0.0934,0.415346 0,0.238824 0.0934,0.415346 0.0987,0.171331 0.25959,0.264784 0.16095,0.09345 0.36343,0.09345 z m 0.73205,0.623019 v -0.571101 l 0.0156,-0.830693 -0.0519,-0.825501 v -1.625043 h 0.80992 v 3.852338 z m 2.69975,0.04153 q -0.34785,0 -0.62302,-0.134988 -0.26997,-0.134987 -0.42054,-0.410154 -0.15056,-0.280359 -0.15056,-0.711281 v -1.578316 h 0.80993 v 1.458904 q 0,0.347853 0.14537,0.513991 0.15056,0.160947 0.42054,0.160947 0.1869,0 0.33227,-0.07788 0.14537,-0.08307 0.22844,-0.249207 0.0831,-0.171331 0.0831,-0.42573 v -1.381027 h 0.80993 v 2.793204 h -0.76839 v -0.768391 l 0.14018,0.223249 q -0.14018,0.290743 -0.41535,0.441306 -0.26997,0.145371 -0.59187,0.145371 z m 4.10155,-0.04153 v -0.545142 l -0.0519,-0.119412 v -0.976064 q 0,-0.259592 -0.16095,-0.404963 -0.15575,-0.145371 -0.48284,-0.145371 -0.22325,0 -0.4413,0.07269 -0.21287,0.06749 -0.36343,0.186905 l -0.29074,-0.565909 q 0.22844,-0.160947 0.55033,-0.249208 0.32189,-0.08826 0.65417,-0.08826 0.6386,0 0.99164,0.301126 0.35305,0.301126 0.35305,0.939721 v 1.593892 z m -0.85146,0.04153 q -0.32709,0 -0.56072,-0.109028 -0.23363,-0.114221 -0.35824,-0.306318 -0.1246,-0.192098 -0.1246,-0.430922 0,-0.249208 0.11941,-0.436114 0.12461,-0.186906 0.38939,-0.290743 0.26478,-0.109028 0.69051,-0.109028 h 0.74243 v 0.472457 h -0.65417 q -0.28555,0 -0.39457,0.09345 -0.10384,0.09345 -0.10384,0.233633 0,0.155755 0.11941,0.249208 0.1246,0.08826 0.33747,0.08826 0.20248,0 0.36343,-0.09345 0.16094,-0.09865 0.23363,-0.285551 l 0.1246,0.373812 q -0.0883,0.269975 -0.32189,0.410155 -0.23363,0.140179 -0.60225,0.140179 z m 4.03924,-2.876274 q 0.33228,0 0.59187,0.134988 0.26479,0.129795 0.41535,0.404962 0.15056,0.269976 0.15056,0.695706 v 1.599083 h -0.80992 v -1.474479 q 0,-0.337469 -0.15057,-0.498416 -0.14537,-0.160947 -0.41534,-0.160947 -0.1921,0 -0.34786,0.08307 -0.15056,0.07788 -0.23882,0.244016 -0.0831,0.166139 -0.0831,0.42573 v 1.381027 h -0.80992 v -2.793204 h 0.77358 v 0.773582 l -0.14537,-0.233632 q 0.15056,-0.280359 0.43092,-0.430922 0.28036,-0.150563 0.63859,-0.150563 z m 4.709,2.876274 q -0.45169,0 -0.80474,-0.181714 -0.35304,-0.186906 -0.55552,-0.513991 -0.19729,-0.327086 -0.19729,-0.742432 0,-0.420538 0.19729,-0.742432 0.20248,-0.327085 0.55552,-0.508799 0.35305,-0.186906 0.80474,-0.186906 0.4413,0 0.76839,0.186906 0.32708,0.181714 0.48284,0.524375 l -0.62821,0.337469 q -0.10903,-0.19729 -0.27517,-0.290743 -0.16095,-0.09345 -0.35304,-0.09345 -0.20768,0 -0.37382,0.09345 -0.16613,0.09345 -0.26478,0.264784 -0.0934,0.17133 -0.0934,0.415346 0,0.244016 0.0934,0.415346 0.0986,0.171331 0.26478,0.264784 0.16614,0.09345 0.37382,0.09345 0.19209,0 0.35304,-0.08826 0.16614,-0.09345 0.27517,-0.295935 l 0.62821,0.342661 q -0.15576,0.337469 -0.48284,0.524375 -0.32709,0.181714 -0.76839,0.181714 z m 3.06837,0 q -0.47765,0 -0.84108,-0.186906 -0.35823,-0.186906 -0.55552,-0.508799 -0.19729,-0.327086 -0.19729,-0.742432 0,-0.420538 0.1921,-0.742432 0.19728,-0.327085 0.53475,-0.508799 0.33747,-0.186906 0.7632,-0.186906 0.41016,0 0.73724,0.176522 0.33228,0.171331 0.52438,0.498416 0.1921,0.321893 0.1921,0.773583 0,0.04673 -0.005,0.109028 -0.005,0.05711 -0.0104,0.109029 H 134.73 v -0.472457 h 1.8431 l -0.31151,0.140179 q 0,-0.218056 -0.0883,-0.379003 -0.0883,-0.160947 -0.24402,-0.249208 -0.15575,-0.09345 -0.36343,-0.09345 -0.20767,0 -0.36862,0.09345 -0.15575,0.08826 -0.24401,0.2544 -0.0883,0.160946 -0.0883,0.384195 v 0.124604 q 0,0.228441 0.0986,0.404963 0.10384,0.17133 0.28555,0.264783 0.18691,0.08826 0.43612,0.08826 0.22325,0 0.38938,-0.06749 0.17133,-0.06749 0.31151,-0.202481 l 0.43093,0.467265 q -0.1921,0.218057 -0.48284,0.337469 -0.29075,0.11422 -0.66975,0.11422 z m 3.54083,0 q -0.35304,0 -0.61783,-0.155755 -0.26478,-0.155755 -0.41534,-0.472456 -0.14538,-0.321894 -0.14538,-0.809926 0,-0.493224 0.14018,-0.809925 0.14018,-0.316702 0.40497,-0.472457 0.26478,-0.155755 0.6334,-0.155755 0.39458,0 0.70609,0.181714 0.3167,0.176522 0.49841,0.498416 0.18691,0.321893 0.18691,0.758007 0,0.441306 -0.18691,0.763199 -0.18171,0.321894 -0.49841,0.498416 -0.31151,0.176522 -0.70609,0.176522 z m -1.651,0.96568 v -3.800419 h 0.77358 v 0.571101 l -0.0156,0.830693 0.0519,0.825501 v 1.573124 z m 1.51082,-1.630234 q 0.20248,0 0.35824,-0.09345 0.16094,-0.09345 0.2544,-0.264784 0.0986,-0.176522 0.0986,-0.415346 0,-0.244016 -0.0986,-0.415346 -0.0935,-0.171331 -0.2544,-0.264784 -0.15576,-0.09345 -0.35824,-0.09345 -0.20248,0 -0.36343,0.09345 -0.16094,0.09345 -0.2544,0.264784 -0.0934,0.17133 -0.0934,0.415346 0,0.238824 0.0934,0.415346 0.0935,0.171331 0.2544,0.264784 0.16095,0.09345 0.36343,0.09345 z m 3.73812,0.623019 v -0.545142 l -0.0519,-0.119412 v -0.976064 q 0,-0.259592 -0.16095,-0.404963 -0.15575,-0.145371 -0.48284,-0.145371 -0.22325,0 -0.4413,0.07269 -0.21287,0.06749 -0.36343,0.186905 l -0.29074,-0.565909 q 0.22844,-0.160947 0.55033,-0.249208 0.32189,-0.08826 0.65417,-0.08826 0.6386,0 0.99164,0.301126 0.35305,0.301126 0.35305,0.939721 v 1.593892 z m -0.85146,0.04153 q -0.32709,0 -0.56072,-0.109028 -0.23363,-0.114221 -0.35824,-0.306318 -0.1246,-0.192098 -0.1246,-0.430922 0,-0.249208 0.11941,-0.436114 0.12461,-0.186906 0.38939,-0.290743 0.26478,-0.109028 0.69051,-0.109028 h 0.74243 v 0.472457 h -0.65417 q -0.28555,0 -0.39457,0.09345 -0.10384,0.09345 -0.10384,0.233633 0,0.155755 0.11941,0.249208 0.1246,0.08826 0.33747,0.08826 0.20248,0 0.36343,-0.09345 0.16094,-0.09865 0.23363,-0.285551 l 0.1246,0.373812 q -0.0883,0.269975 -0.32189,0.410155 -0.23363,0.140179 -0.60225,0.140179 z m 3.48372,0 q -0.49323,0 -0.76839,-0.249208 -0.27517,-0.2544 -0.27517,-0.752815 v -2.450544 h 0.80993 v 2.44016 q 0,0.176522 0.0934,0.275167 0.0935,0.09345 0.2544,0.09345 0.1921,0 0.32708,-0.103837 l 0.21806,0.571102 q -0.1246,0.08826 -0.30113,0.134987 -0.17133,0.04153 -0.35823,0.04153 z m -1.47448,-2.149418 v -0.623019 h 1.93655 v 0.623019 z m 5.25932,2.149418 q -0.39458,0 -0.71128,-0.176522 -0.3167,-0.181714 -0.50361,-0.503608 -0.18171,-0.321893 -0.18171,-0.758007 0,-0.441306 0.18171,-0.763199 0.18691,-0.321893 0.50361,-0.498416 0.3167,-0.176522 0.71128,-0.176522 0.35305,0 0.61783,0.155755 0.26478,0.155755 0.41015,0.472457 0.14538,0.316701 0.14538,0.809925 0,0.488032 -0.14018,0.809926 -0.14018,0.316701 -0.40497,0.472456 -0.25959,0.155755 -0.62821,0.155755 z m 0.14018,-0.664554 q 0.19729,0 0.35824,-0.09345 0.16094,-0.09345 0.2544,-0.264784 0.0986,-0.176522 0.0986,-0.415346 0,-0.244016 -0.0986,-0.415346 -0.0935,-0.171331 -0.2544,-0.264784 -0.16095,-0.09345 -0.35824,-0.09345 -0.20248,0 -0.36343,0.09345 -0.16094,0.09345 -0.25959,0.264784 -0.0934,0.17133 -0.0934,0.415346 0,0.238824 0.0934,0.415346 0.0986,0.171331 0.25959,0.264784 0.16095,0.09345 0.36343,0.09345 z m 0.73205,0.623019 v -0.571101 l 0.0156,-0.830693 -0.0519,-0.825501 v -1.625043 h 0.80992 v 3.852338 z m 3.23451,0 v -0.545142 l -0.0519,-0.119412 v -0.976064 q 0,-0.259592 -0.16095,-0.404963 -0.15575,-0.145371 -0.48284,-0.145371 -0.22325,0 -0.4413,0.07269 -0.21287,0.06749 -0.36343,0.186905 l -0.29074,-0.565909 q 0.22844,-0.160947 0.55033,-0.249208 0.32189,-0.08826 0.65417,-0.08826 0.63859,0 0.99164,0.301126 0.35304,0.301126 0.35304,0.939721 v 1.593892 z m -0.85146,0.04153 q -0.32709,0 -0.56072,-0.109028 -0.23363,-0.114221 -0.35824,-0.306318 -0.1246,-0.192098 -0.1246,-0.430922 0,-0.249208 0.11941,-0.436114 0.1246,-0.186906 0.38939,-0.290743 0.26478,-0.109028 0.69051,-0.109028 h 0.74243 v 0.472457 h -0.65417 q -0.28555,0 -0.39458,0.09345 -0.10383,0.09345 -0.10383,0.233633 0,0.155755 0.11941,0.249208 0.1246,0.08826 0.33747,0.08826 0.20248,0 0.36343,-0.09345 0.16094,-0.09865 0.23363,-0.285551 l 0.1246,0.373812 q -0.0883,0.269975 -0.32189,0.410155 -0.23363,0.140179 -0.60225,0.140179 z m 4.03924,-2.876274 q 0.33228,0 0.59187,0.134988 0.26478,0.129795 0.41535,0.404962 0.15056,0.269976 0.15056,0.695706 v 1.599083 h -0.80992 v -1.474479 q 0,-0.337469 -0.15057,-0.498416 -0.14537,-0.160947 -0.41534,-0.160947 -0.1921,0 -0.34786,0.08307 -0.15056,0.07788 -0.23882,0.244016 -0.0831,0.166139 -0.0831,0.42573 v 1.381027 h -0.80993 v -2.793204 h 0.77359 v 0.773582 l -0.14537,-0.233632 q 0.15056,-0.280359 0.43092,-0.430922 0.28036,-0.150563 0.63859,-0.150563 z m 4.50133,2.876274 q -0.49322,0 -0.76839,-0.249208 -0.27517,-0.2544 -0.27517,-0.752815 v -2.450544 h 0.80993 v 2.44016 q 0,0.176522 0.0934,0.275167 0.0934,0.09345 0.2544,0.09345 0.1921,0 0.32709,-0.103837 l 0.21805,0.571102 q -0.1246,0.08826 -0.30112,0.134987 -0.17133,0.04153 -0.35824,0.04153 z m -1.47448,-2.149418 v -0.623019 h 1.93655 v 0.623019 z m 3.88868,2.149418 q -0.47765,0 -0.84108,-0.186906 -0.35823,-0.186906 -0.55552,-0.508799 -0.19729,-0.327086 -0.19729,-0.742432 0,-0.420538 0.19209,-0.742432 0.19729,-0.327085 0.53476,-0.508799 0.33747,-0.186906 0.7632,-0.186906 0.41016,0 0.73724,0.176522 0.33228,0.171331 0.52438,0.498416 0.19209,0.321893 0.19209,0.773583 0,0.04673 -0.005,0.109028 -0.005,0.05711 -0.0104,0.109029 h -2.26883 v -0.472457 h 1.8431 l -0.31151,0.140179 q 0,-0.218056 -0.0883,-0.379003 -0.0883,-0.160947 -0.24402,-0.249208 -0.15575,-0.09345 -0.36343,-0.09345 -0.20767,0 -0.36862,0.09345 -0.15575,0.08826 -0.24401,0.2544 -0.0883,0.160946 -0.0883,0.384195 v 0.124604 q 0,0.228441 0.0986,0.404963 0.10384,0.17133 0.28555,0.264783 0.18691,0.08826 0.43612,0.08826 0.22324,0 0.38938,-0.06749 0.17133,-0.06749 0.31151,-0.202481 l 0.43092,0.467265 q -0.19209,0.218057 -0.48284,0.337469 -0.29074,0.11422 -0.66974,0.11422 z m 3.54083,0 q -0.35305,0 -0.61783,-0.155755 -0.26478,-0.155755 -0.41535,-0.472456 -0.14537,-0.321894 -0.14537,-0.809926 0,-0.493224 0.14018,-0.809925 0.14018,-0.316702 0.40497,-0.472457 0.26478,-0.155755 0.6334,-0.155755 0.39458,0 0.70609,0.181714 0.3167,0.176522 0.49841,0.498416 0.18691,0.321893 0.18691,0.758007 0,0.441306 -0.18691,0.763199 -0.18171,0.321894 -0.49841,0.498416 -0.31151,0.176522 -0.70609,0.176522 z m -1.651,0.96568 v -3.800419 h 0.77358 v 0.571101 l -0.0156,0.830693 0.0519,0.825501 v 1.573124 z m 1.51082,-1.630234 q 0.20248,0 0.35824,-0.09345 0.16094,-0.09345 0.25439,-0.264784 0.0987,-0.176522 0.0987,-0.415346 0,-0.244016 -0.0987,-0.415346 -0.0934,-0.171331 -0.25439,-0.264784 -0.15576,-0.09345 -0.35824,-0.09345 -0.20248,0 -0.36343,0.09345 -0.16095,0.09345 -0.2544,0.264784 -0.0934,0.17133 -0.0934,0.415346 0,0.238824 0.0934,0.415346 0.0935,0.171331 0.2544,0.264784 0.16095,0.09345 0.36343,0.09345 z m 3.73811,0.623019 v -0.545142 l -0.0519,-0.119412 v -0.976064 q 0,-0.259592 -0.16095,-0.404963 -0.15575,-0.145371 -0.48284,-0.145371 -0.22324,0 -0.4413,0.07269 -0.21287,0.06749 -0.36343,0.186905 l -0.29074,-0.565909 q 0.22844,-0.160947 0.55033,-0.249208 0.3219,-0.08826 0.65417,-0.08826 0.6386,0 0.99164,0.301126 0.35305,0.301126 0.35305,0.939721 v 1.593892 z m -0.85146,0.04153 q -0.32709,0 -0.56072,-0.109028 -0.23363,-0.114221 -0.35823,-0.306318 -0.12461,-0.192098 -0.12461,-0.430922 0,-0.249208 0.11941,-0.436114 0.12461,-0.186906 0.38939,-0.290743 0.26478,-0.109028 0.69051,-0.109028 h 0.74244 v 0.472457 h -0.65417 q -0.28556,0 -0.39458,0.09345 -0.10384,0.09345 -0.10384,0.233633 0,0.155755 0.11941,0.249208 0.12461,0.08826 0.33747,0.08826 0.20248,0 0.36343,-0.09345 0.16095,-0.09865 0.23363,-0.285551 l 0.12461,0.373812 q -0.0883,0.269975 -0.3219,0.410155 -0.23363,0.140179 -0.60225,0.140179 z m 3.48372,0 q -0.49322,0 -0.76839,-0.249208 -0.27517,-0.2544 -0.27517,-0.752815 v -2.450544 h 0.80993 v 2.44016 q 0,0.176522 0.0935,0.275167 0.0934,0.09345 0.2544,0.09345 0.1921,0 0.32709,-0.103837 l 0.21805,0.571102 q -0.1246,0.08826 -0.30112,0.134987 -0.17133,0.04153 -0.35824,0.04153 z m -1.47448,-2.149418 v -0.623019 h 1.93655 v 0.623019 z"
       id="text1292"
       style="font-weight:bold;font-size:5.19183px;font-family:Montserrat;-inkscape-font-specification:'Montserrat Bold';fill:#ffffff;stroke-width:5.5189"
       aria-label="Solusi pengaduan cepat dan tepat" />
    <path
       id="path44"
       style="fill:none;fill-opacity:1;stroke:#ffffff;stroke-width:1.7339;stroke-dasharray:none;stroke-opacity:1"
       d="M 65.027565,12.343605 52.685902,18.873142 H 18.715107 c -0.669721,0 -1.209019,0.538701 -1.209019,1.208421 v 32.083196 c 0,0.66972 0.539298,1.209018 1.209019,1.209018 h 5.937572 V 24.752175 c 0,-0.66972 0.539299,-1.20902 1.209019,-1.20902 h 40.054116 v -3.461592 c 0,-0.66972 -0.539297,-1.208421 -1.209018,-1.208421 h -3.342721 z" />
    <path
       id="path45"
       style="fill:none;fill-opacity:1;stroke:#ffffff;stroke-width:1.7339;stroke-dasharray:none;stroke-opacity:1"
       d="m 25.861646,23.543318 c -0.66972,0 -1.208782,0.539061 -1.208782,1.208781 v 32.083132 c 0,0.66972 0.539062,1.209088 1.208782,1.209088 h 3.342628 l -3.663606,6.528893 12.341005,-6.528893 h 33.971439 c 0.669719,0 1.209086,-0.539368 1.209086,-1.209088 V 24.752099 c 0,-0.66972 -0.539367,-1.208781 -1.209086,-1.208781 z" />
    <g
       id="g47"
       transform="matrix(1.1559258,0,0,1.1559258,-51.801023,-17.002575)"
       style="fill:#ffffff;fill-opacity:1">
      <rect
         style="fill:#ffffff;fill-opacity:1;stroke:none;stroke-width:0.731113;stroke-dasharray:none;stroke-opacity:1"
         id="rect45"
         width="26.005331"
         height="2.7089832"
         x="69.143578"
         y="48.159603"
         ry="0.4397482" />
      <rect
         style="fill:#ffffff;fill-opacity:1;stroke:none;stroke-width:0.858701;stroke-dasharray:none;stroke-opacity:1"
         id="rect46"
         width="35.873772"
         height="2.7089832"
         x="69.143578"
         y="39.473759"
         ry="0.4397482" />
      <rect
         style="fill:#ffffff;fill-opacity:1;stroke:none;stroke-width:0.731113;stroke-dasharray:none;stroke-opacity:1"
         id="rect47"
         width="26.005331"
         height="2.7089832"
         x="69.143578"
         y="56.845444"
         ry="0.4397482" />
    </g>
  </g>
</svg>
