<?xml version="1.0" encoding="UTF-8" standalone="no"?>
<!-- Created with Inkscape (http://www.inkscape.org/) -->

<svg
   width="411.68094mm"
   height="191.60815mm"
   viewBox="0 0 411.68096 191.60815"
   version="1.1"
   id="svg5"
   xml:space="preserve"
   inkscape:version="1.3.2 (091e20e, 2023-11-25, custom)"
   sodipodi:docname="landing-background.svg"
   xmlns:inkscape="http://www.inkscape.org/namespaces/inkscape"
   xmlns:sodipodi="http://sodipodi.sourceforge.net/DTD/sodipodi-0.dtd"
   xmlns="http://www.w3.org/2000/svg"
   xmlns:svg="http://www.w3.org/2000/svg"><sodipodi:namedview
     id="namedview7"
     pagecolor="#505050"
     bordercolor="#ffffff"
     borderopacity="1"
     inkscape:showpageshadow="0"
     inkscape:pageopacity="0"
     inkscape:pagecheckerboard="1"
     inkscape:deskcolor="#505050"
     inkscape:document-units="mm"
     showgrid="false"
     inkscape:zoom="0.51276154"
     inkscape:cx="668.92693"
     inkscape:cy="342.26436"
     inkscape:window-width="1920"
     inkscape:window-height="1001"
     inkscape:window-x="-9"
     inkscape:window-y="-9"
     inkscape:window-maximized="1"
     inkscape:current-layer="layer1" /><defs
     id="defs2"><clipPath
       clipPathUnits="userSpaceOnUse"
       id="clipPath5570"><rect
         style="fill:#593e1b;fill-opacity:0.184971;stroke-width:1.30847"
         id="rect5572"
         width="1146.3649"
         height="572.94604"
         x="-3.907985e-14"
         y="-5.062617e-14" /></clipPath><clipPath
       clipPathUnits="userSpaceOnUse"
       id="clipPath579"><rect
         style="fill:#000000;stroke-width:2.89367"
         id="rect581"
         width="405.11337"
         height="572.94604"
         x="424.51999"
         y="-1.3394841e-14" /></clipPath></defs><g
     inkscape:label="Layer 1"
     inkscape:groupmode="layer"
     id="layer1"><circle
       cx="110.50024"
       cy="95.804077"
       r="84.769737"
       id="circle2278"
       stroke-width="1.16166"
       fill="#3481ac" /><g
       id="g2292"
       transform="matrix(1.7554373,0,0,1.7554373,-36.937302,8.791371)"><path
         d="M 101.069,26.9751 90.3924,32.6238 H 61.004 c -0.5794,0 -1.0459,0.4661 -1.0459,1.0455 v 27.7554 c 0,0.5794 0.4665,1.0459 1.0459,1.0459 h 5.1367 V 37.7098 c 0,-0.5793 0.4665,-1.0459 1.0459,-1.0459 h 34.6514 v -2.9946 c 0,-0.5794 -0.467,-1.0455 -1.046,-1.0455 H 97.9 Z"
         id="path2280"
         stroke="#fafcfe"
         stroke-width="1.5"
         fill="none" /><path
         d="m 67.1866,36.6641 c -0.5794,0 -1.0458,0.4663 -1.0458,1.0457 v 27.7553 c 0,0.5794 0.4664,1.046 1.0458,1.046 h 2.8917 l -3.1694,5.6482 10.6763,-5.6482 h 29.3888 c 0.579,0 1.046,-0.4666 1.046,-1.046 V 37.7098 c 0,-0.5794 -0.467,-1.0457 -1.046,-1.0457 z"
         id="path2282"
         stroke="#fdfefe"
         stroke-width="1.5"
         fill="none" /><g
         id="g2290"
         fill="#f9f9f9"
         transform="translate(0,1.5875)"><rect
           x="69.1436"
           y="48.159599"
           ry="0.43974799"
           width="26.005301"
           height="2.7089801"
           id="rect2284"
           stroke-width="0.731113" /><rect
           x="69.1436"
           y="39.473801"
           ry="0.43974799"
           width="35.873798"
           height="2.7089801"
           id="rect2286"
           stroke-width="0.858701" /><rect
           x="69.1436"
           y="56.845402"
           ry="0.43974799"
           width="26.005301"
           height="2.7089801"
           id="rect2288"
           stroke-width="0.731113" /></g></g><path
       d="m 177.21443,93.055721 -0.2712,-5.635001 10.09479,-10.637196 h 5.42406 l -9.10037,9.793452 -2.71204,2.892835 z m -4.36938,4.821392 V 76.783524 h 4.85152 v 21.093589 z m 14.43404,0 -7.50329,-9.190778 3.19417,-3.465375 10.00439,12.656153 z m 14.91619,0.24107 q -2.7723,0 -4.88166,-1.084813 -2.07922,-1.084813 -3.2243,-2.953103 -1.14508,-1.898423 -1.14508,-4.309119 0,-2.440829 1.11494,-4.309119 1.14508,-1.898423 3.10377,-2.953102 1.95869,-1.084814 4.42966,-1.084814 2.38056,0 4.27898,1.024546 1.92856,0.994412 3.04351,2.892835 1.11494,1.86829 1.11494,4.489922 0,0.271203 -0.0301,0.632807 -0.0301,0.331471 -0.0603,0.632808 h -13.16842 v -2.742167 h 10.69746 l -1.80802,0.81361 q 0,-1.265615 -0.51228,-2.19976 -0.51227,-0.934145 -1.41628,-1.446417 -0.90401,-0.542407 -2.10936,-0.542407 -1.20535,0 -2.13949,0.542407 -0.90401,0.512272 -1.41629,1.476551 -0.51227,0.934145 -0.51227,2.229894 v 0.723208 q 0,1.325883 0.57254,2.350429 0.60268,0.994412 1.65736,1.536819 1.08481,0.512273 2.53123,0.512273 1.29575,0 2.26002,-0.391739 0.99442,-0.391738 1.80803,-1.175214 l 2.50109,2.712033 q -1.11494,1.265615 -2.80243,1.958691 -1.68749,0.662941 -3.88725,0.662941 z m 10.96869,-0.24107 V 75.517908 h 4.70085 v 22.359205 z m 15.9106,0.24107 q -2.01895,0 -3.61604,-0.783476 -1.56695,-0.783476 -2.44083,-2.380563 -0.87388,-1.627219 -0.87388,-4.128316 v -9.160645 h 4.70086 v 8.46757 q 0,2.018957 0.84374,2.983236 0.87388,0.934145 2.44083,0.934145 1.08482,0 1.92856,-0.452006 0.84374,-0.482139 1.32588,-1.446418 0.48214,-0.994412 0.48214,-2.470963 v -8.015564 h 4.70086 v 16.21193 h -4.45979 v -4.459787 l 0.81361,1.295749 q -0.81361,1.687487 -2.41069,2.561364 -1.56696,0.843744 -3.43525,0.843744 z m 23.71523,-16.69407 q 1.92856,0 3.43524,0.783477 1.53682,0.753342 2.4107,2.350428 0.87388,1.566953 0.87388,4.037916 v 9.281179 h -4.70086 v -8.55797 q 0,-1.958691 -0.87388,-2.892835 -0.84374,-0.934145 -2.41069,-0.934145 -1.11495,0 -2.01896,0.482139 -0.87388,0.452006 -1.38615,1.416284 -0.48214,0.964278 -0.48214,2.470963 v 8.015564 h -4.70086 V 75.517908 h 4.70086 v 10.637196 l -1.05468,-1.356016 q 0.87388,-1.62722 2.5011,-2.501097 1.62722,-0.873878 3.70644,-0.873878 z m 20.91279,16.453 V 94.713075 L 273.40125,94.02 v -5.665136 q 0,-1.506685 -0.93414,-2.350428 -0.90401,-0.843744 -2.80243,-0.843744 -1.29575,0 -2.56137,0.421872 -1.23548,0.391738 -2.10936,1.084813 l -1.68748,-3.284573 q 1.32588,-0.934145 3.19417,-1.446418 1.86829,-0.512273 3.79684,-0.512273 3.70645,0 5.75554,1.747755 2.04909,1.747755 2.04909,5.4542 v 9.251045 z m -4.94193,0.24107 q -1.89842,0 -3.25443,-0.632808 -1.35602,-0.662941 -2.07923,-1.777888 -0.72321,-1.114947 -0.72321,-2.501097 0,-1.446418 0.69308,-2.531231 0.72321,-1.084813 2.26002,-1.687487 1.53682,-0.632808 4.00779,-0.632808 h 4.30911 v 2.742167 h -3.79684 q -1.65735,0 -2.29016,0.542407 -0.60268,0.542406 -0.60268,1.356016 0,0.904011 0.69308,1.446418 0.72321,0.512272 1.95869,0.512272 1.17521,0 2.10936,-0.542406 0.93414,-0.57254 1.35601,-1.657354 l 0.72321,2.169627 q -0.51227,1.566952 -1.86829,2.380562 -1.35601,0.81361 -3.49551,0.81361 z m 23.44404,-16.69407 q 1.92855,0 3.43524,0.783477 1.53682,0.753342 2.41069,2.350428 0.87388,1.566953 0.87388,4.037916 v 9.281179 h -4.70086 v -8.55797 q 0,-1.958691 -0.87387,-2.892835 -0.84375,-0.934145 -2.4107,-0.934145 -1.11495,0 -2.01896,0.482139 -0.87387,0.452006 -1.38615,1.416284 -0.48214,0.964278 -0.48214,2.470963 v 8.015564 h -4.70085 v -16.21193 h 4.48992 v 4.489921 l -0.84375,-1.356016 q 0.87388,-1.62722 2.5011,-2.501097 1.62722,-0.873878 3.70645,-0.873878 z m 19.828,16.453 V 76.783524 h 9.58251 q 3.43525,0 6.05688,1.325883 2.62163,1.295749 4.09818,3.646177 1.47655,2.350429 1.47655,5.574735 0,3.194172 -1.47655,5.574734 -1.47655,2.350428 -4.09818,3.676311 -2.62163,1.295749 -6.05688,1.295749 z m 4.88166,-4.007782 h 4.45978 q 2.10936,0 3.64618,-0.783476 1.56695,-0.81361 2.4107,-2.290161 0.87388,-1.476551 0.87388,-3.465375 0,-2.018958 -0.87388,-3.465376 -0.84375,-1.476551 -2.4107,-2.260027 -1.53682,-0.81361 -3.64618,-0.81361 h -4.45978 z m 27.72301,4.248852 q -2.7723,0 -4.88166,-1.084813 -2.07923,-1.084813 -3.22431,-2.953103 -1.14508,-1.898423 -1.14508,-4.309119 0,-2.440829 1.11495,-4.309119 1.14508,-1.898423 3.10377,-2.953102 1.95869,-1.084814 4.42965,-1.084814 2.38057,0 4.27899,1.024546 1.92856,0.994412 3.0435,2.892835 1.11495,1.86829 1.11495,4.489922 0,0.271203 -0.0301,0.632807 -0.0301,0.331471 -0.0603,0.632808 H 339.2133 v -2.742167 h 10.69746 l -1.80802,0.81361 q 0,-1.265615 -0.51227,-2.19976 -0.51227,-0.934145 -1.41628,-1.446417 -0.90402,-0.542407 -2.10936,-0.542407 -1.20535,0 -2.1395,0.542407 -0.90401,0.512272 -1.41628,1.476551 -0.51227,0.934145 -0.51227,2.229894 v 0.723208 q 0,1.325883 0.57254,2.350429 0.60267,0.994412 1.65735,1.536819 1.08481,0.512273 2.53123,0.512273 1.29575,0 2.26003,-0.391739 0.99441,-0.391738 1.80802,-1.175214 l 2.5011,2.712033 q -1.11495,1.265615 -2.80244,1.958691 -1.68748,0.662941 -3.88724,0.662941 z m 16.42289,0 q -2.07923,0 -4.00778,-0.482139 -1.89843,-0.512273 -3.01337,-1.265616 l 1.56695,-3.374974 q 1.11495,0.693075 2.62163,1.145081 1.53682,0.421871 3.01337,0.421871 1.62722,0 2.29016,-0.391738 0.69308,-0.391738 0.69308,-1.084813 0,-0.57254 -0.54241,-0.843743 -0.51227,-0.301337 -1.38615,-0.452006 -0.87388,-0.150668 -1.92856,-0.301337 -1.02454,-0.150668 -2.07922,-0.391738 -1.05468,-0.271203 -1.92856,-0.783476 -0.87388,-0.512273 -1.41628,-1.38615 -0.51228,-0.873878 -0.51228,-2.260028 0,-1.536819 0.87388,-2.712033 0.90401,-1.175214 2.5915,-1.838155 1.68749,-0.693076 4.03792,-0.693076 1.65735,0 3.37497,0.361605 1.71762,0.361604 2.8627,1.054679 l -1.56695,3.344841 q -1.17522,-0.693075 -2.38056,-0.934145 -1.17522,-0.271203 -2.29016,-0.271203 -1.56696,0 -2.29017,0.421872 -0.7232,0.421872 -0.7232,1.084813 0,0.602674 0.51227,0.904011 0.5424,0.301337 1.41628,0.482139 0.87388,0.180802 1.89843,0.331471 1.05467,0.120535 2.10935,0.391738 1.05468,0.271203 1.89843,0.783476 0.87387,0.482139 1.41628,1.356017 0.54241,0.843743 0.54241,2.229893 0,1.506685 -0.90401,2.6819 -0.90401,1.14508 -2.62164,1.808022 -1.68748,0.662941 -4.12831,0.662941 z m 20.49091,-0.24107 V 94.713075 L 381.24983,94.02 v -5.665136 q 0,-1.506685 -0.93414,-2.350428 -0.90401,-0.843744 -2.80243,-0.843744 -1.29575,0 -2.56137,0.421872 -1.23548,0.391738 -2.10936,1.084813 l -1.68749,-3.284573 q 1.32589,-0.934145 3.19418,-1.446418 1.86829,-0.512273 3.79684,-0.512273 3.70645,0 5.75554,1.747755 2.04909,1.747755 2.04909,5.4542 v 9.251045 z m -4.94193,0.24107 q -1.89842,0 -3.25444,-0.632808 -1.35601,-0.662941 -2.07922,-1.777888 -0.72321,-1.114947 -0.72321,-2.501097 0,-1.446418 0.69308,-2.531231 0.7232,-1.084813 2.26002,-1.687487 1.53682,-0.632808 4.00779,-0.632808 h 4.30911 v 2.742167 h -3.79684 q -1.65736,0 -2.29016,0.542407 -0.60268,0.542406 -0.60268,1.356016 0,0.904011 0.69308,1.446418 0.72321,0.512272 1.95869,0.512272 1.17521,0 2.10936,-0.542406 0.93414,-0.57254 1.35601,-1.657354 l 0.72321,2.169627 q -0.51227,1.566952 -1.86829,2.380562 -1.35601,0.81361 -3.49551,0.81361 z"
       id="text640"
       style="font-weight:700;font-size:30.1337px;font-family:Montserrat;fill:#ffffff;stroke-width:1.42364"
       aria-label="Keluhan Desa" /><path
       d="m 174.24381,114.05194 q -0.90088,0 -1.72668,-0.23595 -0.8258,-0.24666 -1.32986,-0.63275 l 0.58986,-1.30842 q 0.48261,0.34319 1.13682,0.56841 0.66493,0.2145 1.34058,0.2145 0.51479,0 0.82581,-0.0965 0.32174,-0.10724 0.47188,-0.28956 0.15015,-0.18232 0.15015,-0.41827 0,-0.30029 -0.23594,-0.47188 -0.23595,-0.18232 -0.62204,-0.28957 -0.38609,-0.11797 -0.85797,-0.21449 -0.46117,-0.10725 -0.93305,-0.2574 -0.46116,-0.15014 -0.84725,-0.38609 -0.38609,-0.23594 -0.63276,-0.62203 -0.23594,-0.38609 -0.23594,-0.98667 0,-0.64348 0.34319,-1.16899 0.35391,-0.53624 1.05102,-0.84725 0.70783,-0.32175 1.76957,-0.32175 0.70783,0 1.39421,0.1716 0.68638,0.16087 1.21189,0.49334 l -0.53623,1.31913 q -0.52551,-0.30029 -1.05102,-0.43971 -0.52551,-0.15014 -1.02957,-0.15014 -0.50406,0 -0.8258,0.11797 -0.32175,0.11797 -0.46117,0.31101 -0.13942,0.18232 -0.13942,0.42899 0,0.28957 0.23595,0.47189 0.23594,0.17159 0.62203,0.27884 0.38609,0.10725 0.84725,0.21449 0.47189,0.10725 0.93305,0.24667 0.47189,0.13942 0.85797,0.37537 0.38609,0.23594 0.62204,0.62203 0.24667,0.38609 0.24667,0.97595 0,0.63275 -0.35392,1.15826 -0.35392,0.52552 -1.06175,0.84726 -0.6971,0.32174 -1.76957,0.32174 z m 7.00323,-0.0429 q -0.92232,0 -1.64088,-0.38609 -0.70783,-0.38609 -1.12609,-1.05102 -0.40754,-0.67566 -0.40754,-1.53363 0,-0.8687 0.40754,-1.53364 0.41826,-0.67565 1.12609,-1.05102 0.71856,-0.38609 1.64088,-0.38609 0.9116,0 1.63016,0.38609 0.71855,0.37537 1.12609,1.0403 0.40754,0.66493 0.40754,1.54436 0,0.85797 -0.40754,1.53363 -0.40754,0.66493 -1.12609,1.05102 -0.71856,0.38609 -1.63016,0.38609 z m 0,-1.37276 q 0.41827,0 0.75073,-0.19305 0.33247,-0.19304 0.52551,-0.54696 0.19305,-0.36464 0.19305,-0.85797 0,-0.50406 -0.19305,-0.85798 -0.19304,-0.35391 -0.52551,-0.54696 -0.33246,-0.19304 -0.75073,-0.19304 -0.41826,0 -0.75073,0.19304 -0.33246,0.19305 -0.53623,0.54696 -0.19305,0.35392 -0.19305,0.85798 0,0.49333 0.19305,0.85797 0.20377,0.35392 0.53623,0.54696 0.33247,0.19305 0.75073,0.19305 z m 4.27917,1.28696 v -7.95773 h 1.67305 v 7.95773 z m 5.66264,0.0858 q -0.71855,0 -1.28696,-0.27884 -0.55768,-0.27885 -0.8687,-0.84726 -0.31102,-0.57913 -0.31102,-1.46928 v -3.26031 h 1.67306 v 3.01364 q 0,0.71856 0.30029,1.06175 0.31101,0.33246 0.8687,0.33246 0.38609,0 0.68638,-0.16087 0.30029,-0.17159 0.47189,-0.51478 0.17159,-0.35392 0.17159,-0.87943 v -2.85277 h 1.67305 v 5.76989 h -1.58725 v -1.58725 l 0.28957,0.46116 q -0.28957,0.60058 -0.85798,0.9116 -0.55769,0.30029 -1.22262,0.30029 z m 6.87454,0 q -0.74,0 -1.42639,-0.1716 -0.67565,-0.18232 -1.07247,-0.45043 l 0.55769,-1.20117 q 0.39681,0.24667 0.93305,0.40754 0.54696,0.15014 1.07247,0.15014 0.57913,0 0.81507,-0.13942 0.24667,-0.13942 0.24667,-0.38609 0,-0.20377 -0.19304,-0.30029 -0.18232,-0.10725 -0.49334,-0.16087 -0.31101,-0.0536 -0.68638,-0.10725 -0.36464,-0.0536 -0.74,-0.13942 -0.37537,-0.0965 -0.68638,-0.27884 -0.31102,-0.18232 -0.50406,-0.49334 -0.18232,-0.31101 -0.18232,-0.80435 0,-0.54696 0.31101,-0.96522 0.32174,-0.41826 0.92233,-0.65421 0.60058,-0.24667 1.43711,-0.24667 0.58985,0 1.20116,0.1287 0.61131,0.1287 1.01885,0.37537 l -0.55769,1.19044 q -0.41826,-0.24667 -0.84725,-0.33247 -0.41826,-0.0965 -0.81507,-0.0965 -0.55769,0 -0.81508,0.15014 -0.25739,0.15015 -0.25739,0.38609 0,0.2145 0.18232,0.32175 0.19304,0.10724 0.50406,0.17159 0.31101,0.0644 0.67565,0.11797 0.37537,0.0429 0.75073,0.13942 0.37537,0.0965 0.67566,0.27885 0.31101,0.17159 0.50406,0.48261 0.19304,0.30029 0.19304,0.79362 0,0.53624 -0.32174,0.9545 -0.32174,0.40754 -0.93305,0.64348 -0.60058,0.23595 -1.46928,0.23595 z m 3.75365,-0.0858 v -5.76989 h 1.67305 v 5.76989 z m 0.83652,-6.57424 q -0.46116,0 -0.75073,-0.26812 -0.28956,-0.26812 -0.28956,-0.66493 0,-0.39681 0.28956,-0.66493 0.28957,-0.26812 0.75073,-0.26812 0.46116,0 0.75073,0.25739 0.28957,0.24667 0.28957,0.64349 0,0.41826 -0.28957,0.6971 -0.27884,0.26812 -0.75073,0.26812 z m 8.83717,6.66004 q -0.72928,0 -1.27624,-0.32174 -0.54696,-0.32174 -0.85797,-0.97595 -0.3003,-0.66493 -0.3003,-1.67305 0,-1.01885 0.28957,-1.67306 0.28957,-0.6542 0.83653,-0.97594 0.54696,-0.32175 1.30841,-0.32175 0.81508,0 1.45856,0.37537 0.65421,0.36464 1.02957,1.02957 0.38609,0.66493 0.38609,1.56581 0,0.9116 -0.38609,1.57653 -0.37536,0.66493 -1.02957,1.02957 -0.64348,0.36464 -1.45856,0.36464 z m -3.41045,1.99479 v -7.85048 h 1.59798 v 1.17972 l -0.0322,1.71595 0.10725,1.70523 v 3.24958 z m 3.12088,-3.36755 q 0.41827,0 0.74001,-0.19305 0.33246,-0.19304 0.52551,-0.54696 0.20377,-0.36464 0.20377,-0.85797 0,-0.50406 -0.20377,-0.85798 -0.19305,-0.35391 -0.52551,-0.54696 -0.32174,-0.19304 -0.74001,-0.19304 -0.41826,0 -0.75073,0.19304 -0.33246,0.19305 -0.52551,0.54696 -0.19304,0.35392 -0.19304,0.85798 0,0.49333 0.19304,0.85797 0.19305,0.35392 0.52551,0.54696 0.33247,0.19305 0.75073,0.19305 z m 7.14266,1.37276 q -0.98667,0 -1.7374,-0.38609 -0.74,-0.38609 -1.14754,-1.05102 -0.40754,-0.67566 -0.40754,-1.53363 0,-0.8687 0.39681,-1.53364 0.40754,-0.67565 1.10465,-1.05102 0.6971,-0.38609 1.57653,-0.38609 0.84725,0 1.52291,0.36464 0.68638,0.35392 1.08319,1.02958 0.39681,0.66493 0.39681,1.59798 0,0.0965 -0.0107,0.22521 -0.0107,0.11798 -0.0215,0.22522 h -4.68669 v -0.97594 h 3.80726 l -0.64348,0.28956 q 0,-0.45044 -0.18232,-0.7829 -0.18232,-0.33247 -0.50406,-0.51479 -0.32174,-0.19304 -0.75073,-0.19304 -0.42899,0 -0.76145,0.19304 -0.32174,0.18232 -0.50406,0.52551 -0.18232,0.33247 -0.18232,0.79363 v 0.25739 q 0,0.47189 0.20377,0.83653 0.21449,0.35392 0.58986,0.54696 0.38609,0.18232 0.90087,0.18232 0.46116,0 0.80435,-0.13942 0.35392,-0.13942 0.64349,-0.41826 l 0.89015,0.96522 q -0.39682,0.45044 -0.9974,0.6971 -0.60058,0.23595 -1.38349,0.23595 z m 7.41077,-5.94149 q 0.68638,0 1.22262,0.27885 0.54696,0.26811 0.85797,0.83652 0.31102,0.55769 0.31102,1.43711 v 3.30321 h -1.67305 v -3.04581 q 0,-0.69711 -0.31102,-1.02958 -0.30029,-0.33246 -0.85797,-0.33246 -0.39682,0 -0.71856,0.17159 -0.31102,0.16087 -0.49334,0.50407 -0.17159,0.34319 -0.17159,0.87942 v 2.85277 h -1.67305 v -5.76989 h 1.59798 v 1.59798 l -0.3003,-0.48261 q 0.31102,-0.57913 0.89015,-0.89015 0.57914,-0.31102 1.31914,-0.31102 z m 6.66004,8.02208 q -0.81508,0 -1.57653,-0.20377 -0.75073,-0.19304 -1.25479,-0.58986 l 0.66493,-1.20116 q 0.36464,0.30029 0.92233,0.47188 0.56841,0.18232 1.11536,0.18232 0.89016,0 1.28697,-0.39681 0.40754,-0.39682 0.40754,-1.17972 v -0.8687 l 0.10724,-1.44783 -0.0214,-1.45856 v -1.24407 h 1.58725 v 4.80467 q 0,1.6087 -0.83653,2.37016 -0.83652,0.76145 -2.40233,0.76145 z m -0.25739,-2.44523 q -0.80435,0 -1.45856,-0.34319 -0.64348,-0.35392 -1.0403,-0.97595 -0.38609,-0.63276 -0.38609,-1.46928 0,-0.84725 0.38609,-1.46929 0.39682,-0.63275 1.0403,-0.97595 0.65421,-0.34319 1.45856,-0.34319 0.72928,0 1.28696,0.3003 0.55769,0.28956 0.8687,0.9116 0.31102,0.6113 0.31102,1.57653 0,0.95449 -0.31102,1.57653 -0.31101,0.61131 -0.8687,0.9116 -0.55768,0.30029 -1.28696,0.30029 z m 0.33246,-1.37276 q 0.43972,0 0.78291,-0.1716 0.34319,-0.18232 0.53623,-0.50406 0.19305,-0.32174 0.19305,-0.74 0,-0.42899 -0.19305,-0.74001 -0.19304,-0.32174 -0.53623,-0.49333 -0.34319,-0.18232 -0.78291,-0.18232 -0.43971,0 -0.7829,0.18232 -0.34319,0.17159 -0.54696,0.49333 -0.19304,0.31102 -0.19304,0.74001 0,0.41826 0.19304,0.74 0.20377,0.32174 0.54696,0.50406 0.34319,0.1716 0.7829,0.1716 z m 8.25803,1.6516 v -1.12609 l -0.10725,-0.24667 v -2.01624 q 0,-0.53624 -0.33246,-0.83653 -0.32174,-0.30029 -0.9974,-0.30029 -0.46116,0 -0.9116,0.15014 -0.43971,0.13942 -0.75073,0.38609 l -0.60058,-1.16899 q 0.47189,-0.33247 1.13682,-0.51479 0.66493,-0.18232 1.35131,-0.18232 1.31914,0 2.04842,0.62204 0.72928,0.62203 0.72928,1.94117 v 3.29248 z m -1.75885,0.0858 q -0.67566,0 -1.15827,-0.22522 -0.48261,-0.23594 -0.74,-0.63276 -0.25739,-0.39681 -0.25739,-0.89015 0,-0.51478 0.24666,-0.90087 0.2574,-0.38609 0.80436,-0.60059 0.54696,-0.22521 1.42638,-0.22521 h 1.53363 v 0.97594 h -1.35131 q -0.58986,0 -0.81508,0.19305 -0.21449,0.19304 -0.21449,0.48261 0,0.32174 0.24667,0.51478 0.25739,0.18232 0.6971,0.18232 0.41827,0 0.75073,-0.19304 0.33247,-0.20377 0.48261,-0.58986 l 0.2574,0.77218 q -0.18232,0.55768 -0.66493,0.84725 -0.48262,0.28957 -1.24407,0.28957 z m 7.35715,0 q -0.81508,0 -1.46929,-0.36464 -0.6542,-0.37537 -1.04029,-1.0403 -0.37537,-0.66493 -0.37537,-1.5658 0,-0.9116 0.37537,-1.57653 0.38609,-0.66494 1.04029,-1.02958 0.65421,-0.36464 1.46929,-0.36464 0.72928,0 1.27624,0.32175 0.54696,0.32174 0.84725,0.97594 0.30029,0.65421 0.30029,1.67306 0,1.00812 -0.28957,1.67305 -0.28956,0.65421 -0.83652,0.97595 -0.53624,0.32174 -1.29769,0.32174 z m 0.28956,-1.37276 q 0.40754,0 0.74001,-0.19305 0.33246,-0.19304 0.52551,-0.54696 0.20377,-0.36464 0.20377,-0.85797 0,-0.50406 -0.20377,-0.85798 -0.19305,-0.35391 -0.52551,-0.54696 -0.33247,-0.19304 -0.74001,-0.19304 -0.41826,0 -0.75072,0.19304 -0.33247,0.19305 -0.53624,0.54696 -0.19304,0.35392 -0.19304,0.85798 0,0.49333 0.19304,0.85797 0.20377,0.35392 0.53624,0.54696 0.33246,0.19305 0.75072,0.19305 z m 1.51219,1.28696 v -1.17972 l 0.0322,-1.71595 -0.10725,-1.70523 v -3.35683 h 1.67306 v 7.95773 z m 5.57683,0.0858 q -0.71855,0 -1.28696,-0.27884 -0.55768,-0.27885 -0.8687,-0.84726 -0.31102,-0.57913 -0.31102,-1.46928 v -3.26031 h 1.67306 v 3.01364 q 0,0.71856 0.30029,1.06175 0.31101,0.33246 0.8687,0.33246 0.38609,0 0.68638,-0.16087 0.30029,-0.17159 0.47189,-0.51478 0.17159,-0.35392 0.17159,-0.87943 v -2.85277 h 1.67305 v 5.76989 h -1.58725 v -1.58725 l 0.28957,0.46116 q -0.28957,0.60058 -0.85798,0.9116 -0.55768,0.30029 -1.22262,0.30029 z m 8.47252,-0.0858 v -1.12609 l -0.10724,-0.24667 v -2.01624 q 0,-0.53624 -0.33247,-0.83653 -0.32174,-0.30029 -0.9974,-0.30029 -0.46116,0 -0.9116,0.15014 -0.43971,0.13942 -0.75073,0.38609 l -0.60058,-1.16899 q 0.47189,-0.33247 1.13682,-0.51479 0.66493,-0.18232 1.35131,-0.18232 1.31914,0 2.04842,0.62204 0.72928,0.62203 0.72928,1.94117 v 3.29248 z m -1.75885,0.0858 q -0.67565,0 -1.15827,-0.22522 -0.48261,-0.23594 -0.74,-0.63276 -0.25739,-0.39681 -0.25739,-0.89015 0,-0.51478 0.24667,-0.90087 0.25739,-0.38609 0.80435,-0.60059 0.54696,-0.22521 1.42638,-0.22521 h 1.53363 v 0.97594 h -1.35131 q -0.58986,0 -0.81507,0.19305 -0.2145,0.19304 -0.2145,0.48261 0,0.32174 0.24667,0.51478 0.25739,0.18232 0.69711,0.18232 0.41826,0 0.75072,-0.19304 0.33247,-0.20377 0.48262,-0.58986 l 0.25739,0.77218 q -0.18232,0.55768 -0.66493,0.84725 -0.48261,0.28957 -1.24407,0.28957 z m 8.34382,-5.94149 q 0.68638,0 1.22262,0.27885 0.54696,0.26811 0.85797,0.83652 0.31102,0.55769 0.31102,1.43711 v 3.30321 h -1.67305 v -3.04581 q 0,-0.69711 -0.31102,-1.02958 -0.30029,-0.33246 -0.85798,-0.33246 -0.39681,0 -0.71855,0.17159 -0.31102,0.16087 -0.49334,0.50407 -0.17159,0.34319 -0.17159,0.87942 v 2.85277 h -1.67306 v -5.76989 h 1.59798 v 1.59798 l -0.30029,-0.48261 q 0.31102,-0.57913 0.89015,-0.89015 0.57914,-0.31102 1.31914,-0.31102 z m 9.72731,5.94149 q -0.93304,0 -1.66232,-0.37537 -0.72928,-0.38609 -1.14755,-1.06174 -0.40754,-0.67566 -0.40754,-1.53363 0,-0.8687 0.40754,-1.53364 0.41827,-0.67565 1.14755,-1.05102 0.72928,-0.38609 1.66232,-0.38609 0.9116,0 1.58726,0.38609 0.67566,0.37537 0.9974,1.0832 l -1.29769,0.6971 q -0.22522,-0.40753 -0.56841,-0.60058 -0.33247,-0.19304 -0.72928,-0.19304 -0.42899,0 -0.77218,0.19304 -0.34319,0.19305 -0.54696,0.54696 -0.19304,0.35392 -0.19304,0.85798 0,0.50406 0.19304,0.85797 0.20377,0.35392 0.54696,0.54696 0.34319,0.19305 0.77218,0.19305 0.39681,0 0.72928,-0.18232 0.34319,-0.19305 0.56841,-0.61131 l 1.29769,0.70783 q -0.32174,0.6971 -0.9974,1.08319 -0.67566,0.37537 -1.58726,0.37537 z m 6.3383,0 q -0.98667,0 -1.7374,-0.38609 -0.74001,-0.38609 -1.14754,-1.05102 -0.40754,-0.67566 -0.40754,-1.53363 0,-0.8687 0.39681,-1.53364 0.40754,-0.67565 1.10464,-1.05102 0.69711,-0.38609 1.57654,-0.38609 0.84725,0 1.5229,0.36464 0.68638,0.35392 1.0832,1.02958 0.39681,0.66493 0.39681,1.59798 0,0.0965 -0.0107,0.22521 -0.0107,0.11798 -0.0215,0.22522 h -4.6867 v -0.97594 h 3.80727 l -0.64348,0.28956 q 0,-0.45044 -0.18232,-0.7829 -0.18232,-0.33247 -0.50406,-0.51479 -0.32174,-0.19304 -0.75073,-0.19304 -0.42899,0 -0.76145,0.19304 -0.32174,0.18232 -0.50406,0.52551 -0.18232,0.33247 -0.18232,0.79363 v 0.25739 q 0,0.47189 0.20376,0.83653 0.2145,0.35392 0.58986,0.54696 0.38609,0.18232 0.90088,0.18232 0.46116,0 0.80435,-0.13942 0.35392,-0.13942 0.64348,-0.41826 l 0.89015,0.96522 q -0.39681,0.45044 -0.99739,0.6971 -0.60059,0.23595 -1.38349,0.23595 z m 7.31425,0 q -0.72928,0 -1.27624,-0.32174 -0.54696,-0.32174 -0.85798,-0.97595 -0.30029,-0.66493 -0.30029,-1.67305 0,-1.01885 0.28957,-1.67306 0.28956,-0.6542 0.83652,-0.97594 0.54696,-0.32175 1.30842,-0.32175 0.81507,0 1.45856,0.37537 0.6542,0.36464 1.02957,1.02957 0.38609,0.66493 0.38609,1.56581 0,0.9116 -0.38609,1.57653 -0.37537,0.66493 -1.02957,1.02957 -0.64349,0.36464 -1.45856,0.36464 z m -3.41046,1.99479 v -7.85048 h 1.59798 v 1.17972 l -0.0322,1.71595 0.10725,1.70523 v 3.24958 z m 3.12089,-3.36755 q 0.41826,0 0.74,-0.19305 0.33247,-0.19304 0.52552,-0.54696 0.20376,-0.36464 0.20376,-0.85797 0,-0.50406 -0.20376,-0.85798 -0.19305,-0.35391 -0.52552,-0.54696 -0.32174,-0.19304 -0.74,-0.19304 -0.41826,0 -0.75073,0.19304 -0.33246,0.19305 -0.52551,0.54696 -0.19304,0.35392 -0.19304,0.85798 0,0.49333 0.19304,0.85797 0.19305,0.35392 0.52551,0.54696 0.33247,0.19305 0.75073,0.19305 z m 7.72178,1.28696 v -1.12609 l -0.10724,-0.24667 v -2.01624 q 0,-0.53624 -0.33247,-0.83653 -0.32174,-0.30029 -0.9974,-0.30029 -0.46116,0 -0.9116,0.15014 -0.43971,0.13942 -0.75072,0.38609 l -0.60059,-1.16899 q 0.47189,-0.33247 1.13682,-0.51479 0.66493,-0.18232 1.35131,-0.18232 1.31914,0 2.04842,0.62204 0.72928,0.62203 0.72928,1.94117 v 3.29248 z m -1.75885,0.0858 q -0.67565,0 -1.15826,-0.22522 -0.48262,-0.23594 -0.74001,-0.63276 -0.25739,-0.39681 -0.25739,-0.89015 0,-0.51478 0.24667,-0.90087 0.25739,-0.38609 0.80435,-0.60059 0.54696,-0.22521 1.42638,-0.22521 h 1.53364 v 0.97594 h -1.35132 q -0.58985,0 -0.81507,0.19305 -0.2145,0.19304 -0.2145,0.48261 0,0.32174 0.24667,0.51478 0.25739,0.18232 0.69711,0.18232 0.41826,0 0.75073,-0.19304 0.33246,-0.20377 0.48261,-0.58986 l 0.25739,0.77218 q -0.18232,0.55768 -0.66493,0.84725 -0.48261,0.28957 -1.24407,0.28957 z m 7.19629,0 q -1.01885,0 -1.58726,-0.51479 -0.56841,-0.52551 -0.56841,-1.55508 v -5.06206 h 1.67305 v 5.04061 q 0,0.36464 0.19305,0.56841 0.19304,0.19305 0.52551,0.19305 0.39681,0 0.67566,-0.2145 l 0.45043,1.17972 q -0.25739,0.18232 -0.62203,0.27884 -0.35391,0.0858 -0.74,0.0858 z m -3.04582,-4.44003 v -1.28696 h 4.00031 v 1.28696 z m 10.86412,4.44003 q -0.81508,0 -1.46928,-0.36464 -0.65421,-0.37537 -1.0403,-1.0403 -0.37536,-0.66493 -0.37536,-1.5658 0,-0.9116 0.37536,-1.57653 0.38609,-0.66494 1.0403,-1.02958 0.6542,-0.36464 1.46928,-0.36464 0.72928,0 1.27624,0.32175 0.54696,0.32174 0.84725,0.97594 0.30029,0.65421 0.30029,1.67306 0,1.00812 -0.28956,1.67305 -0.28957,0.65421 -0.83653,0.97595 -0.53624,0.32174 -1.29769,0.32174 z m 0.28957,-1.37276 q 0.40754,0 0.74,-0.19305 0.33247,-0.19304 0.52551,-0.54696 0.20377,-0.36464 0.20377,-0.85797 0,-0.50406 -0.20377,-0.85798 -0.19304,-0.35391 -0.52551,-0.54696 -0.33246,-0.19304 -0.74,-0.19304 -0.41827,0 -0.75073,0.19304 -0.33247,0.19305 -0.53624,0.54696 -0.19304,0.35392 -0.19304,0.85798 0,0.49333 0.19304,0.85797 0.20377,0.35392 0.53624,0.54696 0.33246,0.19305 0.75073,0.19305 z m 1.51218,1.28696 v -1.17972 l 0.0322,-1.71595 -0.10724,-1.70523 v -3.35683 h 1.67305 v 7.95773 z m 6.68149,0 v -1.12609 l -0.10725,-0.24667 v -2.01624 q 0,-0.53624 -0.33246,-0.83653 -0.32174,-0.30029 -0.9974,-0.30029 -0.46116,0 -0.9116,0.15014 -0.43971,0.13942 -0.75073,0.38609 l -0.60058,-1.16899 q 0.47188,-0.33247 1.13682,-0.51479 0.66493,-0.18232 1.35131,-0.18232 1.31914,0 2.04842,0.62204 0.72928,0.62203 0.72928,1.94117 v 3.29248 z m -1.75885,0.0858 q -0.67566,0 -1.15827,-0.22522 -0.48261,-0.23594 -0.74,-0.63276 -0.2574,-0.39681 -0.2574,-0.89015 0,-0.51478 0.24667,-0.90087 0.25739,-0.38609 0.80435,-0.60059 0.54696,-0.22521 1.42639,-0.22521 h 1.53363 v 0.97594 h -1.35131 q -0.58986,0 -0.81508,0.19305 -0.21449,0.19304 -0.21449,0.48261 0,0.32174 0.24667,0.51478 0.25739,0.18232 0.6971,0.18232 0.41827,0 0.75073,-0.19304 0.33247,-0.20377 0.48261,-0.58986 l 0.2574,0.77218 q -0.18232,0.55768 -0.66494,0.84725 -0.48261,0.28957 -1.24406,0.28957 z m 8.34382,-5.94149 q 0.68638,0 1.22261,0.27885 0.54696,0.26811 0.85798,0.83652 0.31102,0.55769 0.31102,1.43711 v 3.30321 h -1.67306 v -3.04581 q 0,-0.69711 -0.31101,-1.02958 -0.3003,-0.33246 -0.85798,-0.33246 -0.39681,0 -0.71856,0.17159 -0.31101,0.16087 -0.49333,0.50407 -0.1716,0.34319 -0.1716,0.87942 v 2.85277 h -1.67305 v -5.76989 h 1.59798 v 1.59798 l -0.30029,-0.48261 q 0.31102,-0.57913 0.89015,-0.89015 0.57913,-0.31102 1.31914,-0.31102 z m 9.29832,5.94149 q -1.01885,0 -1.58726,-0.51479 -0.56841,-0.52551 -0.56841,-1.55508 v -5.06206 h 1.67305 v 5.04061 q 0,0.36464 0.19305,0.56841 0.19304,0.19305 0.52551,0.19305 0.39681,0 0.67566,-0.2145 l 0.45043,1.17972 q -0.25739,0.18232 -0.62203,0.27884 -0.35391,0.0858 -0.74,0.0858 z m -3.04582,-4.44003 v -1.28696 h 4.00031 v 1.28696 z m 8.0328,4.44003 q -0.98667,0 -1.7374,-0.38609 -0.74,-0.38609 -1.14754,-1.05102 -0.40754,-0.67566 -0.40754,-1.53363 0,-0.8687 0.39681,-1.53364 0.40754,-0.67565 1.10465,-1.05102 0.6971,-0.38609 1.57653,-0.38609 0.84725,0 1.52291,0.36464 0.68638,0.35392 1.08319,1.02958 0.39681,0.66493 0.39681,1.59798 0,0.0965 -0.0107,0.22521 -0.0107,0.11798 -0.0214,0.22522 h -4.68669 v -0.97594 h 3.80726 l -0.64348,0.28956 q 0,-0.45044 -0.18232,-0.7829 -0.18232,-0.33247 -0.50406,-0.51479 -0.32174,-0.19304 -0.75073,-0.19304 -0.42898,0 -0.76145,0.19304 -0.32174,0.18232 -0.50406,0.52551 -0.18232,0.33247 -0.18232,0.79363 v 0.25739 q 0,0.47189 0.20377,0.83653 0.21449,0.35392 0.58986,0.54696 0.38609,0.18232 0.90087,0.18232 0.46116,0 0.80435,-0.13942 0.35392,-0.13942 0.64349,-0.41826 l 0.89015,0.96522 q -0.39682,0.45044 -0.9974,0.6971 -0.60058,0.23595 -1.38349,0.23595 z m 7.31425,0 q -0.72928,0 -1.27624,-0.32174 -0.54696,-0.32174 -0.85798,-0.97595 -0.30029,-0.66493 -0.30029,-1.67305 0,-1.01885 0.28957,-1.67306 0.28957,-0.6542 0.83653,-0.97594 0.54696,-0.32175 1.30841,-0.32175 0.81508,0 1.45856,0.37537 0.65421,0.36464 1.02957,1.02957 0.38609,0.66493 0.38609,1.56581 0,0.9116 -0.38609,1.57653 -0.37536,0.66493 -1.02957,1.02957 -0.64348,0.36464 -1.45856,0.36464 z m -3.41045,1.99479 v -7.85048 h 1.59798 v 1.17972 l -0.0322,1.71595 0.10725,1.70523 v 3.24958 z m 3.12088,-3.36755 q 0.41827,0 0.74001,-0.19305 0.33246,-0.19304 0.52551,-0.54696 0.20377,-0.36464 0.20377,-0.85797 0,-0.50406 -0.20377,-0.85798 -0.19305,-0.35391 -0.52551,-0.54696 -0.32174,-0.19304 -0.74001,-0.19304 -0.41826,0 -0.75073,0.19304 -0.33246,0.19305 -0.52551,0.54696 -0.19304,0.35392 -0.19304,0.85798 0,0.49333 0.19304,0.85797 0.19305,0.35392 0.52551,0.54696 0.33247,0.19305 0.75073,0.19305 z m 7.72178,1.28696 v -1.12609 l -0.10725,-0.24667 v -2.01624 q 0,-0.53624 -0.33246,-0.83653 -0.32174,-0.30029 -0.9974,-0.30029 -0.46116,0 -0.9116,0.15014 -0.43971,0.13942 -0.75073,0.38609 l -0.60058,-1.16899 q 0.47188,-0.33247 1.13682,-0.51479 0.66493,-0.18232 1.35131,-0.18232 1.31914,0 2.04842,0.62204 0.72928,0.62203 0.72928,1.94117 v 3.29248 z m -1.75885,0.0858 q -0.67566,0 -1.15827,-0.22522 -0.48261,-0.23594 -0.74,-0.63276 -0.2574,-0.39681 -0.2574,-0.89015 0,-0.51478 0.24667,-0.90087 0.25739,-0.38609 0.80435,-0.60059 0.54696,-0.22521 1.42639,-0.22521 h 1.53363 v 0.97594 h -1.35131 q -0.58986,0 -0.81508,0.19305 -0.21449,0.19304 -0.21449,0.48261 0,0.32174 0.24667,0.51478 0.25739,0.18232 0.6971,0.18232 0.41826,0 0.75073,-0.19304 0.33247,-0.20377 0.48261,-0.58986 l 0.25739,0.77218 q -0.18231,0.55768 -0.66493,0.84725 -0.48261,0.28957 -1.24406,0.28957 z m 7.19629,0 q -1.01885,0 -1.58726,-0.51479 -0.56841,-0.52551 -0.56841,-1.55508 v -5.06206 h 1.67306 v 5.04061 q 0,0.36464 0.19304,0.56841 0.19305,0.19305 0.52551,0.19305 0.39682,0 0.67566,-0.2145 l 0.45044,1.17972 q -0.2574,0.18232 -0.62204,0.27884 -0.35391,0.0858 -0.74,0.0858 z m -3.04582,-4.44003 v -1.28696 h 4.00032 v 1.28696 z"
       id="text944"
       style="font-weight:700;font-size:10.7247px;font-family:Montserrat;fill:#ffffff;stroke-width:0.506681"
       aria-label="Solusi pengaduan cepat dan tepat" /><circle
       cx="354.60587"
       cy="43.930161"
       r="10.825396"
       id="circle3956"
       stroke-width="0.148349"
       fill="#3481ac" /><circle
       cx="314.04483"
       cy="152.19844"
       r="19.644796"
       id="circle7057"
       stroke-width="0.269207"
       fill="#3481ac" /></g></svg>
