<?xml version="1.0" standalone="no"?>
<svg version="1.1" id="color_x5F_1" xmlns="http://www.w3.org/2000/svg" xmlns:xlink="http://www.w3.org/1999/xlink" x="0px" y="0px" width="600px" height="600px" viewBox="0 0 600 600" enable-background="new 0 0 600 600" xml:space="preserve">
<path id="color_x5F_11" fill="#69A5C0" d="M529.951,339.862v7.257c0,2.923-1.411,5.846-4.334,7.459L256.509,509.895
	c-5.342,3.124-11.893,3.124-17.134,0L61.079,406.988c-3.024-1.814-4.435-4.938-4.334-7.963v-6.652c0,0.102,0,0.202,0,0.303
	c0,0.102,0,0.303,0.101,0.403c0,0.202,0.101,0.403,0.101,0.504c0,0.202,0.101,0.302,0.101,0.504c0,0.101,0.101,0.302,0.101,0.403
	c0.101,0.201,0.101,0.403,0.202,0.604c0.101,0.101,0.101,0.202,0.202,0.403s0.202,0.403,0.302,0.604
	c0.101,0.101,0.101,0.202,0.202,0.303c0.101,0.201,0.302,0.403,0.403,0.604c0.101,0.101,0.101,0.202,0.202,0.202
	c0.201,0.201,0.302,0.402,0.504,0.604c0.101,0.101,0.101,0.101,0.202,0.201c0.201,0.202,0.403,0.403,0.604,0.504
	c0.302,0.202,0.605,0.403,0.907,0.605l178.296,102.905c5.342,3.125,11.792,3.125,17.134,0l269.108-155.316
	c1.411-0.806,2.52-1.915,3.225-3.226c0,0,0,0,0-0.101c0.202-0.302,0.303-0.604,0.403-0.907c0-0.101,0-0.101,0.101-0.201
	c0.102-0.303,0.202-0.504,0.303-0.807c0-0.101,0-0.201,0.101-0.303c0.101-0.201,0.101-0.504,0.101-0.705c0-0.101,0-0.303,0-0.402
	C529.851,340.064,529.851,339.963,529.951,339.862z M324.744,121.451l-0.102-0.705l61.482,35.478l0.201,0.101l0.202,0.101
	l0.201,0.101l0.201,0.201l0.202,0.101l0.201,0.202l0.202,0.201l0.201,0.202l0.202,0.202l0.201,0.202l0.201,0.202l0.102,0.202
	l0.201,0.202l0.101,0.201l0.101,0.202l0.102,0.202l0.101,0.202l0.101,0.202l0.101,0.201l0.102,0.202l0.101,0.202l0.101,0.302
	l0.101,0.202l0.101,0.302l0.102,0.303v0.202l0.101,0.302v0.302v0.302v0.302v0.303v0.302v90.509v49.891v6.854v0.303v0.303
	l-0.101,0.302l-0.102,0.302l-0.101,0.202l-0.101,0.302l-0.101,0.202l-0.101,0.202l-0.102,0.201l-0.101,0.201l-0.201,0.201
	l0.101,0.303l-0.202,0.202l-0.201,0.101l-7.257,4.133l0,0l0.201-0.102l0.202-0.201l0.201-0.201l0.202-0.202l0.101-0.202l0.101-0.201
	l0.101-0.201l0.101-0.201c0,0,0-0.102,0.102-0.102l0.101-0.201l0.101-0.202v-0.101l0.101-0.201l0.101-0.303v-0.303v-0.302v-30.842
	c1.915-0.504,3.629-1.109,4.032-1.411c1.008-0.806,2.116-1.209,2.822-2.923c0.705-1.713,0.101-6.854,0-8.567
	c-0.102-1.713-1.311-2.923-2.117-0.907c-0.705,1.613-3.628,1.915-4.737,1.915V167.411v-0.302v-0.302v-0.302v-0.302L383,165.899
	v-0.302l-0.101-0.302l-0.101-0.202l-0.101-0.302l-0.102-0.202l-0.101-0.302v-0.101c-0.101-0.202-0.101-0.302-0.201-0.504
	l-0.102-0.101l-0.101-0.202l-0.101-0.101c0-0.101-0.101-0.202-0.101-0.202l-0.101-0.101l-0.102-0.202l-0.101-0.202l-0.101-0.101
	c-0.101-0.101-0.101-0.202-0.201-0.202l-0.102-0.101l-0.201-0.202l-0.101-0.101c-0.101-0.101-0.202-0.202-0.303-0.303l-0.101-0.101
	l-0.202-0.202l-0.201-0.202l0,0c-0.101-0.101-0.201-0.202-0.303-0.202l-0.101-0.101l-0.201-0.101l0,0
	c-0.101-0.101-0.303-0.201-0.403-0.302l-53.52-30.942v-0.302V127.6l-0.101-1.512l-0.101-1.512l-0.202-1.512L324.744,121.451z
	 M384.915,184.042L384.915,184.042l0.101,0.101v0.101v0.101l0.102,0.101l0.101,0.101l0.101,0.101l0.807,0.504l-0.102-0.101
	l-0.101-0.101l-0.101-0.101v-0.101v-0.101v-0.101v-0.101l0,0v-5.947v-0.101v-0.101v-0.101v-0.101v-0.101l0.101-0.101l0.101-0.101
	h0.102l1.813-1.008l0.102-0.101h0.101h0.101h0.101h0.101h0.102l0,0l0.101,0.101l-0.101-0.101l0,0l-0.706-0.403h-0.101h-0.101h-0.101
	h-0.102h-0.101h-0.101h-0.101h-0.102l-1.813,1.109h-0.101l-0.102,0.101l-0.101,0.101v0.101v0.101v0.101v0.101v0.101V184.042
	L384.915,184.042z M384.915,193.415L384.915,193.415v0.101l0.101,0.101v0.101l0.102,0.101l0.101,0.101l0.101,0.101l0.807,0.504
	l-0.102-0.101l-0.101-0.101h-0.101v-0.101v-0.101v-0.101v-0.101v-0.101v-5.947v-0.101v-0.101v-0.101v-0.101v-0.101l0.101-0.101
	l0.101-0.101h0.102l1.813-1.008l0.102-0.101h0.101h0.101h0.101h0.101h0.102l0,0l0.101,0.101l-0.101-0.101l0,0l-0.706-0.403h-0.101
	h-0.101h-0.101h-0.102h-0.101h-0.101h-0.101h-0.102l-1.813,1.108h-0.101l-0.102,0.101l-0.101,0.101v0.101v0.101v0.101v0.101v0.101
	V193.415L384.915,193.415z M369.091,152.394l8.063,4.637c0.504,0.302,1.108,0.302,1.714,0l1.209-0.706
	c0.604-0.302,0.604-1.109,0-1.411l-8.063-4.636c-0.504-0.303-1.108-0.303-1.713,0l-1.311,0.706
	C368.486,151.285,368.486,152.091,369.091,152.394z"></path>
<path id="color_x5F_10" fill="#207A70" d="M153.603,306.904c-8.164,4.736-21.367,4.736-29.43,0.101
	c-7.761-4.536-8.063-11.691-0.706-16.429c0.302-0.202,0.604-0.403,0.907-0.504c0.302-0.202,0.604-0.403,1.008-0.504
	c0.504-0.302,1.008-0.504,1.612-0.706c-0.101-1.512-0.201-3.125-0.201-4.938c-0.303-7.962-0.403-18.344,0.403-28.725
	c0.101-1.613,0.302-3.326,0.403-4.939l-16.53-10.381l1.714-3.628l15.622,7.458c0.302-2.217,0.706-4.334,1.109-6.35
	c3.125,0.806,6.45,1.209,9.877,1.209c0.806,0,1.713,0,2.52-0.101c0,4.233,0.202,8.769,0.504,13.506l19.15-7.357l1.311,2.52
	l-19.855,11.49l-0.101,0.101c0.706,7.66,1.915,15.824,3.729,24.089c0.403,1.613,0.706,3.225,1.108,4.838
	c2.217,0.604,4.233,1.411,6.047,2.419C161.868,294.608,161.767,302.268,153.603,306.904z"></path>
<path id="color_x5F_9" fill="#F3B922" d="M250.664,299.345c-2.721-0.806-5.644,1.612-10.18,0.807
	c-4.536-0.706-9.071-7.66-9.071-7.66s3.729,3.225,11.188,0.907C250.059,291.08,250.664,299.345,250.664,299.345z M162.977,325.449
	c-1.31,0.102-2.721,0.705-3.729,2.117c-0.504,0.705-0.907,1.612-1.109,2.822c-1.512,7.76-6.148,9.474-6.148,9.474
	s8.265-0.706,11.087-4.334c2.822-3.628,2.116-7.357,4.132-9.374C167.21,326.256,165.194,325.248,162.977,325.449z M262.456,201.68
	c-7.458,2.318-11.188-0.907-11.188-0.907s4.536,6.954,9.071,7.66s7.559-1.612,10.281-0.806
	C270.62,207.525,270.015,199.261,262.456,201.68z M439.946,330.488c-1.512,7.762-6.148,9.475-6.148,9.475s8.265-0.705,11.087-4.334
	s2.218-7.357,4.233-9.373C449.018,326.256,441.458,322.729,439.946,330.488z M139.291,155.921
	c-22.778,0-41.324,18.545-41.324,41.223c0,7.055,1.814,13.707,4.939,19.553c5.442,10.079,15.018,17.739,26.507,20.562
	c3.125,0.806,6.451,1.209,9.877,1.209c0.807,0,1.713,0,2.52-0.101c11.288-0.706,21.468-5.947,28.523-14.01
	c6.35-7.257,10.28-16.731,10.28-27.112C180.615,174.467,162.069,155.921,139.291,155.921z"></path>
<path id="color_x5F_8" fill="#09b4d7" d="M220.427,381.388c-0.907,6.147-0.403,11.188,0.604,14.211
	c0.605,1.814,0.101,3.83-0.302,5.141l0,0h-0.101c-0.101,0-0.303,0-0.403-0.101h-0.101c-0.202-0.102-0.403-0.102-0.605-0.202
	c-0.101,0-0.202-0.101-0.202-0.201l0,0c-0.101-0.101-0.202-0.202-0.302-0.202c-0.101-0.101-0.202-0.201-0.302-0.201
	c-0.101-0.101-0.202-0.201-0.303-0.303l-0.101-0.101c-0.101-0.101-0.101-0.101-0.202-0.201c-0.101-0.101-0.202-0.202-0.202-0.403
	c0-0.101-0.101-0.101-0.101-0.202c-0.101-0.101-0.101-0.201-0.202-0.402c-0.101-0.303-0.302-0.504-0.403-0.807
	c0-0.101-0.101-0.201-0.101-0.303c-0.101-0.302-0.202-0.504-0.302-0.806c0-0.102-0.101-0.202-0.101-0.403
	c-0.101-0.403-0.201-0.807-0.302-1.311c-1.209-5.745-0.403-18.747,0.605-22.173c0.101-0.303,0.201-0.505,0.201-0.706
	c0-0.101,0.101-0.202,0.101-0.303c0.101-0.201,0.101-0.403,0.202-0.604c0-0.101,0-0.101,0.101-0.101
	c0.101-0.101,0.101-0.303,0.202-0.403c0,0,0-0.102,0.101-0.102c0.101-0.1,0.202-0.302,0.202-0.402c0,0,0,0,0.101-0.102
	c0.101-0.1,0.101-0.201,0.201-0.201c0,0,0,0,0.101-0.101c0.101-0.101,0.202-0.101,0.202-0.202c0,0,0.101,0,0.101-0.1h0.101
	c0.201,0,0.302-0.102,0.604-0.102l0,0c0,0,0.101,0,0.101,0.102C222.946,370.905,221.233,375.34,220.427,381.388z M350.042,291.584
	l-4.435-2.52c-0.202,0-0.504-0.101-0.706-0.101c-3.931-0.604-9.574-3.225-14.412-5.946v1.008c0,0.806,0.402,1.411,1.108,1.814
	l17.94,10.381c0.705,0.403,1.612-0.101,1.612-0.907v-1.814C351.05,292.693,350.646,291.987,350.042,291.584z M170.334,224.357
	c-7.056,8.063-17.134,13.405-28.523,14.01c0,4.233,0.201,8.769,0.504,13.506l19.15-7.357l1.31,2.52l-19.855,11.49
	c4.132,6.148,11.188,10.281,19.15,10.281c12.7,0,22.98-10.281,22.98-22.98C185.251,236.049,179.002,227.583,170.334,224.357z
	 M103.007,216.697c-8.365,3.427-14.211,11.692-14.211,21.267c0,12.7,10.281,23.081,22.98,23.081c5.846,0,11.188-2.217,15.219-5.846
	c0.101-1.613,0.303-3.326,0.403-4.939l-16.529-10.381l1.713-3.628l15.622,7.458c0.303-2.217,0.706-4.334,1.109-6.35
	C118.024,234.437,108.45,226.776,103.007,216.697z M520.175,215.992v26.003v31.749c0,2.621-1.612,3.83-3.629,2.722l-96.455-55.636
	c-1.008-0.605-1.814-2.117-1.814-3.427V159.55c0-2.621,1.612-3.83,3.629-2.721l19.352,11.188l77.104,44.448
	C519.368,213.069,520.175,214.682,520.175,215.992z M449.925,203.998l-11.591-18.243l-11.591,4.838l4.031,2.318v15.925l15.018,8.668
	v-15.925L449.925,203.998z M499.109,242.399c-12.9-7.458-25.802-14.917-38.703-22.375v6.148
	c13.002,7.559,25.803,14.917,38.703,22.375V242.399z M499.109,231.614c-12.9-7.458-25.802-14.917-38.703-22.375v6.148
	c13.002,7.559,25.803,14.917,38.703,22.375V231.614z M499.109,220.931c-12.9-7.458-25.802-14.917-38.703-22.375v6.148
	c13.002,7.559,25.803,14.917,38.703,22.375V220.931z M378.565,176.382v99.681c-0.807,1.209-1.814,2.419-1.814,2.419
	c-0.101,0-0.101,0.101-0.201,0.101l0,0c0,0,0,0-0.101,0c-0.102,0.101-0.202,0.101-0.403,0.202h-0.101l0,0h-0.102
	c0,0-0.101,0-0.101,0.101l-1.814,0.504l0,0c-1.612,0.302-3.325,0.403-4.938,0.302v-5.04l-23.585-13.606l-7.559-4.435l-23.182-13.405
	c0.504-1.613,1.209-3.125,1.209-3.125s2.117,1.411,3.125,0.605c1.008-0.807,1.612-5.645,1.612-7.761
	c0-2.117-0.705-8.466-0.705-9.475c0-1.008-0.605-2.016-0.605-2.016c1.009-0.706,2.318-2.016,3.629-5.342
	c2.318-5.745-1.612-11.691-1.612-11.691c-1.21,2.923-1.613,4.737-10.583,6.249c-0.807,0.101-1.512,0.202-2.117,0.303v-57.954
	c-1.31,0.302-2.721,0.403-4.232,0.202c-3.226-0.403-6.753-2.016-10.18-5.141c-0.403-0.403-0.806-0.705-1.209-1.108
	s-0.806-0.907-1.209-1.311c-9.777-10.885-14.715-30.035-10.986-43.843c1.915-7.156,5.846-11.49,10.482-12.7
	c0.302-0.101,0.604-0.101,0.907-0.201c0.302-0.101,0.604-0.101,0.907-0.101c0.202,0,0.303,0,0.504,0c0.101,0,0.303,0,0.504,0
	c0.302,0,0.604,0,0.907,0c0.101,0,0.303,0,0.504,0.101c0.101,0,0.303,0,0.504,0.101c0.303,0,0.605,0.101,1.008,0.202
	c0.302,0.101,0.604,0.101,1.008,0.202c0.202,0.101,0.302,0.101,0.504,0.202c0.101,0,0.302,0.101,0.504,0.101
	c0.101,0.101,0.302,0.101,0.504,0.202s0.403,0.101,0.504,0.202c0.403,0.101,0.706,0.302,1.008,0.504
	c0.201,0.101,0.303,0.202,0.504,0.302s0.303,0.202,0.504,0.302c0.201,0.101,0.303,0.202,0.504,0.302
	c0.201,0.101,0.303,0.202,0.504,0.303c0.201,0.101,0.303,0.202,0.504,0.403c0.201,0.101,0.303,0.201,0.504,0.403
	c0.303,0.302,0.705,0.504,1.008,0.806c0.303,0.303,0.705,0.605,1.008,0.907c0.303,0.303,0.604,0.605,1.008,0.907
	s0.706,0.604,1.008,1.008c0.303,0.403,0.605,0.706,0.907,1.109c0.303,0.403,0.604,0.706,0.907,1.108
	c0.303,0.403,0.604,0.807,0.907,1.109c0.302,0.403,0.604,0.806,0.907,1.209c0.302,0.403,0.604,0.907,0.806,1.31
	c0.102,0.202,0.303,0.403,0.403,0.605l0,0c0.101,0.202,0.303,0.403,0.403,0.604c0.303,0.403,0.504,0.907,0.706,1.311
	c0.101,0.202,0.201,0.403,0.402,0.706c0.102,0.201,0.202,0.403,0.403,0.706c0.202,0.504,0.504,0.907,0.706,1.411
	c0.201,0.504,0.402,0.907,0.604,1.411c0.101,0.202,0.201,0.504,0.302,0.706l0,0c0.102,0.202,0.202,0.504,0.303,0.706
	s0.202,0.504,0.303,0.706s0.201,0.504,0.302,0.706c0.102,0.202,0.202,0.504,0.202,0.706c0.101,0.202,0.201,0.504,0.302,0.706
	c0.102,0.302,0.202,0.504,0.202,0.806c0.101,0.202,0.201,0.504,0.201,0.806c0.101,0.504,0.303,1.008,0.403,1.512
	s0.303,1.008,0.403,1.512c0.101,0.302,0.101,0.504,0.201,0.806c0.102,0.303,0.102,0.504,0.202,0.807
	c0.101,0.504,0.201,1.008,0.302,1.612c0.102,0.504,0.202,1.008,0.303,1.512c0.101,0.504,0.101,1.008,0.201,1.613
	c0.102,0.504,0.102,1.008,0.102,1.512c0.101,0.504,0.101,1.008,0.101,1.512s0,1.008,0.101,1.512c0,0.504,0,1.008,0,1.512
	s0,1.008,0,1.512s0,1.008-0.101,1.512c0,0.504-0.101,1.008-0.101,1.411c-0.102,0.504-0.102,1.008-0.202,1.411
	c0,0.202-0.101,0.504-0.101,0.706s-0.101,0.504-0.101,0.706c-0.101,0.504-0.202,0.907-0.303,1.411s-0.201,0.907-0.403,1.311
	c0,0.201-0.101,0.403-0.201,0.604s-0.101,0.403-0.202,0.604c-0.101,0.403-0.302,0.807-0.402,1.21
	c-0.102,0.403-0.303,0.806-0.403,1.108c-0.101,0.403-0.303,0.706-0.504,1.109c-0.101,0.202-0.202,0.302-0.303,0.504
	s-0.201,0.302-0.302,0.504c-0.202,0.302-0.403,0.604-0.605,0.907c-0.101,0.101-0.201,0.302-0.302,0.403
	c-0.102,0.101-0.202,0.303-0.303,0.403s-0.201,0.302-0.303,0.403c-0.101,0.101-0.201,0.302-0.302,0.403
	c-0.202,0.302-0.403,0.504-0.706,0.806c-0.201,0.202-0.402,0.504-0.705,0.706c-0.202,0.201-0.504,0.403-0.706,0.604
	c-0.201,0.202-0.504,0.403-0.705,0.604c-0.201,0.202-0.504,0.403-0.807,0.504c-0.302,0.101-0.504,0.303-0.806,0.403
	c-0.303,0.101-0.504,0.202-0.807,0.403c-0.101,0.101-0.303,0.101-0.403,0.101c-0.101,0.101-0.302,0.101-0.403,0.101l4.939-1.311
	l0.906-0.302l0.807-0.403l0.807-0.403l0.806-0.504l0.706-0.605l0.705-0.604l0.706-0.706l0.604-0.807l0.604-0.806l0.605-0.907
	l0.604-0.907l0.504-1.008l0.504-1.108l0.403-1.109l0.403-1.108l51.2,29.531C377.154,171.342,378.565,173.761,378.565,176.382z
	 M355.183,247.337v-4.132c-8.567-4.938-17.235-9.978-25.903-14.917v4.032C337.947,237.46,346.515,242.298,355.183,247.337z
	 M355.183,240.182v-4.133c-8.567-4.938-17.235-9.978-25.903-14.917v4.031C337.947,230.203,346.515,235.142,355.183,240.182z
	 M355.183,233.025v-4.132c-8.567-4.939-17.235-9.978-25.903-14.917v4.132C337.947,223.047,346.515,227.986,355.183,233.025z
	 M366.672,180.514c0-0.605-0.402-1.311-0.806-1.512l-0.202-0.101l-0.101-0.101l-42.835-24.693c0,0-0.102,0-0.102-0.101l-0.403-0.202
	c-0.906-0.504-1.612,0-1.612,1.209v26.104c0,0.605,0.403,1.311,0.807,1.512l43.541,25.197c0.907,0.504,1.612,0,1.612-1.209v-26.104
	H366.672z M345.405,272.736l-10.985-6.35c5.946,4.938,12.498,10.281,12.498,10.281s3.427,0.504,7.357,1.108L345.405,272.736
	L345.405,272.736z M377.961,285.335L377.961,285.335L377.961,285.335C377.86,285.335,377.86,285.335,377.961,285.335
	L377.961,285.335l-0.101,0.101l0,0l0,0l0,0l0,0l0,0l0,0l-0.102,0.101l0,0l0,0l0,0l0,0l0,0l0,0l0,0l0,0l0,0l0,0l0,0l0,0l0,0l0,0l0,0
	l0,0l0,0l0,0l0,0l0,0l0,0l0,0l0,0l0,0l0,0l0,0l0,0l0,0l0,0l0,0l0,0l0,0l0,0l0,0c0,0,0,0-0.101,0l0,0l0,0l0,0l0,0l0,0h-0.101l0,0l0,0
	l0,0c0,0,0,0-0.101,0l0,0l0,0l0,0l0,0h-0.102l0,0l0,0l0,0c0,0,0,0-0.101,0l0,0h-0.101l0,0h-0.101l0,0h-0.101l0,0l0,0l0,0h-0.102l0,0
	h-0.101l0,0h-0.806h-0.102l0,0l0,0l0,0c0,0,0,0-0.101,0h-0.101h-0.101l0,0h-0.101l0,0l0,0c0,0,0,0-0.102,0l0,0h-0.101
	c0,0,0,0-0.101,0l0,0h-0.101h-0.102h-0.101l0,0c0,0,0,0-0.101,0l0,0h-0.101l0,0h-0.101l0,0l0,0c0,0,0,0-0.102,0l0,0h-0.101l0,0
	c-4.233,0.706-12.095,1.915-18.948,2.419l17.739,10.281c2.419,1.411,5.442-0.403,5.442-3.125v-10.986
	C378.162,285.134,377.961,285.234,377.961,285.335C377.961,285.234,377.961,285.234,377.961,285.335z"></path>
<path id="color_x5F_7" fill="#B6C5C0" d="M366.37,179.506l-25.097,1.411l-19.755-27.011c0.403-0.101,0.807,0,1.311,0.202
	c0,0,0.101,0,0.101,0.101l42.836,24.693l0.101,0.101C365.967,179.002,366.168,179.204,366.37,179.506z M407.392,134.856v-0.302
	v-0.403l-0.102-0.302l-0.101-0.403l-0.101-0.302l-0.101-0.403l-0.101-0.302l-0.102-0.302l-0.101-0.303l-0.101-0.302l-0.101-0.302
	l-0.102-0.302l-0.101-0.303l-0.101-0.302l-0.101-0.302l-0.202-0.303l-0.201-0.302l-0.201-0.302l-0.202-0.302l-0.201-0.302
	l-0.202-0.303l-0.201-0.201l-0.202-0.202l-0.201-0.202l-0.201-0.202l-0.202-0.202l-0.201-0.202l-0.202-0.202l-0.201-0.201
	l-0.202-0.101l-0.101-0.101h-0.101h-0.101h-0.101h-0.102h-0.101h-0.101h-0.101h-0.101h-0.102h-0.101h-0.101h-0.101h-0.102h-0.101
	h-0.101l-0.101-0.403l-0.101-0.403l-0.102-0.403l-0.101-0.403l-0.101-0.403l-0.101-0.403l-0.102-0.403l-0.101-0.403l-0.101-0.303
	l-0.101-0.403l-0.101-0.302l-0.102-0.302l-0.201-0.302l-0.201-0.302l-0.202-0.303l-0.201-0.302l-0.202-0.302l-0.1-0.403
	l-0.202-0.302l-0.201-0.302l-0.202-0.303l-0.201-0.302l-0.202-0.302l-0.201-0.302l-0.201-0.202l-0.202-0.202l-0.201-0.202
	l-0.202-0.202l-0.201-0.202l-0.202-0.201l-0.302-0.202l-0.202-0.202l-0.101-0.806l-0.101-0.807l-0.101-0.907l-0.101-0.807
	l-0.202-0.907l-0.201-0.806l-0.202-0.907l-0.201-0.806l-0.303-0.806l-0.302-0.807l-0.303-0.806l-0.403-0.806l-0.303-0.807
	l-0.402-0.806l-0.403-0.806l-0.403-0.807l-0.403-0.706l-0.403-0.705l-0.402-0.706l-0.504-0.705l-0.505-0.605l-0.504-0.604
	l-0.504-0.605l-0.504-0.604l-0.504-0.605l-0.604-0.604l-0.604-0.504l-0.604-0.504l-0.605-0.504l-0.604-0.403l-0.604-0.403
	l-0.605-0.403l-0.504-0.302l-0.504-0.202l-0.504-0.202l-0.504-0.201l-0.504-0.202l-0.504-0.101l-0.504-0.101l-0.504-0.101
	l-0.504-0.101h-0.504h-0.403l-0.403,0.101l-0.402,0.101l-0.403,0.101l-0.403,0.101l-6.954,4.032l-0.102-0.101l-0.101-0.101
	l-0.101-0.101l-0.101-0.101l-0.102-0.101l-0.101-0.101l-0.101-0.101l-0.101-0.101l-0.101-0.101l-0.102-0.101l-0.101-0.101
	l-0.101-0.101l-0.101-0.101l-0.101-0.101l-0.102-0.101l-0.101-0.101l-0.403-0.202l-0.403-0.202l-0.402-0.202l-0.403-0.101
	l-0.403-0.101l-0.403-0.101l-0.403-0.101h-0.403h-0.402h-0.403l-0.403,0.101l-0.303,0.101l-7.257,4.233
	c1.311-0.504,3.024-0.202,4.737,0.806c1.613,0.907,3.023,2.318,4.334,4.032c1.512-6.249,6.249-8.668,11.894-5.342
	c6.45,3.628,11.691,13.405,12.296,22.274c2.621,1.915,4.838,5.644,5.645,9.474c0.302,0.101,0.705,0.202,1.008,0.403
	c2.52,1.512,4.637,5.543,4.637,9.071c0,2.016-0.706,3.326-1.714,3.931c0.101-0.101,0.201-0.101,0.303-0.202l7.257-4.233l0.101-0.101
	l0.101-0.101l0.101-0.201l0.101-0.202l0.102-0.202l0.101-0.202l0.101-0.202l0.101-0.201l0.102-0.202l0.101-0.302l0.101-0.303
	l0.101-0.302v-0.302v-0.303v-0.302v-0.302v-0.302L407.392,134.856z M167.109,299.95c0,0.302-0.101,0.504-0.101,0.806
	c-0.101,0.303-0.101,0.504-0.202,0.807s-0.202,0.504-0.302,0.807c-0.101,0.302-0.202,0.504-0.403,0.806
	c-0.101,0.302-0.302,0.504-0.403,0.706c-0.101,0.302-0.302,0.504-0.504,0.806c0,0.101-0.101,0.202-0.201,0.202
	c-0.101,0.201-0.202,0.302-0.403,0.504c-0.202,0.302-0.403,0.504-0.605,0.705c-0.201,0.201-0.403,0.504-0.706,0.705
	c-0.302,0.202-0.504,0.404-0.806,0.706c-0.302,0.202-0.504,0.403-0.806,0.706c-0.302,0.201-0.605,0.402-0.907,0.604
	c-0.101,0.101-0.302,0.201-0.403,0.302c-0.201,0.102-0.302,0.202-0.504,0.303s-0.302,0.201-0.504,0.303l0,0
	c-0.202,0.101-0.302,0.201-0.504,0.302c-0.403,0.202-0.706,0.403-1.108,0.604c-0.403,0.202-0.706,0.404-1.109,0.605
	s-0.706,0.303-1.109,0.504c-0.403,0.101-0.806,0.303-1.108,0.504c-0.403,0.101-0.807,0.303-1.209,0.402
	c-0.403,0.102-0.807,0.303-1.209,0.404c-0.202,0.1-0.403,0.1-0.605,0.201c-0.202,0.101-0.403,0.101-0.604,0.201
	c-0.202,0.102-0.403,0.102-0.605,0.202s-0.403,0.101-0.604,0.201c-0.403,0.101-0.907,0.202-1.311,0.303
	c-0.403,0.101-0.907,0.201-1.31,0.302c-0.403,0.102-0.907,0.102-1.311,0.202c-0.403,0.101-0.907,0.101-1.31,0.101
	c-0.403,0.102-0.907,0.102-1.31,0.102c-0.403,0-0.907,0.1-1.311,0.1s-0.907,0.102-1.31,0.102c-0.403,0-0.907,0-1.311,0
	c-0.202,0-0.403,0-0.706,0c-0.201,0-0.403,0-0.706,0c-0.403,0-0.907,0-1.31-0.102c-0.504,0-0.907-0.1-1.31-0.1
	c-0.403-0.102-0.907-0.102-1.311-0.102c-0.403,0-0.907-0.101-1.31-0.101c-0.403-0.101-0.907-0.101-1.311-0.202
	c-0.403-0.101-0.907-0.101-1.31-0.201s-0.907-0.201-1.311-0.303c-0.403-0.101-0.907-0.201-1.31-0.302s-0.806-0.202-1.209-0.403
	c-0.403-0.102-0.806-0.201-1.209-0.403c-0.403-0.101-0.806-0.302-1.209-0.403c-0.403-0.201-0.806-0.303-1.109-0.504
	c-0.403-0.201-0.806-0.303-1.108-0.504c-0.403-0.201-0.706-0.402-1.109-0.504c-0.403-0.201-0.706-0.402-1.008-0.604
	c-0.403-0.202-0.604-0.403-1.008-0.604c-0.302-0.202-0.605-0.403-0.907-0.605c-0.202-0.101-0.302-0.201-0.403-0.302
	c-0.101-0.101-0.303-0.202-0.403-0.303c-0.302-0.201-0.504-0.403-0.806-0.604c-0.303-0.201-0.504-0.403-0.706-0.605
	c-0.202-0.201-0.403-0.402-0.605-0.705c-0.202-0.201-0.403-0.402-0.604-0.705c-0.202-0.201-0.403-0.504-0.605-0.706
	c-0.101-0.201-0.302-0.403-0.504-0.705c-0.101-0.202-0.302-0.505-0.403-0.706c-0.101-0.201-0.302-0.504-0.403-0.705
	c-0.101-0.201-0.202-0.504-0.303-0.705c-0.101-0.303-0.101-0.504-0.201-0.807c-0.101-0.201-0.101-0.504-0.202-0.706
	c0-0.201-0.101-0.504-0.101-0.705c0-0.303-0.101-0.504-0.101-0.807l0,0v4.334l0.101,0.706l0.101,0.806l0.202,0.706l0.201,0.705
	l0.303,0.705l0.403,0.706l0.403,0.706l0.504,0.705l0.605,0.705l0.604,0.706l0.605,0.604l0.706,0.705l0.806,0.605l0.907,0.604
	l0.907,0.604l1.008,0.605l1.008,0.604l1.108,0.504l1.109,0.504l1.108,0.504l1.209,0.403l1.209,0.403l1.209,0.403l1.311,0.302
	l1.31,0.303l1.311,0.201l1.31,0.202l1.311,0.201l1.31,0.102l1.31,0.1l1.311,0.102h1.31h1.311l1.31-0.102l1.311-0.1l1.31-0.102
	l1.31-0.201l1.311-0.202l1.31-0.201l1.311-0.303l1.31-0.302l1.209-0.403l1.209-0.403l1.209-0.403l1.109-0.504l1.108-0.504
	l1.109-0.504l1.109-0.604l1.008-0.605l0.907-0.604l0.907-0.604l0.806-0.705l0.807-0.706l0.706-0.706l0.604-0.705l0.504-0.705
	l0.504-0.706l0.403-0.806l0.403-0.706l0.302-0.806l0.202-0.807l0.101-0.807l0.101-0.807v-0.807v-4.031c0-0.101,0-0.302,0-0.403
	c0,0.302,0,0.504,0,0.806C167.21,299.446,167.21,299.748,167.109,299.95z"></path>
<path id="color_x5F_6" fill="#FFFFFF" d="M308.617,211.255c-1.713,0.202-3.023,0.403-4.232,0.504v-58.256
	c1.41,0.202,2.821,0.101,4.232-0.202V211.255z M324.542,257.92c0.706,0.706,5.141,4.536,9.878,8.466l10.985,6.35v-0.101l8.77,5.14
	c4.435,0.706,9.373,1.512,10.18,1.613c0.705,0.101,2.52,0.403,4.636,0.403v-5.039l-23.585-13.607l-7.559-4.435l-23.182-13.405
	c-0.202,0.504-0.303,0.907-0.403,1.411v3.226c0.403,1.713,1.008,3.628,1.21,4.132c0,0,2.821,1.915,4.736,2.822
	C322.022,255.703,322.93,256.207,324.542,257.92z M355.081,236.049c-8.566-4.938-17.234-9.978-25.902-14.917v4.031
	c8.668,5.04,17.235,9.979,25.902,15.018V236.049z M355.081,228.792c-8.566-4.938-17.234-9.978-25.902-14.917v4.132
	c8.668,5.04,17.235,9.978,25.902,15.018V228.792z M322.729,154.107l-0.403-0.202c-0.907-0.504-1.613,0-1.613,1.209v26.104
	c0,0.604,0.403,1.31,0.807,1.512l43.541,25.197c0.907,0.504,1.612,0,1.612-1.209v-26.104c0-0.604-0.402-1.31-0.806-1.512
	l-0.202-0.101c0.202,0.202,0.403,0.303,0.605,0.605l-25.097,1.411l-19.755-27.012C321.821,153.704,322.225,153.805,322.729,154.107z
	 M329.279,232.32c8.668,5.04,17.235,9.978,25.903,15.018v-4.132c-8.567-4.938-17.235-9.978-25.903-14.917V232.32z M293.197,89.199
	c0.202,0,0.302,0,0.504,0c0.101,0,0.302,0,0.504,0c0.302,0,0.605,0,0.907,0s0.604,0.101,0.907,0.101
	c0.303,0,0.605,0.101,1.008,0.202c0.302,0.101,0.604,0.101,1.008,0.202c0.302,0.101,0.604,0.202,1.008,0.302
	c0.302,0.101,0.605,0.303,1.008,0.403c0.403,0.101,0.706,0.302,1.008,0.504s0.705,0.403,1.008,0.605
	c0.201,0.101,0.303,0.201,0.504,0.302c0.201,0.101,0.303,0.202,0.504,0.302c0.201,0.101,0.303,0.202,0.504,0.403
	c0.201,0.101,0.303,0.202,0.504,0.403c0.303,0.303,0.705,0.504,1.008,0.807c0.303,0.302,0.705,0.604,1.008,0.907
	c0.303,0.302,0.604,0.604,1.008,0.907s0.706,0.605,1.008,1.008c0.303,0.403,0.605,0.705,0.907,1.108
	c0.303,0.403,0.604,0.706,0.907,1.109c0.303,0.403,0.604,0.806,0.907,1.108c0.302,0.403,0.604,0.806,0.907,1.209
	c0.302,0.403,0.604,0.907,0.806,1.311c0.102,0.201,0.303,0.403,0.403,0.604s0.202,0.403,0.403,0.605
	c0.303,0.403,0.504,0.907,0.706,1.31c0.201,0.403,0.504,0.907,0.705,1.311c0.201,0.504,0.504,0.907,0.705,1.411
	c0.202,0.504,0.403,0.907,0.605,1.411c0.101,0.202,0.201,0.504,0.302,0.706c0.102,0.202,0.202,0.504,0.303,0.706
	c0.201,0.504,0.403,1.008,0.604,1.512c0.202,0.504,0.303,1.008,0.504,1.512c0.202,0.504,0.303,1.008,0.504,1.512
	c0.102,0.504,0.303,1.008,0.403,1.512s0.303,1.008,0.403,1.512c0.101,0.303,0.101,0.504,0.201,0.807
	c0.102,0.302,0.102,0.504,0.202,0.806c0.101,0.504,0.201,1.008,0.302,1.613c0.102,0.504,0.202,1.008,0.303,1.512
	s0.101,1.008,0.201,1.612c0.102,0.504,0.102,1.008,0.102,1.512c0.101,0.504,0.101,1.008,0.101,1.512s0,1.008,0.101,1.512
	c0,0.504,0,1.008,0,1.512s0,1.008,0,1.512s0,1.008-0.101,1.512c0,0.504-0.101,1.008-0.101,1.411
	c-0.102,0.504-0.102,1.008-0.202,1.411c0,0.201-0.101,0.504-0.101,0.706s-0.101,0.504-0.101,0.706
	c-0.101,0.504-0.202,0.907-0.303,1.411c-0.101,0.504-0.201,0.907-0.403,1.311c-0.101,0.403-0.201,0.907-0.402,1.31
	c-0.102,0.403-0.303,0.807-0.403,1.209c-0.101,0.403-0.303,0.806-0.403,1.109c-0.101,0.403-0.303,0.706-0.504,1.108
	c-0.101,0.202-0.202,0.303-0.303,0.504c-0.101,0.202-0.201,0.303-0.302,0.504c-0.202,0.303-0.403,0.605-0.605,0.907
	c-0.201,0.303-0.402,0.605-0.604,0.907c-0.201,0.302-0.403,0.604-0.604,0.806c-0.202,0.303-0.403,0.504-0.706,0.807
	c-0.201,0.202-0.402,0.504-0.705,0.706c-0.201,0.201-0.504,0.403-0.706,0.604c-0.201,0.202-0.504,0.403-0.705,0.605
	s-0.504,0.403-0.807,0.504c-0.302,0.101-0.504,0.302-0.806,0.403c-0.303,0.101-0.504,0.202-0.807,0.403
	c-0.303,0.101-0.604,0.202-0.807,0.302l4.939-1.31l0.906-0.302l0.807-0.403l0.807-0.403l0.806-0.504l0.706-0.604l0.705-0.605
	l0.706-0.706l0.604-0.806l0.604-0.806l0.605-0.907l0.604-0.907l0.504-1.008l0.504-1.109l0.403-1.108l0.403-1.109l51.2,29.531
	c2.218,1.311,3.629,3.628,3.629,6.249v99.681c0.303-0.504,0.604-0.907,0.705-1.311c0.505-1.209,1.009-5.342,0.907-6.652
	c-0.101-1.311,0.706-2.722,1.21-2.318c0.504,0.302,1.108,2.822,0.907,4.334c-0.202,1.512,0.302,2.016,0.302,2.016s0.102,0,0.403,0
	v-104.62c0-1.008-0.201-2.016-0.504-2.923c-0.101-0.201-0.101-0.302-0.201-0.504c-0.102-0.201-0.202-0.302-0.202-0.504
	c0-0.101-0.101-0.201-0.101-0.201c-0.101-0.202-0.303-0.403-0.403-0.706c-0.101-0.101-0.101-0.201-0.201-0.201
	c-0.101-0.101-0.202-0.303-0.303-0.403s-0.201-0.202-0.302-0.302c-0.202-0.202-0.403-0.302-0.605-0.504
	c-0.101-0.101-0.201-0.202-0.302-0.202c-0.102-0.101-0.202-0.101-0.303-0.202c-0.101-0.101-0.303-0.202-0.403-0.302l-53.519-30.942
	v-0.303V127.7l-0.102-1.512l-0.101-1.512l-0.201-1.512l-0.202-1.613l-0.101-0.706l-0.101-0.806l-0.303-1.613l-0.403-1.512
	l-0.402-1.512l-0.403-1.512l-0.504-1.512l-0.504-1.512l-0.605-1.512l-0.604-1.411l-0.604-1.411l-0.706-1.411l-0.705-1.31
	l-0.706-1.311l-0.806-1.31l-0.807-1.311l-0.907-1.209l-0.907-1.108l-0.906-1.109l-0.907-1.109l-1.008-1.008l-1.009-0.907
	l-1.008-0.907l-1.008-0.806l-1.008-0.706l-1.008-0.604l-1.008-0.504L305.09,89.4l-1.008-0.403l-1.008-0.403l-1.008-0.201
	l-1.008-0.202l-1.008-0.101h-0.907l-0.907,0.101l-0.907,0.101l-0.907,0.202l-4.938,1.311c0.302-0.101,0.604-0.101,0.907-0.202
	C292.592,89.199,292.895,89.199,293.197,89.199z M385.722,187.872L385.722,187.872v-0.202v-0.101v-0.101v-0.101l0.101-0.101
	l0.101-0.101h0.101l1.814-1.008l0.101-0.101h0.102h0.101h0.101h0.101h0.102l0,0l-0.706-0.403h-0.101h-0.101h-0.102h-0.101h-0.101
	h-0.101h-0.101h-0.102l-1.813,1.108h-0.102l-0.101,0.101l-0.101,0.101v0.101v0.101v0.101v0.101v0.101v5.946v0.101v0.101v0.101
	l0.101,0.101v0.101l0.101,0.101l0.102,0.101l0.101,0.101l0.806,0.504l-0.101-0.101l-0.101-0.101h-0.101v-0.101v-0.101v-0.101v-0.101
	v-0.101V187.872L385.722,187.872z M387.637,176.382L387.637,176.382l-0.101-0.101h-0.102h-0.101h-0.101h-0.101h-0.102h-0.101
	l-1.813,1.109h-0.102l-0.101,0.101l-0.101,0.101v0.101v0.101v0.101v0.101v0.101v5.946v0.101v0.101v0.101v0.101v0.101l0.101,0.101
	l0.101,0.101l0.102,0.101l0.806,0.504l-0.101-0.101l-0.101-0.101l-0.101-0.101v-0.101v-0.101v-0.101v-0.101v-0.202v-5.947v-0.101
	v-0.101v-0.101v-0.101v-0.101l0.101-0.101l0.101-0.101h0.101l1.814-1.008l0.101-0.101h0.101h0.102h0.101h0.101h0.101l0,0
	L387.637,176.382z M360.222,123.064l16.126,9.374l11.49,6.652l7.56,4.334c1.108,0.605,2.116,0.706,2.923,0.202
	c1.008-0.604,1.713-1.915,1.713-3.931c0-3.528-2.116-7.559-4.636-9.071c-0.403-0.201-0.706-0.403-1.008-0.403
	c-0.907-3.83-3.024-7.559-5.645-9.474c-0.604-8.971-5.946-18.646-12.296-22.275c-5.645-3.326-10.382-0.806-11.894,5.342
	c-1.311-1.714-2.722-3.125-4.334-4.032c-1.714-1.008-3.326-1.209-4.737-0.806c-0.302,0.101-0.604,0.201-0.806,0.403
	c0,0-0.102,0-0.102,0.101c-0.201,0.101-0.402,0.302-0.604,0.403c-0.101,0.101-0.101,0.101-0.201,0.202
	c-0.202,0.202-0.303,0.302-0.403,0.504c0,0.101-0.101,0.101-0.101,0.202c-0.403,0.504-0.706,1.109-0.907,1.713
	c0,0.101-0.101,0.202-0.101,0.302c-0.102,0.202-0.202,0.504-0.202,0.807c0,0.101-0.101,0.302-0.101,0.403
	c-0.101,0.303-0.101,0.605-0.101,0.807c0,0.101,0,0.302,0,0.403c0,0.403-0.101,0.907-0.101,1.311
	C351.756,112.985,355.585,120.343,360.222,123.064z M300.957,247.539l-0.907,2.217c0,0,5.04-1.713,7.66-1.108
	c2.621,0.604,7.762,3.527,7.762,3.527l-0.102-0.101l0,0c-0.101-0.403-0.504-1.311-0.907-2.52c0,0-5.039-2.419-6.753-2.822
	C305.997,246.43,300.957,247.539,300.957,247.539L300.957,247.539z M370.301,150.176l-1.311,0.706c-0.504,0.302-0.504,1.109,0,1.411
	l8.063,4.636c0.504,0.302,1.108,0.302,1.713,0l1.21-0.706c0.604-0.302,0.604-1.108,0-1.411l-8.063-4.636
	C371.51,149.874,370.805,149.874,370.301,150.176z M374.231,286.444L374.231,286.444L374.231,286.444h0.101l0,0l0,0h0.101l0,0l0,0
	h0.102h0.101l0,0h0.101l0,0l0,0h0.101l0,0h0.102h0.101h0.101l0,0l0,0l0,0l0,0l0,0l0,0h0.101l0,0l0,0l0,0l0,0l0,0l0,0l0,0l0,0l0,0
	l0,0l0,0l0,0l0,0h0.101h0.102l0,0l0,0l0,0l0,0l0,0l0,0l0,0l0,0l0,0l0,0h0.101l0,0l0,0l0,0l0,0l0,0l0,0l0,0h0.101l0,0l0,0l0,0l0,0
	h0.101l0,0l0,0l0,0l0,0l0,0l0,0l0,0h0.101l0,0l0,0l0,0l0,0l0,0l0,0l0,0l0,0l0,0l0,0l0,0l0,0l0,0l0,0l0,0l0,0l0,0l0,0l0,0l0,0l0,0
	l0,0l0,0l0,0l0,0l0,0l0,0l0,0l0,0l0,0l0,0l0,0l0,0l0,0l0,0l0,0l0,0l0,0l0,0l0,0l0,0l0,0l0,0l0,0l0,0l0,0l0,0l0,0l0,0l0,0l0,0l0,0
	l0,0l0,0l0,0l0,0l0,0l0,0l0,0l0,0l0,0l0,0l0,0l0,0l0,0l0,0l0,0l0,0l0,0l0,0l0,0l0,0l0,0l0,0l0,0l0,0l0,0l0,0l0,0l0,0l0,0l0,0l0,0
	l0,0l0,0l0,0l0,0l0,0l0,0l0,0l0,0l0,0l0,0l0,0l0,0l0,0l0,0l0,0l0,0l0,0l0,0l0,0l0,0l0,0l0,0l0,0l0,0l0,0l0,0l0,0l0,0l0,0l0,0l0,0
	l0,0l0,0l0,0l0,0l0,0l0,0l0,0l0,0l0,0l0,0l0,0l0,0l0,0l0,0c0.102-0.202,0.202-0.302,0.202-0.605c0-0.101,0.101-0.201,0.101-0.302
	c0-0.101,0.101-0.202,0.101-0.302c0-0.202,0.102-0.403,0.102-0.604c0-0.101,0-0.101,0-0.202c0-0.303,0.101-0.605,0.101-0.907
	c0.101-2.721-1.915-3.83-1.915-3.83l-0.101,0.101l0,0l0,0c0,0,0,0-0.102,0c0,0-0.101,0-0.101,0.101
	c-0.101,0-0.101,0.101-0.201,0.101h-0.101h-0.102l0,0h-0.101h-0.101l0,0l0,0l-1.814,0.504l1.612-0.504l0,0c0,0-0.101,0-0.101,0.101
	l0,0l-0.101,0.101l0,0l0,0l0,0l0,0l0,0l0,0h-0.101h-0.101l0,0l0,0l0,0l0,0h-0.102l0,0h-0.101h-0.101h-0.101h-0.101l0,0l0,0l0,0l0,0
	h-0.102l0,0l0,0l0,0h-0.101l0,0l0,0l0,0l0,0c0,0,1.915,1.512,1.512,3.628C375.139,285.134,374.231,286.444,374.231,286.444z
	 M230.808,373.426c-0.101,1.512-1.008,6.449-1.008,6.449v0.807l2.116-0.402c0,0,0.101-0.303,0.202-0.706
	c0.302-1.21,0.907-3.527,1.008-5.14c0.101-1.613-0.806-3.326-1.31-4.234c-0.202-0.402-0.403-0.604-0.403-0.604l-2.116,0.604
	l0.403,0.605C229.8,370.805,230.808,372.014,230.808,373.426z M342.08,379.674c0.101-0.504,0.101-0.906,0.101-0.906l-1.814-2.016
	l0,0c0,0-0.303,4.636-2.52,5.644c-1.512,0.706-3.528,1.31-4.737,1.612c-0.504,0.102-0.907,0.202-0.907,0.202l0.907,1.714
	c0,0,0.504,0.1,1.209,0.1c1.21,0,3.024-0.1,4.737-0.806C341.173,384.209,341.878,381.186,342.08,379.674z M220.427,381.388
	c-0.907,6.147-0.403,11.188,0.604,14.211c0.605,1.814,0.101,3.83-0.302,5.141c0.202,0,0.403,0,0.504-0.101
	c0.101,0,0.202,0,0.202-0.102l0,0l0,0c0.806-0.302,1.209-2.821,0.907-3.729c-0.706-2.218-1.814-9.373-0.706-16.429
	c0.302-2.017,0.604-3.83,0.907-5.544c0.302-1.914,0.302-5.141-2.117-5.543c-0.403-0.102-0.706-0.102-1.109-0.102
	C222.946,370.905,221.233,375.34,220.427,381.388z M461.012,258.626h1.209v-12.498h-1.209V258.626z M461.012,276.063l-0.605,0.302
	l0.605,1.109l0.906-0.504l0.303-0.202v-0.403v-11.49h-1.209V276.063L461.012,276.063z M541.441,189.283l-96.456-55.636
	c-2.016-1.109-3.628,0.101-3.628,2.721v31.749l77.104,44.448c1.008,0.605,1.814,2.117,1.814,3.427v26.003l19.452,11.188
	c1.915,1.109,3.629-0.101,3.629-2.721v-57.853C543.256,191.399,542.449,189.888,541.441,189.283z M446.296,284.529l0.604,1.109
	l8.77-5.04l-0.605-1.109L446.296,284.529z M460.406,204.704c13.002,7.559,25.803,14.917,38.703,22.375v-6.249
	c-12.9-7.458-25.802-14.917-38.703-22.375V204.704z M460.406,215.387c13.002,7.559,25.803,14.917,38.703,22.375v-6.249
	c-12.9-7.458-25.802-14.917-38.703-22.375V215.387z M460.406,226.172c13.002,7.559,25.803,14.917,38.703,22.375v-6.249
	c-12.9-7.458-25.802-14.917-38.703-22.375V226.172z M220.225,402.554c-0.403-0.202-1.008-0.202-1.411,0l-50.193,29.027
	c-0.504,0.302-0.504,1.008,0,1.209l15.219,8.769c0.403,0.303,1.008,0.303,1.512,0l50.193-28.927c0.504-0.302,0.504-1.008,0-1.31
	L220.225,402.554z M306.602,351.957l-27.314,15.824l-0.806,2.419c0,0-2.621,3.427-8.063,3.931c-0.605,0.101-1.613,0.201-2.822,0.303
	l-7.66,4.434c-0.504,0.303-0.504,1.008,0,1.311l15.219,8.77c0.403,0.302,1.008,0.302,1.411,0l42.13-24.392
	c-3.225-4.536-6.35-8.87-6.35-8.87L306.602,351.957z M438.334,185.755l-11.591,4.838l4.031,2.318v15.925l15.018,8.668v-15.925
	l4.031,2.318L438.334,185.755z M159.046,286.847c-3.528-2.016-7.862-3.427-12.498-4.132c0.403,1.612,0.706,3.225,1.109,4.838
	c2.217,0.604,4.233,1.411,6.047,2.419c8.063,4.636,8.063,12.296-0.101,16.933c-8.164,4.736-21.367,4.736-29.43,0.101
	c-7.761-4.536-8.063-11.691-0.706-16.429c0.302-0.202,0.604-0.403,0.907-0.504c0.302-0.202,0.604-0.403,1.008-0.504
	c0.504-0.302,1.008-0.504,1.612-0.706c-0.101-1.512-0.201-3.125-0.201-4.939c-2.218,0.605-4.334,1.411-6.249,2.419
	c-0.504,0.202-0.907,0.504-1.311,0.706c-0.403,0.202-0.806,0.504-1.209,0.706c-4.938,3.226-7.357,7.257-7.156,11.289
	c0,0.302,0,0.504,0.101,0.806c0,0.101,0,0.202,0.101,0.403c0,0.101,0,0.303,0.101,0.403c0.101,0.302,0.101,0.504,0.202,0.706
	c0.101,0.302,0.101,0.504,0.202,0.806c0.101,0.202,0.201,0.504,0.302,0.706c0.101,0.302,0.202,0.504,0.403,0.705
	c0.101,0.101,0.101,0.201,0.201,0.403c0.101,0.101,0.101,0.201,0.202,0.403c0.101,0.302,0.302,0.504,0.504,0.705
	s0.403,0.504,0.605,0.705c0.202,0.202,0.403,0.504,0.604,0.706s0.403,0.504,0.605,0.706c0.202,0.201,0.504,0.402,0.706,0.604
	c0.201,0.202,0.504,0.404,0.806,0.605c0.101,0.101,0.302,0.201,0.403,0.303l0,0c0.101,0.101,0.302,0.201,0.403,0.302
	c0.101,0.101,0.303,0.202,0.403,0.303s0.302,0.201,0.403,0.302c0.101,0.102,0.302,0.202,0.504,0.303s0.302,0.201,0.504,0.303
	c0.302,0.201,0.706,0.402,1.008,0.604c0.403,0.202,0.706,0.403,1.109,0.504c0.403,0.202,0.706,0.302,1.108,0.504
	c0.403,0.101,0.807,0.302,1.109,0.504c0.403,0.101,0.806,0.302,1.209,0.403c0.403,0.101,0.806,0.303,1.209,0.402
	c0.202,0.102,0.403,0.102,0.604,0.202s0.403,0.101,0.605,0.202c0.202,0.101,0.403,0.101,0.604,0.101
	c0.202,0.101,0.403,0.101,0.605,0.201c0.202,0,0.403,0.101,0.604,0.101c0.202,0.102,0.403,0.102,0.605,0.102
	c0.403,0.101,0.907,0.201,1.31,0.201c0.403,0.102,0.907,0.102,1.311,0.201c0.403,0.102,0.907,0.102,1.31,0.102
	c0.403,0.101,0.907,0.101,1.31,0.101c0.202,0,0.403,0,0.706,0c0.202,0,0.403,0,0.706,0.101c0.403,0,0.907,0,1.311,0.102
	c0.202,0,0.504,0,0.706,0c0.201,0,0.504,0,0.706,0c0.403,0,0.907,0,1.31,0c0.202,0,0.403,0,0.706,0c0.202,0,0.403,0,0.706,0
	c0.403,0,0.907-0.102,1.31-0.102c0.504,0,0.907-0.101,1.311-0.101c0.403,0,0.907-0.101,1.31-0.101c0.202,0,0.403-0.102,0.605-0.102
	c0.201,0,0.403-0.1,0.604-0.1c0.403-0.102,0.907-0.202,1.311-0.303c0.403-0.102,0.907-0.202,1.31-0.303
	c0.202-0.101,0.403-0.101,0.604-0.201l0,0c0.202,0,0.403-0.102,0.605-0.102c0.202-0.101,0.403-0.101,0.605-0.201l0,0
	c0.201-0.101,0.403-0.101,0.604-0.201c0.403-0.102,0.806-0.303,1.209-0.404c0.403-0.1,0.806-0.302,1.209-0.402
	c0.202-0.102,0.403-0.102,0.605-0.201c0.201-0.102,0.403-0.102,0.604-0.202s0.403-0.202,0.605-0.302
	c0.201-0.102,0.403-0.102,0.604-0.202c0.403-0.202,0.706-0.403,1.109-0.604c0.403-0.201,0.706-0.403,1.108-0.605
	c0.202-0.101,0.303-0.201,0.504-0.302l0,0l0,0c0.202-0.101,0.303-0.202,0.504-0.303c0.202-0.101,0.303-0.201,0.504-0.302l0,0
	c0.101-0.102,0.302-0.202,0.403-0.303c0.101-0.101,0.302-0.201,0.403-0.303c0.101-0.101,0.302-0.201,0.403-0.302
	c0.101-0.101,0.303-0.202,0.403-0.403c0.101-0.101,0.302-0.201,0.403-0.303c0.101-0.101,0.302-0.201,0.403-0.402
	c0.101-0.102,0.303-0.202,0.403-0.303c0.101-0.102,0.202-0.201,0.302-0.403c0.101-0.101,0.202-0.202,0.403-0.403
	c0.101-0.101,0.202-0.201,0.302-0.402c0.101-0.102,0.202-0.303,0.303-0.404c0.101-0.1,0.201-0.201,0.302-0.402l0.101-0.102
	c0.101-0.1,0.101-0.201,0.202-0.201c0.202-0.303,0.403-0.504,0.504-0.807c0.101-0.201,0.302-0.504,0.403-0.705
	c0.101-0.303,0.302-0.504,0.403-0.807c0.101-0.101,0.101-0.201,0.101-0.402c0.101-0.102,0.101-0.202,0.101-0.404
	c0.101-0.201,0.101-0.504,0.202-0.806c0.101-0.302,0.101-0.504,0.101-0.806c0.101-0.302,0.101-0.504,0.101-0.806
	c0-0.303,0-0.504,0-0.807C167.311,294.205,164.589,290.072,159.046,286.847z M352.158,386.428c-3.023,2.922-7.257,8.97-10.684,9.775
	c-1.713,0.403-3.326,0.102-4.031-0.705c-0.201-0.201-0.303-0.403-0.504-0.705c0-0.102-0.101-0.102-0.101-0.202l0,0
	c0.604,2.318,1.813,2.822,3.326,3.125c3.729,0.806,6.854-3.931,8.769-6.552c3.023-4.232,10.985-8.668,8.466-12.396
	C358.307,380.48,355.283,383.403,352.158,386.428z M402.755,297.229c-0.504-0.202-1.008-0.202-1.512,0l-11.087,6.45v6.854v0.302
	v0.302l-0.101,0.303l-0.101,0.303l-0.102,0.201l-0.101,0.303l-0.101,0.201l-0.101,0.201l-0.101,0.202l-0.102,0.202l-0.201,0.201
	l-0.101,0.201l-0.202,0.202l-0.201,0.101l-7.257,4.133l0,0c0.504-0.404,0.907-0.908,1.209-1.512c0,0,0-0.102,0.102-0.102
	c0-0.101,0.101-0.201,0.101-0.303v-0.1c0.101-0.303,0.101-0.706,0.101-1.109v-30.841c-1.714,0.504-3.527,0.907-4.435,1.209v10.986
	c0,2.822-3.023,4.536-5.442,3.125l-17.739-10.281c-3.83,0.303-7.257,0.403-9.776,0.202l4.435,2.52
	c0.604,0.403,1.108,1.108,1.108,1.814v1.814c0,0.806-0.907,1.31-1.612,0.907l-17.94-10.381c-0.605-0.403-1.109-1.108-1.109-1.814
	v-1.008c-5.442-3.024-9.877-6.047-9.877-6.047l-2.52,7.257l52.914,30.539l-19.755,11.389c-0.504,0.303-0.504,1.008,0,1.311
	l15.22,8.77c0.504,0.302,1.008,0.302,1.512,0l50.193-28.928c0.504-0.302,0.504-1.008,0-1.31L402.755,297.229z"></path>
<path id="color_x5F_5" fill="#FFD2BB" d="M319.805,223.652c0,1.008,0.706,7.358,0.706,9.474c0,2.117-0.604,6.955-1.612,7.761
	c-1.008,0.807-3.125-0.604-3.125-0.604s-0.705,1.512-1.209,3.125c-0.202,0.504-0.303,0.907-0.403,1.411
	c-0.101,0.403-0.202,0.706-0.202,1.108c-0.101,0.605,0,1.311,0.202,2.217c0.403,1.714,1.008,3.629,1.209,4.133l0,0
	c-0.101-0.403-0.504-1.311-0.907-2.52c0,0-5.039-2.419-6.753-2.822c-1.813-0.303-6.853,0.806-6.853,0.806l0.806-2.217l1.008-2.621
	c0,0,4.838,0.101,7.66-0.605c2.822-0.604,3.023-5.846,3.023-6.148s-1.512-6.148,0.604-8.668c2.017-2.52,4.838,0,4.838,0
	s-1.209-4.032-0.906-4.636c0-0.101,0.101-0.101,0.101-0.202c0,0,0,0,0.101-0.101c0,0,0.101-0.101,0.201-0.101
	c0.202-0.101,0.504-0.302,0.907-0.604l0,0C319.2,221.737,319.805,222.644,319.805,223.652z M389.854,271.023
	c-0.101-1.713-1.31-2.923-2.116-0.907c-0.706,1.613-3.629,1.915-4.737,1.915c-0.201,0-0.403,0-0.403,0s-0.504-0.504-0.302-2.016
	c0.201-1.512-0.504-4.032-0.907-4.334c-0.504-0.302-1.311,1.109-1.21,2.318c0.102,1.31-0.402,5.442-0.907,6.652
	c-0.101,0.302-0.402,0.807-0.705,1.311c-0.807,1.209-1.814,2.419-1.814,2.419s2.016,1.209,1.915,3.83c0,0.303,0,0.706-0.101,0.907
	c0,0.101,0,0.101,0,0.202c0,0.202-0.101,0.403-0.101,0.604c0,0.101-0.101,0.202-0.101,0.303c0,0.101-0.102,0.202-0.102,0.302
	c-0.101,0.202-0.201,0.403-0.201,0.604c0,0,0.201-0.101,0.604-0.101c0.907-0.202,2.722-0.706,4.435-1.209
	c1.915-0.504,3.629-1.109,4.032-1.411c1.008-0.806,2.116-1.209,2.822-2.923C390.56,277.877,390.056,272.636,389.854,271.023z"></path>
<path id="color_x5F_4" fill="#00CEC9" d="M525.617,331.9l-135.36-78.213v49.891l11.087-6.451c0.504-0.202,1.008-0.202,1.512,0
	l15.22,8.769c0.504,0.303,0.504,1.008,0,1.311l-50.193,29.027c-0.403,0.302-1.008,0.302-1.512,0l-15.22-8.77
	c-0.504-0.303-0.504-1.008,0-1.311l19.755-11.389l-52.914-30.539l-10.079,29.128c0,0-0.604,3.729-6.854,5.241h0.101
	c0,0,18.848,22.879,23.483,27.717c3.729,3.932,12.498,23.081,15.824,30.338l1.814,2.016c0,0,0,0.303-0.101,0.907
	c1.411,0,6.249-0.101,8.97-1.714c3.226-1.914,4.939-2.217,6.35,0.908c2.419,3.729-5.543,8.164-8.466,12.396
	c-1.814,2.621-4.938,7.257-8.769,6.552c-1.512-0.303-2.822-0.807-3.326-3.125l0,0c-0.907-1.714-0.604-3.427-0.604-3.427
	c-0.403-0.201-1.411-3.527-1.814-5.141c-0.706,0-1.21-0.101-1.21-0.101l-0.906-1.714c0,0,0.302-0.1,0.906-0.201
	c-2.016-2.318-6.45-7.559-8.566-10.784c-1.21-1.814-3.528-5.241-5.947-8.567l-42.13,24.391c-0.403,0.303-1.008,0.303-1.411,0
	l-15.219-8.768c-0.504-0.303-0.504-1.008,0-1.311l7.66-4.436c-8.164,1.109-28.523,4.032-35.478,5.04
	c-0.101,0.403-0.202,0.706-0.202,0.706l-2.117,0.402v-0.807c0,0-5.342,6.652-6.551,10.886s1.411,7.056-0.605,9.071
	c-0.302,0.303-0.705,0.604-1.108,0.705l0,0l0,0c-0.101,0-0.202,0-0.202,0.102c-0.202,0-0.403,0.101-0.504,0.101l0,0h-0.101
	c-0.101,0-0.303,0-0.403-0.101h-0.101c-0.201-0.102-0.403-0.102-0.604-0.202c-0.101,0-0.202-0.101-0.202-0.201
	c0,0-0.101,0-0.101-0.101c-0.101-0.102-0.101-0.102-0.202-0.202c-0.101-0.101-0.202-0.201-0.302-0.201
	c-0.101-0.101-0.202-0.202-0.202-0.202c-0.101-0.101-0.101-0.101-0.202-0.201c-0.101-0.101-0.101-0.101-0.202-0.202l-0.101-0.101
	c-0.101-0.101-0.202-0.201-0.202-0.403c-0.101-0.101-0.101-0.201-0.202-0.402c-0.101-0.303-0.302-0.505-0.403-0.807
	c0-0.101-0.101-0.202-0.101-0.303c-0.101-0.302-0.202-0.504-0.302-0.806c0-0.102-0.101-0.202-0.101-0.403
	c-0.101-0.403-0.202-0.807-0.302-1.311c-1.209-5.745-0.403-18.747,0.604-22.174c0.101-0.302,0.202-0.504,0.202-0.705
	c0-0.101,0.101-0.202,0.101-0.303c0.101-0.202,0.101-0.403,0.202-0.604c0-0.102,0-0.102,0.101-0.102
	c0.101-0.1,0.101-0.302,0.202-0.402c0,0,0-0.102,0.101-0.102c0.101-0.1,0.202-0.302,0.202-0.402c0,0,0,0,0.101-0.102
	c0.101-0.1,0.101-0.201,0.201-0.201c0,0,0,0,0.101-0.101c0.101-0.101,0.202-0.101,0.202-0.202c0,0,0.101,0,0.101-0.1h0.101
	c0.202,0,0.303-0.102,0.605-0.102l0,0c0.302,0,0.706,0.102,1.209,0.201c2.217,0.404,9.272,1.412,9.272,1.412l-0.403-0.605
	l2.116-0.604c0,0,0.202,0.202,0.403,0.604c3.628-1.108,11.289-3.527,15.521-4.637c5.745-1.512,16.933-4.736,16.933-4.736
	s2.218-26.307,3.125-31.547c0.907-5.242,4.636-16.127,4.636-16.127c-1.411-1.311-1.31-2.318-1.31-2.318s19.049-50.898,24.189-56.039
	c5.141-5.14,5.443-5.241,5.443-5.241l-0.102,0.302l0.907-2.217l0,0l0.806-2.217l-138.787,80.128
	c2.217-0.202,4.233,0.706,4.233,0.706c-2.016,2.016-1.311,5.744-4.132,9.373c-2.822,3.628-11.087,4.334-11.087,4.334
	s4.636-1.714,6.148-9.475c0.202-1.209,0.605-2.117,1.109-2.822l-98.169,56.744c-3.125,1.814-4.536,5.141-4.233,8.266
	c0,0.101,0,0.303,0.101,0.402c0,0.202,0.101,0.404,0.101,0.504c0,0.202,0.101,0.303,0.101,0.504c0,0.102,0.101,0.303,0.101,0.404
	c0.101,0.201,0.101,0.402,0.202,0.604c0.101,0.102,0.101,0.202,0.201,0.404c0.101,0.201,0.202,0.402,0.303,0.604
	c0.101,0.101,0.101,0.201,0.202,0.302c0.101,0.202,0.302,0.403,0.403,0.605c0.101,0.101,0.101,0.201,0.202,0.201
	c0.202,0.201,0.302,0.403,0.504,0.604c0.101,0.102,0.101,0.102,0.202,0.202c0.202,0.201,0.403,0.403,0.604,0.504
	c0.303,0.201,0.605,0.403,0.907,0.604L239.98,501.831c5.342,3.124,11.792,3.124,17.134,0l269.107-155.317
	c1.411-0.806,2.521-1.914,3.226-3.225c0,0,0,0,0-0.101c0.201-0.303,0.303-0.604,0.403-0.907c0-0.102,0-0.102,0.101-0.201
	c0.101-0.303,0.202-0.504,0.303-0.807c0-0.102,0-0.201,0.101-0.303c0.101-0.201,0.101-0.504,0.101-0.705c0-0.102,0-0.303,0-0.403
	C530.153,337.04,528.742,333.714,525.617,331.9z M242.601,293.499c7.458-2.318,8.063,5.947,8.063,5.947
	c-2.721-0.807-5.644,1.613-10.18,0.806c-4.536-0.706-9.071-7.66-9.071-7.66S235.041,295.817,242.601,293.499z M235.545,412.632
	l-50.193,28.927c-0.504,0.303-1.008,0.303-1.512,0l-15.219-8.769c-0.504-0.302-0.504-1.008,0-1.209l50.193-29.027
	c0.403-0.202,1.008-0.202,1.411,0l15.219,8.769C236.049,411.624,236.049,412.431,235.545,412.632z M444.784,335.629
	c-2.822,3.629-11.087,4.334-11.087,4.334s4.637-1.713,6.148-9.475c1.512-7.66,9.071-4.232,9.071-4.232
	C447.002,328.271,447.606,332,444.784,335.629z M288.057,340.164l18.545,11.793l-27.314,15.824L288.057,340.164z"></path>
<path id="color_x5F_3" fill="#E84393" d="M337.947,382.396c-1.512,0.706-3.527,1.31-4.737,1.612
	c-2.016-2.318-6.45-7.559-8.567-10.784c-1.209-1.814-3.527-5.241-5.946-8.567c-3.226-4.535-6.35-8.869-6.35-8.869l-5.846-3.729
	l-18.545-11.792l-8.869,27.616l-0.807,2.419c0,0-2.621,3.427-8.063,3.931c-0.605,0.101-1.613,0.202-2.822,0.302
	c-8.164,1.109-28.523,4.032-35.478,5.04c0.302-1.21,0.907-3.527,1.008-5.14c0.101-1.613-0.807-3.326-1.311-4.234
	c3.628-1.107,11.289-3.527,15.521-4.636c5.745-1.512,16.933-4.737,16.933-4.737s2.218-26.306,3.125-31.547
	c0.907-5.241,4.637-16.127,4.637-16.127l0,0c0.201,0.202,0.504,0.404,0.806,0.605c0.101,0,0.101,0.101,0.202,0.101
	c0.101,0.101,0.202,0.101,0.302,0.202c0.101,0.101,0.202,0.101,0.302,0.201c0.101,0.101,0.202,0.101,0.302,0.201
	c0.101,0.102,0.202,0.102,0.303,0.202c0.101,0,0.201,0.101,0.201,0.101c0.101,0.101,0.303,0.101,0.403,0.201
	c0.101,0,0.101,0.102,0.202,0.102c0.202,0.101,0.302,0.201,0.504,0.201h0.101c1.209,0.504,2.62,1.008,4.435,1.512h0.101
	c0.303,0.102,0.706,0.201,1.008,0.303c0.101,0,0.101,0,0.202,0c0.303,0.101,0.706,0.201,1.109,0.303c0.101,0,0.202,0,0.302,0.1
	c0.403,0.102,0.706,0.202,1.109,0.202c0.101,0,0.202,0,0.302,0.101c0.403,0.102,0.806,0.202,1.109,0.202
	c0.101,0,0.302,0.101,0.403,0.101c0.403,0.101,0.807,0.101,1.109,0.201c0.504,0.102,1.108,0.202,1.713,0.303
	c0.706,0.101,1.31,0.201,1.915,0.201c0.202,0,0.302,0,0.504,0.102c0.504,0,0.907,0.101,1.411,0.101c0.202,0,0.302,0,0.504,0
	c0.504,0,0.907,0.101,1.411,0.101c0.101,0,0.202,0,0.302,0c1.108,0,2.016,0,3.023,0c0.101,0,0.202,0,0.303,0
	c0.302,0,0.604-0.101,0.907-0.101c0.101,0,0.303,0,0.403,0c0.302,0,0.605-0.101,0.806-0.101c0.101,0,0.202,0,0.303-0.102
	c0.302-0.101,0.705-0.101,1.008-0.201h0.101c0,0,18.848,22.879,23.484,27.717c3.729,3.932,12.498,23.081,15.823,30.338l0,0
	C340.366,376.65,340.063,381.388,337.947,382.396z M357.5,378.768c-1.41-3.125-3.124-2.822-6.35-0.908
	c-2.721,1.714-7.559,1.814-8.97,1.714c-0.202,1.512-0.907,4.636-3.023,5.544c-1.714,0.705-3.528,0.906-4.737,0.806
	c0.403,1.612,1.411,4.938,1.813,5.141c0,0-0.302,1.714,0.605,3.427c0,0.101,0.101,0.101,0.101,0.201
	c0.101,0.202,0.303,0.403,0.504,0.706c0.807,0.907,2.419,1.108,4.031,0.705c3.427-0.806,7.56-6.854,10.684-9.776
	C355.283,383.403,358.307,380.48,357.5,378.768z M220.527,369.394c2.419,0.403,2.419,3.628,2.117,5.544
	c-0.302,1.612-0.604,3.527-0.907,5.543c-1.008,7.156,0,14.211,0.706,16.429c0.302,0.807-0.101,3.326-0.907,3.729
	c0.403-0.102,0.807-0.403,1.109-0.706c2.016-2.116-0.604-4.838,0.605-9.071c1.209-4.232,6.551-10.885,6.551-10.885
	s0.907-4.939,1.008-6.451c0.101-1.41-1.008-2.62-1.008-2.62S222.745,369.797,220.527,369.394z"></path>
<path id="color_x5F_2" fill="#FBC02D" d="M330.489,283.017c4.838,2.721,10.481,5.342,14.412,5.946c0.202,0,0.504,0.101,0.706,0.101
	c2.419,0.302,5.946,0.101,9.776-0.202c6.854-0.605,14.716-1.713,18.948-2.419l0,0c0,0,0.907-1.209,1.311-3.427
	c0.403-2.117-1.512-3.528-1.512-3.628c-1.613,0.302-3.326,0.403-4.938,0.302c-2.117-0.101-3.931-0.302-4.637-0.403
	c-0.807-0.101-5.745-0.907-10.18-1.612c-3.83-0.605-7.357-1.109-7.357-1.109s-6.451-5.241-12.498-10.281
	c-4.737-3.931-9.172-7.66-9.878-8.466c-1.612-1.713-2.52-2.116-4.435-3.023s-4.636-2.721-4.736-2.822l0,0l0,0l0.101,0.101
	c0,0-5.141-2.923-7.761-3.528c-2.621-0.604-7.66,1.109-7.66,1.109l0.101-0.303c0,0-0.302,0.101-5.442,5.241
	c-5.141,5.14-24.189,56.039-24.189,56.039s-0.101,1.008,1.31,2.318l0,0c0.202,0.201,0.504,0.403,0.806,0.605
	c0.101,0,0.101,0.1,0.202,0.1c0.101,0.102,0.202,0.102,0.302,0.202c0.101,0.101,0.202,0.101,0.303,0.202
	c0.101,0.101,0.201,0.101,0.302,0.201c0.101,0.101,0.202,0.101,0.302,0.201c0.101,0,0.202,0.102,0.202,0.102
	c0.101,0.101,0.302,0.101,0.403,0.201c0.101,0,0.101,0.102,0.202,0.102c0.202,0.1,0.303,0.201,0.504,0.201h0.101
	c1.209,0.504,2.621,1.008,4.435,1.512h0.101c0.302,0.101,0.706,0.201,1.008,0.303c0.101,0,0.101,0,0.202,0
	c0.302,0.1,0.706,0.201,1.108,0.302c0.101,0,0.202,0,0.302,0.101c0.403,0.102,0.706,0.201,1.109,0.201c0.101,0,0.202,0,0.302,0.102
	c0.403,0.101,0.807,0.201,1.109,0.201c0.101,0,0.302,0.102,0.403,0.102c0.403,0.101,0.806,0.101,1.108,0.201
	c0.504,0.101,1.109,0.201,1.713,0.303c0.706,0.101,1.311,0.201,1.915,0.201c0.202,0,0.302,0,0.504,0.101
	c0.504,0,0.907,0.101,1.411,0.101c0.202,0,0.302,0,0.504,0c0.504,0,0.907,0.102,1.411,0.102c0.101,0,0.202,0,0.302,0
	c1.109,0,2.016,0,3.024,0c0.101,0,0.202,0,0.302,0c0.302,0,0.604-0.102,0.907-0.102c0.101,0,0.302,0,0.403,0
	c0.303,0,0.605-0.101,0.807-0.101c0.101,0,0.202,0,0.302-0.101c0.303-0.101,0.705-0.101,1.008-0.201
	c6.35-1.512,6.854-5.241,6.854-5.241l10.079-29.128l2.52-7.257C320.511,276.97,325.046,279.993,330.489,283.017z"></path>
<path id="color_x5F_1_1_" fill="#1F2D3E" d="M310.432,242.097c2.822-0.605,3.023-5.846,3.023-6.148s-1.512-6.148,0.605-8.668
	c2.016-2.52,4.838,0,4.838,0s-1.21-4.031-0.907-4.636c0-0.101,0.101-0.101,0.101-0.202c0,0,0,0,0.101-0.101
	c0,0,0.101-0.101,0.202-0.101c0.201-0.101,0.504-0.302,0.906-0.604l0,0c1.009-0.706,2.318-2.016,3.629-5.342
	c2.318-5.745-1.612-11.692-1.612-11.692c-1.21,2.923-1.613,4.737-10.583,6.249c-0.807,0.101-1.512,0.202-2.117,0.302
	c-1.713,0.202-3.023,0.403-4.232,0.504c-3.629,0.403-4.737,0.806-6.048,4.031c-1.814,4.636,1.311,6.249,1.311,6.249
	s-2.117,4.032-0.907,8.97c1.108,4.838,4.031,11.692,4.031,11.692S307.71,242.701,310.432,242.097z"></path>
</svg>