<?xml version="1.0" standalone="no"?>
<svg version="1.1" id="color_x5F_1" xmlns="http://www.w3.org/2000/svg" xmlns:xlink="http://www.w3.org/1999/xlink" x="0px" y="0px" width="600px" height="600px" viewBox="0 0 600 600" enable-background="new 0 0 600 600" xml:space="preserve">
<path id="color_x5F_13" fill="#6BA7D0" d="M308.719,467.059l3.931,5.241l-48.178,27.817c-5.04,2.924-11.389,2.924-16.529,0
	L76.499,401.041c-2.923-1.713-4.333-4.736-4.132-7.66v-6.449v0.1c0,0.202,0,0.504,0.101,0.706c0,0.202,0.101,0.302,0.101,0.403
	c0,0.201,0.101,0.303,0.101,0.402c0.101,0.202,0.101,0.404,0.201,0.605c0,0.101,0.101,0.201,0.101,0.303
	c0.101,0.201,0.202,0.504,0.302,0.705c0,0.101,0.101,0.101,0.101,0.201c0.101,0.202,0.302,0.504,0.504,0.706
	c0,0.101,0.101,0.101,0.101,0.202c0.202,0.201,0.403,0.402,0.605,0.604c0.101,0.102,0.101,0.102,0.101,0.202
	c0.202,0.202,0.403,0.403,0.604,0.604c0.101,0,0.101,0.102,0.202,0.201c0.303,0.202,0.605,0.404,0.907,0.605l117.722,67.932
	c0,0,0,0-0.101,0l53.922,31.145c5.039,2.923,11.389,2.923,16.529,0L308.719,467.059z M527.532,336.939v0.101
	c0,0.303-0.101,0.504-0.201,0.807c0,0.101,0,0.201-0.101,0.302c-0.102,0.202-0.102,0.403-0.202,0.706
	c0,0.101-0.101,0.202-0.101,0.302c-0.101,0.202-0.201,0.404-0.303,0.605c0,0.101-0.101,0.201-0.101,0.303
	c-0.101,0.201-0.302,0.504-0.403,0.705c0,0.101-0.101,0.101-0.101,0.201c-0.201,0.303-0.403,0.504-0.604,0.705c0,0,0,0-0.101,0.102
	c-0.504,0.504-1.109,1.008-1.814,1.411l-146.145,84.36c0.302,0.403,0.604,0.706,0.806,1.008c0.202-0.504,0.303-0.705,0.303-0.705
	l2.116,2.822c0,0,0,0.403-0.101,1.108l0,0c0.303,0.403,0.604,0.706,0.807,0.907L523.4,350.646c2.721-1.612,4.132-4.334,4.132-7.156
	v-6.954C527.633,336.637,527.532,336.838,527.532,336.939z M368.083,437.931l-3.427-3.125l-35.074,20.259
	c1.209,1.512,2.822,3.729,3.628,5.443l36.385-20.965L368.083,437.931L368.083,437.931z"></path>
<path id="color_x5F_12" fill="#FD6322" d="M422.207,360.02L422.207,360.02l-1.915,1.311l-6.753-6.551L422.207,360.02z
	 M442.063,341.576c5.745,0.201,8.77,2.922,8.77,2.922C448.715,337.947,442.063,341.576,442.063,341.576z M397.514,373.93
	c3.023,0.906,3.83-1.916,3.83-1.916C399.832,373.93,397.514,373.93,397.514,373.93z M436.217,353.268l-0.604,0.303l0,0l0,0l0,0
	c0.101-0.102,0.201-0.102,0.303-0.202l0,0C436.116,353.368,436.116,353.368,436.217,353.268
	C436.217,353.368,436.217,353.368,436.217,353.268L436.217,353.268l-3.83-0.605c0,0-7.155-2.62-9.07-7.559
	c-2.017-4.939,0-8.77,0-8.77s-2.017,3.227-1.513,7.561c0.706,5.846,5.745,8.667,4.637,12.295l-0.303,0.908l-1.713,1.209l0,0
	c-0.504,1.109,1.311,3.629,3.729,3.023c2.016-0.504,3.325-1.814,3.729-2.318c0,0,0,0-0.101-0.1
	c-0.101-0.102-0.201-0.202-0.302-0.202l-0.102-0.101c0-0.102-0.101-0.201-0.101-0.201c0-0.102,0-0.102,0-0.202s0-0.202,0-0.202
	c0-0.101,0-0.101,0-0.201s0-0.101,0-0.201c0-0.102,0.101-0.202,0.101-0.303c0,0,0-0.101,0.102-0.101
	c0.101-0.101,0.101-0.202,0.201-0.403l0.101-0.102c0.101-0.1,0.202-0.201,0.303-0.402l0.101-0.102
	c0.101-0.1,0.201-0.201,0.303-0.302c0.101-0.101,0.101-0.101,0.201-0.202c0.101-0.1,0.201-0.201,0.303-0.302
	c0.101-0.101,0.201-0.101,0.201-0.202c0.101-0.1,0.201-0.201,0.303-0.201c0.101-0.101,0.201-0.101,0.302-0.201
	c0.101-0.102,0.202-0.102,0.202-0.201c0.101-0.102,0.201-0.102,0.302-0.202c0.102,0,0.102-0.101,0.202-0.101
	c0.101-0.102,0.201-0.102,0.302-0.202c0,0,0.102,0,0.102-0.101l0,0l-1.109,0.705c5.645,1.311,10.18-3.83,10.18-3.83
	C441.559,353.57,436.217,353.268,436.217,353.268z M403.359,360.121c0,0.504,3.931-9.172-2.317-11.087c0,0,5.342-7.257,8.869-10.886
	c0.101-0.101,0.101-0.101,0.201-0.201c-3.729,3.527-6.753,7.055-9.07,9.172l-0.102,0.101c-0.302,0.303-0.604,0.504-0.907,0.706
	c-5.946,4.636-5.342,9.07-5.342,9.07l2.419-1.108l2.017-5.846C405.577,353.065,403.359,359.818,403.359,360.121z M411.322,364.656
	c-0.706-1.713-3.528-3.225-3.528-3.225s1.411,0.906,2.017,3.225c0.705,2.318-1.21,6.652-1.21,6.652s2.016-0.907,4.435-2.016
	C410.919,369.191,412.027,366.37,411.322,364.656z M403.058,370.1c2.923-1.21,1.612-3.932,1.612-3.932
	C404.871,368.588,403.058,370.1,403.058,370.1z M183.84,187.065l-60.373,34.873l-30.136,17.437v44.75l7.458,4.334v-44.75
	l30.136-17.437l60.373-34.873L183.84,187.065z M115.605,279.792l1.311,1.411l7.458,4.334l-6.451-7.156L115.605,279.792z
	 M204.704,250.966l13.304,0.605v0.504c0,0.101,0,0.202,0,0.302c0,0,0,0,0,0.101c0,0.101,0,0.101-0.101,0.202l0,0l-14.11-0.706
	l-13.606,16.228c0,0.101,0.101,0.201,0.202,0.201l0,0l-1.008-0.604l-0.101-0.101l-0.101-0.101l-0.101-0.101l-0.101-0.101v-0.101
	v-0.101v-0.101v-0.101v-15.824v-0.101v-0.101l0,0v-0.101v-0.101v-0.101v-0.101v-0.101v-0.101v-0.101l0.101-0.101v-0.101h0.101
	v-0.101h0.101h0.101l26.508-15.32h0.101l0.101-0.101h0.101h0.101h0.101h0.101h0.101l1.008,0.605l0,0
	c-0.202-0.101-0.403-0.101-0.604,0.101l-25.5,15.018l11.893,0.605l12.196-14.514l1.512-0.907c0.302-0.101,0.504-0.101,0.706,0
	L204.704,250.966z M202.587,251.873l-12.296-0.605c0.101-0.201,0.202-0.403,0.403-0.504c-0.302,0.101-0.504,0.605-0.504,0.907
	v14.917L202.587,251.873z M169.326,262.355l-13.606,16.227c0,0.101,0.101,0.101,0.101,0.101s0,0.101,0.101,0.101l-1.008-0.604
	l-0.101-0.101l-0.101-0.101l-0.101-0.101l-0.101-0.101v-0.101v-0.101v-0.101v-0.101v-15.924v-0.101v-0.101v-0.101v-0.101v-0.101
	v-0.101v-0.101v-0.101v-0.101v-0.101l0.101-0.101v-0.101l0.101-0.101h0.101v-0.101h0.101l26.508-15.32l0.101-0.101h0.101h0.101
	h0.101h0.101h0.101h0.101l1.008,0.604c-0.101,0-0.101,0-0.202,0c0.101,0,0.202,0,0.202,0l0,0l0,0l-13.002,15.521l13.405,0.605v0.504
	c0,0.101,0,0.302-0.101,0.504l0,0H169.326z M182.631,245.926c0.101-0.101,0.201-0.101,0.302-0.101l0,0l0,0
	C182.832,245.826,182.731,245.826,182.631,245.926z M155.72,278.481L155.72,278.481v-0.101
	C155.619,278.381,155.619,278.481,155.72,278.481L155.72,278.481z M168.016,262.254l-12.296-0.605
	c-0.101,0.101-0.101,0.303-0.101,0.504v15.018L168.016,262.254z M168.923,261.247l12.195-14.514l-24.996,14.413l0.907-0.504
	L168.923,261.247z M198.051,278.179l13.304,0.604v0.504c0,0.101,0,0.202,0,0.303c0,0,0,0,0,0.101s0,0.101-0.101,0.202l0,0
	l-14.11-0.706l-13.607,16.227l0,0c0,0,0,0.101,0.101,0.101l0.101,0.101l-1.008-0.605l-0.101-0.101l-0.101-0.101l-0.101-0.101
	l-0.101-0.101v-0.101v-0.101v-0.101v0v-15.925v-0.101v-0.101l0,0v-0.101v-0.101v-0.101v-0.101v-0.101v-0.101v-0.101l0.101-0.101l0,0
	l0.101-0.101v-0.101h0.101h0.101l26.508-15.32l0.101-0.101h0.101h0.101h0.101h0.101h0.101h0.101l1.008,0.604c0,0,0,0-0.101,0h-0.101
	l0,0c0.101,0,0.101,0,0.202,0l0,0l0,0L198.051,278.179z M210.449,262.758c0.101-0.101,0.201-0.101,0.302-0.101l0,0
	C210.65,262.658,210.549,262.658,210.449,262.758z M183.538,295.414v-0.101C183.538,295.313,183.538,295.313,183.538,295.414
	C183.538,295.313,183.538,295.313,183.538,295.414C183.538,295.313,183.538,295.313,183.538,295.414z M195.935,279.086
	l-12.296-0.604c0.101-0.202,0.201-0.403,0.403-0.504c-0.302,0.101-0.504,0.604-0.504,0.907v14.917L195.935,279.086z
	 M208.937,263.666l-24.088,13.909l11.893,0.605L208.937,263.666z"></path>
<path id="color_x5F_11" fill="#F6FBFF" d="M180.615,360.02l-0.604,0.807l-0.605,0.807l4.233-25.902c1.209-0.202,2.419-0.202,3.527,0
	l0.101,0.201l0.201,0.604l0.202,0.604l0.101,0.605l0.101,0.705l0.101,0.705v0.706v0.706l-0.101,0.806l-0.101,0.807l-0.101,0.806
	l-0.101,0.807l-0.101,0.807l-0.201,0.906l-0.202,0.908l-0.202,0.906l-0.302,0.907l-0.303,0.907l-0.302,0.907l-0.403,0.907
	l-0.403,0.906l-0.403,0.908l-0.403,0.906l-0.504,0.908l-0.504,0.906l-0.504,0.907l-0.504,0.907l-0.604,0.907l-0.605,0.907
	L180.615,360.02z M303.578,378.969c-3.226-0.403-5.342-2.621-6.753-5.241c-1.915-3.528-2.419-7.66-2.52-8.87
	c0-0.201-0.101-0.302-0.101-0.302l0.302-0.202l6.552-3.729c0,0-9.071,3.225-11.894,4.838c0,0,1.209,10.684,1.512,10.986
	c0.202,0.302,10.382,9.172,10.382,9.172l2.721-6.552v-0.101C303.679,378.969,303.679,378.969,303.578,378.969z M290.476,452.344
	c-0.101-0.102-0.101-0.102-0.202-0.102c-0.101,0-0.101-0.101-0.202-0.101c-1.915-1.008-4.737-0.907-6.551,0.101
	c-0.907,0.504-1.411,1.21-1.411,1.915v0.102c0.101,1.813,2.52,3.124,4.838,3.124s4.636-1.209,4.737-3.023
	C291.786,453.553,291.282,452.848,290.476,452.344z M269.813,325.65c9.877,19.654-43.743,14.414-53.015,28.726
	c-9.273,14.212,24.895,23.686,26.306,42.533s-58.559,11.792-64.909,31.446c-6.148,18.948,14.514,32.253,16.025,33.16h0.101
	L76.499,393.583c-0.302-0.202-0.604-0.403-0.907-0.604c-0.101,0-0.101-0.102-0.202-0.201c-0.202-0.202-0.403-0.404-0.605-0.605
	c-0.101-0.101-0.101-0.101-0.101-0.201c-0.202-0.201-0.403-0.403-0.605-0.605c0-0.101-0.101-0.101-0.101-0.201
	c-0.202-0.201-0.302-0.504-0.504-0.705c0-0.102-0.101-0.102-0.101-0.202c-0.101-0.202-0.202-0.504-0.303-0.706
	c0-0.1-0.101-0.201-0.101-0.302c-0.101-0.202-0.101-0.403-0.202-0.604c0-0.102-0.101-0.303-0.101-0.403s-0.101-0.302-0.101-0.403
	c0-0.201-0.101-0.504-0.101-0.705c-0.202-3.023,1.108-6.048,4.031-7.762l36.285-20.964l2.62,16.126
	c0,10.986,13.809,19.855,30.942,19.855c15.824,0,28.826-7.559,30.741-17.436c4.535-3.428,9.071-8.668,12.699-15.018
	c7.962-13.708,9.172-27.919,3.225-32.757l0.504,0.504l-3.427-3.427l-0.504-0.504l-0.806-0.303l-0.806-0.201l-0.807-0.202
	l-0.907-0.101h-0.807c-0.101,0.201-0.101,0.504-0.202,0.705l0,0c-0.504,1.412-1.108,2.822-2.016,4.133l0,0
	c-0.202,0.303-0.403,0.605-0.604,0.907c0,0,0,0.101-0.101,0.101c-0.202,0.303-0.403,0.605-0.706,0.907c0,0,0,0.101-0.101,0.101
	c-1.209,1.512-2.722,3.023-4.334,4.334c-0.101,0-0.101,0.102-0.202,0.102c-0.302,0.201-0.605,0.402-0.806,0.604
	c-0.101,0.102-0.202,0.102-0.303,0.202c-0.302,0.202-0.604,0.403-0.806,0.604c-0.101,0.102-0.202,0.202-0.403,0.202
	c-0.302,0.201-0.604,0.403-0.907,0.604c-0.101,0.101-0.303,0.201-0.403,0.201c-0.302,0.202-0.604,0.404-0.907,0.504
	c-0.101,0.102-0.202,0.102-0.302,0.202c-1.008,0.604-2.117,1.108-3.225,1.612c-0.202,0.102-0.303,0.201-0.504,0.201
	c-0.303,0.102-0.605,0.202-0.907,0.404c-0.101,0-0.202,0.101-0.202,0.101c-0.101,0.101-0.302,0.101-0.403,0.201
	c-0.302,0.101-0.604,0.202-0.806,0.303s-0.504,0.201-0.706,0.302c-0.302,0.102-0.504,0.202-0.806,0.303
	c-0.303,0.101-0.504,0.201-0.807,0.303c-0.302,0.101-0.504,0.201-0.806,0.302s-0.604,0.202-0.907,0.303
	c-0.302,0.101-0.504,0.101-0.806,0.202c-0.302,0.1-0.706,0.201-1.109,0.302l0,0c-0.201,0-0.403,0.101-0.604,0.101
	c-0.605,0.102-1.109,0.201-1.713,0.403c-0.202,0-0.403,0.101-0.605,0.101c-0.403,0.102-0.706,0.102-1.108,0.201
	c-0.202,0-0.504,0.102-0.706,0.102c-0.403,0.101-0.706,0.101-1.109,0.201c-0.302,0-0.504,0.102-0.806,0.102
	c-0.403,0-0.706,0.1-1.109,0.1c-0.302,0-0.504,0.102-0.806,0.102c-0.403,0-0.806,0.101-1.109,0.101c-0.202,0-0.504,0-0.706,0.101
	c-0.403,0-0.806,0-1.31,0.102c-0.202,0-0.403,0-0.605,0c-0.604,0-1.31,0-1.915,0c-0.605,0-1.311,0-1.915,0c-0.202,0-0.403,0-0.605,0
	c-0.403,0-0.806,0-1.31-0.102c-0.202,0-0.504,0-0.706-0.101c-0.403,0-0.807-0.101-1.109-0.101s-0.504,0-0.806-0.102
	c-0.403,0-0.706-0.1-1.109-0.1c-0.302,0-0.504-0.102-0.806-0.102c-0.403,0-0.706-0.101-1.109-0.201
	c-0.202,0-0.504-0.102-0.706-0.102c-0.101,0-0.101,0-0.201,0l0,0c-0.303-0.1-0.605-0.1-0.907-0.201
	c-0.202,0-0.504-0.101-0.706-0.101c-0.605-0.101-1.109-0.202-1.713-0.403c-0.202-0.101-0.504-0.101-0.706-0.201
	c-0.302-0.102-0.706-0.202-1.008-0.303c-0.303-0.101-0.504-0.201-0.807-0.201c-0.302-0.102-0.504-0.202-0.806-0.202
	c-0.302-0.101-0.604-0.201-0.907-0.302c-0.202-0.102-0.504-0.202-0.706-0.202c-0.302-0.101-0.604-0.201-0.907-0.302
	c-0.202-0.102-0.403-0.202-0.605-0.202c-0.302-0.101-0.604-0.202-0.907-0.302c-0.201-0.102-0.403-0.102-0.504-0.202
	c-0.302-0.101-0.604-0.302-1.008-0.403c-0.101,0-0.202-0.101-0.302-0.101c-1.209-0.604-2.419-1.21-3.628-1.813h-0.101
	c-0.403-0.202-0.705-0.404-1.108-0.605c-0.101,0-0.101-0.101-0.202-0.101c-0.302-0.202-0.706-0.403-1.008-0.604
	c-0.101,0-0.101-0.102-0.202-0.102c-0.302-0.201-0.706-0.504-1.008-0.705l-0.101-0.102c-4.333-3.225-7.458-7.055-8.869-11.389l0,0
	c-0.605-1.713-0.907-3.527-0.907-5.342c0-14.11,17.84-25.5,39.812-25.5c19.855,0,36.284,9.273,39.308,21.468l0,0l9.374-5.443
	C211.457,324.744,260.642,307.207,269.813,325.65z M179.909,320.309c0-10.582-15.118-19.25-33.563-19.25
	c-18.444,0-33.563,8.668-33.563,19.25c0,0.504,0,1.008,0.101,1.412v0.1c1.209,8.668,12.195,15.623,26.709,17.336h0.101
	c0.504,0.102,1.008,0.102,1.411,0.102c0.101,0,0.101,0,0.202,0c0.403,0,0.907,0.101,1.31,0.101c0.101,0,0.202,0,0.302,0
	c0.403,0,0.907,0,1.311,0.101c0.101,0,0.202,0,0.403,0c0.605,0,1.109,0,1.713,0c0.605,0,1.109,0,1.713,0c0.101,0,0.303,0,0.403,0
	c0.403,0,0.806,0,1.209-0.101c0.101,0,0.302,0,0.403,0c0.403,0,0.806-0.101,1.209-0.101c0.101,0,0.302,0,0.403,0
	c0.403,0,0.807-0.102,1.311-0.102c0.101,0,0.202,0,0.302,0c0.403-0.1,0.907-0.1,1.311-0.201c0.101,0,0.101,0,0.201,0
	c0.504-0.101,0.907-0.101,1.411-0.201h0.101c0.504-0.102,1.008-0.202,1.411-0.303l0,0c8.265-1.713,14.917-5.241,18.747-9.776
	c0,0,0-0.101,0.101-0.101c0.202-0.202,0.403-0.504,0.605-0.706c0.101-0.101,0.101-0.202,0.202-0.302
	c0.101-0.202,0.202-0.303,0.403-0.504c0.101-0.202,0.202-0.303,0.303-0.504c0.101-0.102,0.101-0.202,0.202-0.404
	c0.101-0.201,0.201-0.402,0.302-0.604c0-0.102,0.101-0.202,0.101-0.303c0.101-0.201,0.202-0.504,0.302-0.706
	c0-0.101,0-0.101,0.101-0.201c0.101-0.303,0.202-0.504,0.302-0.807v-0.101c0.101-0.303,0.202-0.605,0.202-0.907l0,0
	C179.809,321.922,179.909,321.115,179.909,320.309z M369.494,352.26c-0.101-0.102-0.201-0.102-0.302-0.202
	c-2.621-1.31-6.552-1.21-8.971,0.101c-1.311,0.706-1.915,1.714-1.915,2.722v0.101c0.101,2.419,3.427,4.233,6.652,4.233
	s6.35-1.714,6.551-4.132c0-0.908-0.504-1.916-1.612-2.621C369.696,352.36,369.595,352.26,369.494,352.26z M260.743,291.685
	c3.225,0,6.35-1.713,6.45-4.132l0,0c0-0.907-0.504-1.814-1.612-2.621c-0.101-0.101-0.202-0.101-0.303-0.202
	c-0.101-0.101-0.201-0.101-0.302-0.202c-2.621-1.31-6.551-1.31-8.97,0.101c-1.31,0.706-1.915,1.713-1.915,2.722v0.101
	C254.292,289.871,257.517,291.685,260.743,291.685z M234.94,449.823c-0.101-0.101-0.302-0.201-0.403-0.302
	c-0.202-0.101-0.302-0.202-0.504-0.303c-4.132-2.116-10.482-2.016-14.413,0.202c-2.016,1.209-3.125,2.721-3.024,4.334
	c0,0.101,0,0.101,0,0.101c0.202,3.931,5.443,6.753,10.684,6.753c5.141,0,10.281-2.722,10.482-6.652
	C237.763,452.545,236.855,451.033,234.94,449.823z M259.432,356.392c-0.101-0.101-0.101-0.101-0.202-0.101
	c-0.101-0.102-0.201-0.102-0.201-0.102c-1.915-0.906-4.737-0.906-6.552,0.102c-0.907,0.504-1.411,1.209-1.411,1.915v0.101
	c0.101,1.814,2.419,3.023,4.838,3.023c2.318,0,4.636-1.209,4.737-3.023C260.743,357.602,260.339,356.896,259.432,356.392z
	 M369.394,417.672c0-0.303,0-0.504,0-0.504l-0.705-4.536c0,0-0.403,0.807-1.109,1.814c-0.907,1.311-2.419,2.923-4.535,3.326
	c-2.318,0.504-4.737,0-6.249-0.504c-0.907-0.303-1.512-0.504-1.512-0.504l3.023,5.946c0,0,0.303,0.202,1.311,0.303
	c0.907,0.101,2.419,0.101,4.838-0.303c2.923-0.504,4.132-2.419,4.535-3.83C369.293,418.479,369.394,417.975,369.394,417.672z
	 M378.263,428.557c-0.705,1.714-2.62,6.148-3.83,6.955c-1.512,1.108-6.047,2.318-6.248,2.419l0,0l1.41,1.612l1.21,1.311
	c0,0,0.303,0,0.907-0.101c1.108-0.202,3.023-0.706,5.241-2.521c2.52-1.915,3.225-4.838,3.527-6.45
	c0.101-0.705,0.101-1.108,0.101-1.108l-2.116-2.822C378.565,427.751,378.364,428.053,378.263,428.557z M356.795,254.09
	c0.201-0.101,0.403-0.101,0.604-0.202c0.403-0.201,0.807-0.302,1.109-0.504c0.402-0.101,0.806-0.302,1.108-0.504
	c0.302-0.202,0.705-0.302,1.108-0.504c0.303-0.202,0.706-0.403,1.008-0.604c0.202-0.101,0.303-0.202,0.504-0.303
	c0.202-0.101,0.303-0.202,0.504-0.302c0.102-0.101,0.303-0.202,0.504-0.302c0.102-0.101,0.303-0.202,0.504-0.303
	c0.102-0.101,0.303-0.201,0.403-0.302l0,0c0.101-0.101,0.303-0.202,0.403-0.302s0.303-0.202,0.403-0.302
	c0.101-0.101,0.303-0.202,0.403-0.302c0.302-0.202,0.504-0.403,0.705-0.706c0.202-0.202,0.403-0.403,0.706-0.706
	c0.201-0.202,0.402-0.504,0.604-0.706c0.201-0.302,0.403-0.504,0.504-0.706c0.101-0.101,0.201-0.202,0.201-0.302
	c0.102-0.101,0.202-0.303,0.303-0.403c0.101-0.202,0.303-0.504,0.403-0.706s0.302-0.504,0.403-0.706
	c0.101-0.302,0.201-0.504,0.302-0.706c0.101-0.302,0.202-0.504,0.303-0.706c0-0.101,0.101-0.302,0.101-0.403
	c0-0.101,0.101-0.303,0.101-0.403c0.102-0.302,0.102-0.504,0.102-0.806c0-0.202,0.101-0.504,0.101-0.706c0-0.202,0-0.403,0-0.504
	c-0.101-3.83-2.52-7.66-7.156-10.785c-0.403-0.302-0.807-0.504-1.21-0.706c-0.402-0.202-0.906-0.504-1.31-0.706
	c-1.915-1.008-4.032-1.814-6.249-2.419c-0.101,1.713-0.101,3.427-0.202,4.939c0.504,0.201,1.109,0.504,1.613,0.705
	c0.302,0.202,0.705,0.303,1.008,0.504c0.302,0.201,0.604,0.302,0.907,0.504c7.257,4.737,7.055,11.893-0.706,16.429
	c-8.063,4.636-21.267,4.636-29.431-0.101c-8.164-4.737-8.164-12.296-0.101-16.933c1.814-1.008,3.83-1.814,6.048-2.419
	c0.402-1.612,0.806-3.225,1.108-4.838c-4.536,0.706-8.869,2.117-12.498,4.132c-5.442,3.125-8.164,7.358-8.164,11.49
	c0,0.302,0,0.504,0,0.806c0,0.101,0,0.302,0.101,0.403c0,0.101,0,0.302,0.102,0.403c0,0.303,0.101,0.504,0.201,0.807
	s0.101,0.504,0.201,0.806c0,0.101,0.102,0.302,0.102,0.403c0,0.101,0.101,0.302,0.101,0.403c0.101,0.303,0.201,0.504,0.403,0.706
	c0.101,0.303,0.302,0.504,0.403,0.807c0.101,0.302,0.302,0.504,0.504,0.706c0.201,0.201,0.302,0.504,0.504,0.706
	c0.201,0.302,0.402,0.504,0.604,0.705c0.101,0.101,0.201,0.202,0.302,0.303c0.102,0.101,0.202,0.201,0.303,0.302
	c0.101,0.101,0.202,0.202,0.403,0.302c0.101,0.101,0.303,0.202,0.403,0.302c0.302,0.202,0.504,0.504,0.806,0.706
	c0.102,0.101,0.303,0.202,0.403,0.303c0.101,0.101,0.303,0.201,0.403,0.302c0.201,0.101,0.303,0.202,0.504,0.302l0,0
	c0.101,0.101,0.303,0.202,0.504,0.302c0.303,0.202,0.706,0.403,1.008,0.605c0.303,0.202,0.706,0.403,1.008,0.604
	c0.202,0.101,0.303,0.202,0.504,0.303c0.202,0.101,0.403,0.201,0.504,0.302c0.403,0.202,0.706,0.302,1.109,0.504
	c0.402,0.202,0.806,0.302,1.108,0.504c0.403,0.101,0.807,0.302,1.21,0.403c0.402,0.101,0.806,0.302,1.209,0.403
	c0.201,0.101,0.403,0.101,0.604,0.202l0,0c0.202,0.101,0.403,0.101,0.605,0.202c0.201,0.101,0.402,0.101,0.604,0.202l0,0
	c0.201,0.101,0.403,0.101,0.604,0.202c0.403,0.101,0.907,0.202,1.311,0.302s0.907,0.202,1.31,0.302
	c0.504,0.101,0.907,0.101,1.311,0.202c0.403,0.101,0.907,0.101,1.311,0.202c0.504,0.101,0.907,0.101,1.311,0.101
	c0.504,0,0.906,0.101,1.31,0.101c0.504,0,0.907,0.101,1.411,0.101c0.202,0,0.504,0,0.706,0c0.201,0,0.402,0,0.705,0s0.504,0,0.706,0
	c0.201,0,0.504,0,0.705,0s0.403,0,0.705,0c0.202,0,0.505,0,0.706,0c0.504,0,0.907-0.101,1.311-0.101c0.504,0,0.907-0.101,1.31-0.101
	c0.504,0,0.907-0.101,1.311-0.101c0.201,0,0.403-0.101,0.706-0.101c0.201,0,0.402-0.101,0.705-0.101
	c0.403-0.101,0.907-0.202,1.311-0.302c0.403-0.101,0.907-0.202,1.31-0.303c0.202-0.101,0.403-0.101,0.605-0.201
	c0.201-0.101,0.402-0.101,0.604-0.101c0.403-0.101,0.807-0.202,1.209-0.403c0.403-0.101,0.807-0.303,1.21-0.403
	C356.392,254.292,356.594,254.191,356.795,254.09z M410.818,270.721c-0.101-0.101-0.202-0.101-0.303-0.202
	c-0.101-0.101-0.201-0.101-0.303-0.101c-2.62-1.311-6.551-1.311-8.97,0.101c-1.311,0.706-1.915,1.713-1.915,2.621v0.101
	c0.101,2.419,3.427,4.233,6.652,4.233c3.225,0,6.35-1.713,6.551-4.132C412.531,272.434,412.027,271.426,410.818,270.721z
	 M475.021,321.519c-0.102-0.101-0.303-0.101-0.403-0.202c-0.102-0.1-0.303-0.201-0.504-0.302c-3.83-1.915-9.676-1.915-13.305,0.202
	c-1.915,1.107-2.822,2.52-2.822,3.93v0.102c0.202,3.628,5.04,6.248,9.777,6.248c4.736,0,9.474-2.62,9.574-6.147
	C477.541,324.038,476.734,322.627,475.021,321.519z M328.171,453.452l1.915-1.714l-4.133-5.442l-0.907,0.907l-8.97,8.971
	l-1.714,1.713l4.838,3.729l1.714-1.613c0.101-0.504,0.302-0.906,0.302-0.906l6.652-6.148
	C327.868,453.049,327.969,453.25,328.171,453.452z M335.729,478.246c-1.108,2.117-3.527,6.35-4.938,7.257
	c-1.411,0.807-5.14,1.613-6.753,1.915c-0.504,0.101-0.806,0.101-0.806,0.101l2.821,3.629c0,0,0.403,0.101,1.109,0
	c1.31-0.101,3.527-0.504,6.249-2.318c2.62-1.713,3.931-4.334,4.535-6.148c0.403-1.31,0.504-2.217,0.504-2.217l-2.116-3.528
	C336.436,476.936,336.133,477.44,335.729,478.246z M336.436,284.428c-0.303-0.605-1.108-0.706-1.714-0.403l-5.745,3.729
	l-5.744-3.729c-0.605-0.403-1.311-0.202-1.714,0.403c-0.403,0.604-0.201,1.31,0.403,1.713l4.737,3.023l-4.737,3.125
	c-0.604,0.403-0.706,1.109-0.403,1.713c0.403,0.605,1.108,0.706,1.714,0.303l5.744-3.729l5.745,3.729
	c0.605,0.403,1.311,0.201,1.714-0.303c0.403-0.604,0.201-1.31-0.403-1.713l-4.737-3.125l4.737-3.023
	C336.637,285.738,336.738,285.033,336.436,284.428z M349.941,289.568c0,0.101,0,0.202,0,0.302
	c-0.403,7.761-10.684,13.304-20.863,13.304c-10.079,0-20.158-5.442-20.461-13.103c0-0.202,0-0.302,0-0.504
	c0.102-2.822,1.814-5.543,5.241-7.862c0.303-0.202,0.604-0.302,0.907-0.504s0.706-0.403,1.008-0.504
	c8.164-4.132,20.562-4.032,28.322,0.504C347.926,283.521,349.941,286.544,349.941,289.568z M339.963,283.42
	c-5.645-3.326-14.816-3.427-20.863-0.302c-0.303,0.101-0.504,0.302-0.705,0.403c-0.202,0.101-0.403,0.202-0.605,0.403
	c-5.342,3.427-5.14,8.769,0.504,12.095c5.947,3.427,15.521,3.427,21.569-0.101C345.91,292.391,345.91,286.847,339.963,283.42z"></path>
<path id="color_x5F_10" fill="#B8C8BF" d="M369.998,240.786L369.998,240.786v4.334l-0.101,0.806l-0.101,0.706l-0.202,0.706
	l-0.302,0.706l-0.303,0.706l-0.403,0.706l-0.402,0.706l-0.504,0.706l-0.505,0.706l-0.604,0.706l-0.705,0.705l-0.706,0.706
	l-0.806,0.605l-0.807,0.604l-0.907,0.605l-1.008,0.604l-1.008,0.605l-1.108,0.504l-1.109,0.504l-1.108,0.504l-1.209,0.403
	l-1.21,0.403l-1.21,0.302l-1.209,0.302l-1.311,0.302l-1.31,0.202l-1.311,0.202l-1.311,0.202l-1.31,0.101l-1.311,0.101h-1.311h-1.411
	h-1.311l-1.41-0.101l-1.311-0.101l-1.311-0.101l-1.311-0.202l-1.31-0.201l-1.311-0.303l-1.311-0.302l-1.31-0.302l-1.21-0.403
	l-1.209-0.403l-1.21-0.504l-1.108-0.504l-1.108-0.504l-1.109-0.504l-1.008-0.604l-1.008-0.605l-0.907-0.604l-0.907-0.706
	l-0.806-0.706l-0.706-0.706l-0.705-0.706l-0.605-0.706l-0.504-0.706l-0.504-0.706l-0.402-0.705l-0.403-0.807l-0.303-0.806
	l-0.201-0.806l-0.202-0.807l-0.101-0.806v-0.807v-2.116v-1.915c0-0.101,0-0.302,0-0.403c0,0.302,0,0.504,0,0.806
	c0,0.101,0,0.303,0.101,0.403c0,0.101,0,0.302,0.101,0.403c0,0.302,0.102,0.504,0.202,0.806s0.101,0.504,0.201,0.806
	c0.102,0.303,0.202,0.504,0.303,0.807c0.101,0.302,0.201,0.504,0.403,0.706c0.101,0.302,0.302,0.504,0.403,0.806
	c0.101,0.302,0.302,0.504,0.504,0.706c0.201,0.202,0.302,0.504,0.504,0.706c0.201,0.302,0.403,0.504,0.604,0.706
	s0.504,0.504,0.705,0.706c0.202,0.201,0.504,0.504,0.706,0.706c0.302,0.201,0.504,0.504,0.807,0.706
	c0.302,0.201,0.604,0.403,0.906,0.705c0.202,0.101,0.303,0.202,0.504,0.303c0.202,0.101,0.303,0.201,0.505,0.302
	c0.302,0.202,0.705,0.403,1.008,0.604c0.302,0.202,0.705,0.403,1.008,0.605c0.302,0.202,0.705,0.403,1.108,0.504
	c0.403,0.202,0.705,0.302,1.108,0.504s0.807,0.302,1.109,0.504c0.402,0.101,0.806,0.303,1.209,0.403s0.807,0.302,1.21,0.403
	c0.201,0.101,0.402,0.101,0.604,0.201c0.201,0.101,0.403,0.101,0.604,0.202c0.202,0.101,0.403,0.101,0.604,0.202
	c0.202,0.101,0.403,0.101,0.605,0.202c0.402,0.101,0.906,0.202,1.31,0.302s0.907,0.202,1.311,0.302
	c0.504,0.101,0.907,0.101,1.311,0.202c0.403,0.101,0.907,0.101,1.31,0.202c0.504,0.101,0.907,0.101,1.311,0.101
	c0.504,0,0.907,0.101,1.311,0.101c0.504,0,0.907,0.101,1.411,0.101c0.201,0,0.504,0,0.705,0c0.202,0,0.403,0,0.706,0
	c0.302,0,0.504,0,0.705,0c0.202,0,0.504,0,0.706,0c0.504,0,0.907,0,1.31-0.101c0.504,0,0.907-0.101,1.311-0.101
	c0.504,0,0.907-0.101,1.311-0.101c0.504,0,0.907-0.101,1.31-0.101c0.403-0.101,0.907-0.101,1.311-0.202
	c0.403-0.101,0.907-0.202,1.311-0.303c0.403-0.101,0.907-0.201,1.31-0.302c0.403-0.101,0.907-0.202,1.21-0.302
	c0.403-0.101,0.807-0.202,1.21-0.403c0.402-0.101,0.806-0.302,1.209-0.403c0.403-0.101,0.807-0.303,1.21-0.403
	c0.402-0.202,0.806-0.302,1.108-0.504c0.403-0.101,0.807-0.302,1.108-0.504c0.303-0.202,0.706-0.302,1.108-0.504
	c0.303-0.202,0.706-0.403,1.009-0.605c0.201-0.101,0.302-0.202,0.504-0.302c0.201-0.101,0.302-0.202,0.504-0.302
	c0.201-0.101,0.302-0.202,0.504-0.303c0.101-0.101,0.302-0.201,0.504-0.302c0.101-0.101,0.302-0.202,0.403-0.302
	c0.101-0.101,0.302-0.202,0.402-0.302c0.303-0.202,0.504-0.403,0.807-0.706c0.303-0.202,0.504-0.403,0.705-0.706
	c0.202-0.202,0.403-0.403,0.706-0.706c0.201-0.202,0.403-0.504,0.604-0.706c0.202-0.302,0.403-0.504,0.504-0.706
	c0.202-0.202,0.303-0.504,0.504-0.706c0.102-0.202,0.303-0.504,0.403-0.706c0.101-0.201,0.303-0.504,0.403-0.706
	c0.101-0.302,0.201-0.504,0.303-0.706c0.101-0.302,0.201-0.504,0.302-0.705c0.101-0.303,0.101-0.504,0.202-0.706
	c0.101-0.303,0.101-0.504,0.101-0.807C369.998,241.29,369.998,240.988,369.998,240.786z M328.977,303.175
	c-10.078,0-20.157-5.442-20.46-13.103v2.621c0,0.302,0,0.604,0,0.806l0,0c0.303,7.66,10.382,13.103,20.46,13.103
	c10.18,0,20.562-5.543,20.864-13.304l0,0v-0.302v-3.427c0,0.101,0,0.202,0,0.302C349.538,297.631,339.258,303.175,328.977,303.175z"></path>
<path id="color_x5F_9" fill="#FFFFFF" d="M129.615,241.189c0.101,0.907,0.907,1.612,1.814,1.512l10.482-0.907l-11.893,12.8
	c-0.605,0.706-0.605,1.713,0.101,2.318c0.706,0.604,1.713,0.604,2.318-0.101l14.312-15.42l14.11-1.209
	c0.907-0.101,1.613-0.907,1.512-1.814c-0.101-0.907-0.907-1.613-1.814-1.512l-10.381,1.008l11.792-12.599
	c0.605-0.706,0.605-1.713-0.101-2.318c-0.706-0.604-1.714-0.604-2.318,0.101l-14.312,15.32l-14.111,1.209
	C130.22,239.476,129.515,240.282,129.615,241.189z"></path>
<path id="colot_x5F_8" fill="#11E6B3" d="M368.99,202.688c-5.846,0-11.188-2.217-15.219-5.846c-0.101-1.612-0.303-3.326-0.403-4.938
	l16.529-10.482l-1.713-3.628l-15.623,7.458c-0.302-2.217-0.705-4.334-1.108-6.35c-3.125,0.806-6.45,1.209-9.877,1.209
	c-0.807,0-1.714,0-2.521-0.101c0,4.233-0.201,8.769-0.504,13.505l-19.149-7.357l-1.411,2.52l19.855,11.49
	c-4.133,6.249-11.188,10.28-19.15,10.28c-12.699,0-22.98-10.28-22.98-22.98c0-9.776,6.149-18.243,14.816-21.468
	c-6.35-7.257-10.179-16.731-10.179-27.113c0-22.778,18.545-41.323,41.223-41.323c22.778,0,41.223,18.545,41.223,41.323
	c0,7.056-1.814,13.708-4.938,19.453c8.365,3.427,14.211,11.691,14.211,21.267C391.971,192.407,381.589,202.688,368.99,202.688z
	 M368.789,211.859c-5.342-1.713-5.745,4.233-5.745,4.233c1.915-0.605,4.031,1.108,7.257,0.604s6.45-5.442,6.45-5.442
	S374.131,213.472,368.789,211.859z M385.822,267.395c-1.512-7.761-9.071-4.233-9.071-4.233c2.016,2.016,1.411,5.745,4.133,9.373
	c2.822,3.628,11.087,4.334,11.087,4.334S387.334,275.055,385.822,267.395z M302.771,224.559c4.233-2.822,0.201-6.451,0.201-6.451
	c-0.705,1.713-3.023,2.217-4.535,4.838c-1.411,2.621,0.201,7.66,0.201,7.66S298.539,227.381,302.771,224.559z M303.578,262.254
	c-7.559-2.419-8.063,5.947-8.063,5.947c2.722-0.807,5.645,1.512,10.181,0.806c4.535-0.706,9.07-7.66,9.07-7.66
	S311.138,264.572,303.578,262.254z"></path>
<path id="color_x5F_7" fill="#227870" d="M356.492,248.749c-8.063,4.636-21.267,4.636-29.43-0.101
	c-8.164-4.737-8.164-12.296-0.102-16.933c1.814-1.008,3.83-1.814,6.048-2.419c0.403-1.612,0.806-3.225,1.108-4.838
	c1.814-8.265,3.023-16.428,3.729-24.189l-0.101-0.101l-19.855-11.49l1.41-2.52l19.15,7.357c0.303-4.838,0.403-9.373,0.504-13.505
	c0.807,0.101,1.714,0.101,2.52,0.101c3.427,0,6.753-0.403,9.878-1.209c0.403,2.117,0.806,4.233,1.108,6.35l15.622-7.458l1.714,3.628
	l-16.529,10.482c0.201,1.613,0.302,3.326,0.403,4.938c0.806,10.381,0.705,20.763,0.302,28.725c-0.101,1.713-0.101,3.427-0.201,4.939
	c0.504,0.201,1.108,0.504,1.612,0.705c0.303,0.202,0.706,0.303,1.008,0.504c0.303,0.201,0.604,0.302,0.907,0.504
	C364.556,237.057,364.253,244.213,356.492,248.749z"></path>
<path id="color_x5F_6" fill="#1F2D3E" d="M192.911,329.078c-0.504-0.202-1.109-0.403-1.613-0.504l0,0h-0.101
	c-0.403-0.102-0.907-0.202-1.311-0.202h-0.302h-0.907h-0.101c-1.209,0-2.52,0.202-3.931,0.604l0.504-3.225
	c0.101-0.201,0.101-0.504,0.202-0.705h0.806l0.907,0.1l0.806,0.202l0.806,0.202l0.807,0.302L192.911,329.078z M191.198,342.482
	v-0.101c0-0.403-0.101-0.806-0.101-1.21l0,0c-0.302-2.217-1.209-3.93-2.52-5.039c-0.403-0.201-0.907-0.303-1.31-0.402l0.101,0.201
	l0.202,0.604l0.202,0.604l0.101,0.605l0.101,0.705l0.101,0.705v0.706v0.706l-0.101,0.806l-0.101,0.807l-0.101,0.806l-0.101,0.807
	l-0.101,0.807l-0.202,0.906l-0.202,0.908l-0.202,0.906l-0.302,0.907l-0.302,0.907l-0.302,0.907l-0.403,0.907l-0.403,0.906
	l-0.403,0.908l-0.403,0.906l-0.504,0.908l-0.504,0.906l-0.504,0.907l-0.504,0.907l-0.605,0.907l-0.604,0.907l-0.605,0.906
	l-0.604,0.807l-0.605,0.807l-1.411,8.365c0.202-0.201,0.403-0.402,0.605-0.604l0.302-0.302l0.403-0.404
	c0.202-0.201,0.504-0.504,0.706-0.705l0.101-0.101l0.605-0.706l0.604-0.705l0.504-0.605c0.101-0.1,0.101-0.201,0.202-0.302
	l0.504-0.604l0.605-0.807l0.604-0.807l0.302-0.402c0.202-0.202,0.303-0.504,0.504-0.706l0.403-0.604l0.302-0.504
	c0.303-0.403,0.504-0.907,0.807-1.311l0.504-0.907l0.504-0.907l0.302-0.604c0.101-0.202,0.202-0.403,0.302-0.706l0.202-0.504
	l0.403-0.906l0.403-0.907l0.303-0.907l0.302-0.907c0.101-0.403,0.302-0.806,0.403-1.21l0.202-0.604l0.101-0.404
	c0.101-0.402,0.202-0.806,0.302-1.209v-0.101l0.101-0.403c0-0.201,0.101-0.403,0.101-0.705l0.101-0.706l0.101-0.302
	c0.101-0.908,0.202-1.916,0.302-2.722v-0.101v-0.202c0-0.403,0-0.706,0-1.108L191.198,342.482z M179.909,320.309
	c0-10.582-15.118-19.25-33.563-19.25c-18.444,0-33.563,8.668-33.563,19.25c0,0.504,0,1.008,0.101,1.412
	c1.411-8.467,15.824-15.119,33.462-15.119s32.152,6.652,33.462,15.119C179.809,321.316,179.909,320.813,179.909,320.309z
	 M179.809,321.82L179.809,321.82c0,0.303-0.101,0.605-0.202,0.908C179.708,322.426,179.708,322.123,179.809,321.82z"></path>
<path id="color_x5F_5" fill="#FFD2BB" d="M371.51,429.464c0,0-0.906,2.016-2.317,2.016c0,0-1.714,1.814-3.024,1.411
	c-1.209-0.402-1.813-1.008-1.813-1.008s-0.907,0.605-1.915,0.807c-0.504,0.101-1.008,0.101-1.512-0.101
	c-0.605-0.303-0.706-1.008-0.706-1.915c0.101-1.21,0.403-2.621,0.202-3.226l-0.303-0.201c0,0-2.419-1.311-2.116-2.117
	c0.201-0.604,1.108-1.108,1.713-2.016c0.907,0.101,2.419,0.101,4.838-0.302c2.923-0.505,4.133-2.42,4.535-3.83l0,0l3.428,8.063
	C372.619,426.944,372.82,428.859,371.51,429.464z M325.651,383.605c5.644-2.218,7.458-4.637,7.458-4.637
	c-3.326,1.612-6.652,2.116-9.272,1.311c-0.101,0-0.101,0-0.202-0.102c-0.201-0.101-0.402-0.101-0.604-0.201
	c-0.101,0-0.101-0.102-0.201-0.102c-0.202-0.1-0.303-0.201-0.504-0.302c-0.102,0-0.202-0.101-0.202-0.101
	c-0.101-0.102-0.302-0.201-0.403-0.303c-0.101-0.101-0.101-0.101-0.201-0.201c-0.101-0.102-0.303-0.303-0.403-0.403
	s-0.101-0.101-0.201-0.202l0,0c-0.202-0.201-0.303-0.402-0.403-0.604c0,0-3.931,0.906-4.133,1.008
	c-0.302,0.1,2.017-2.318,1.21-4.939c-0.706-2.62-2.52-3.326-6.652-1.512c-4.132,1.915-4.737,3.729-3.527,5.039
	c0,0-14.111-9.172-6.955-15.924c0.806-0.605,1.613-1.21,2.419-1.916l-0.102,0.102l-8.265,4.736l-0.302,0.202
	c0,0,0,0.101,0.101,0.302c0.101,1.21,0.706,5.342,2.52,8.87c1.411,2.62,3.527,4.838,6.753,5.241c0.101,0,0.101,0,0.201,0
	c0,0.101,0.102,0.101,0.102,0.201c1.612,2.621,3.829,4.334,6.35,5.342c1.411,0.605,2.923,0.907,4.435,1.109
	c2.52,0.302,5.14,0,7.559-0.706C323.434,384.411,324.643,384.008,325.651,383.605z M333.109,460.508
	c-0.807-1.714-2.318-3.83-3.629-5.443c-0.604-0.705-1.008-1.31-1.31-1.612c-0.202-0.202-0.303-0.403-0.303-0.403l-6.652,6.148
	c0,0-0.201,0.403-0.302,0.907c-0.202,0.604-0.303,1.31-0.303,1.915c0.101,1.008,3.931,3.326,3.931,6.047
	c0,2.822-1.411,4.637-0.504,5.04c0.907,0.504,3.024-0.907,3.024-0.907s0.101,1.512,1.612,1.713c0.604,0,1.713-1.713,2.722-3.931
	c1.41-3.124,2.52-7.357,1.813-9.071C333.21,460.81,333.21,460.608,333.109,460.508z"></path>
<path id="color_x5F_4" fill="#00CEC9" d="M523.501,328.876l-153.503-88.594c0,0.202,0,0.403,0,0.504l0,0v4.334l-0.101,0.806
	l-0.101,0.706l-0.202,0.706l-0.302,0.706l-0.303,0.706l-0.403,0.706l-0.402,0.706l-0.504,0.706l-0.505,0.706l-0.604,0.706
	l-0.705,0.705l-0.706,0.706l-0.806,0.605l-0.807,0.604l-0.907,0.605l-1.008,0.604l-1.008,0.605l-1.108,0.504l-1.109,0.504
	l-1.108,0.504l-1.209,0.403l-1.21,0.403l-1.21,0.302l-1.209,0.302l-1.311,0.302l-1.31,0.202l-1.311,0.202l-1.311,0.202l-1.31,0.101
	l-1.311,0.101h-1.311h-1.411h-1.311l-1.41-0.101l-1.311-0.101l-1.311-0.101l-1.311-0.202l-1.31-0.201l-1.311-0.303l-1.311-0.302
	l-1.31-0.302l-1.21-0.403l-1.209-0.403l-1.21-0.504l-1.108-0.504l-1.108-0.504l-1.109-0.504l-1.008-0.604l-1.008-0.605l-0.907-0.604
	l-0.907-0.706l-0.806-0.706l-0.706-0.706l-0.705-0.706l-0.605-0.706l-0.504-0.706l-0.504-0.706l-0.402-0.705l-0.403-0.807
	l-0.303-0.806l-0.201-0.806l-0.202-0.807l-0.101-0.806v-0.807v-2.116l-127.801,73.778l0,0l9.374-5.442
	c16.328,14.01,65.614-3.629,74.786,14.816c9.877,19.653-43.743,14.412-53.016,28.725c-9.272,14.211,24.895,23.686,26.306,42.533
	s-58.559,11.792-64.908,31.446c-6.148,18.948,14.514,32.253,16.025,33.159l53.922,31.145c5.04,2.923,11.389,2.923,16.529,0
	l44.247-25.5l-20.763-27.415c0,0-23.988,10.079-28.322,9.878c-4.334-0.202-11.994-5.342-15.622-9.878
	c-3.628-4.636,3.628-19.352,3.628-19.352c10.28-20.561,32.252-56.744,38.602-59.667c8.265-3.729,20.46-4.436,21.267-4.436
	c8.769-5.945,18.747-9.775,27.616,0.404c3.528,4.031,5.04,7.861,5.241,11.188c8.365,3.729,17.94,8.365,19.15,10.28
	c2.016,3.326,7.458,32.958,8.063,36.385c0.706-1.008,1.109-1.813,1.109-1.813l0.705,4.535c0,0,0,0.201,0,0.504
	c3.427,4.132,6.249,7.66,7.963,9.776l146.145-84.36c0.705-0.403,1.311-0.907,1.814-1.411c0,0,0,0,0.101-0.101
	c0.201-0.202,0.403-0.504,0.604-0.706c0-0.101,0.101-0.101,0.101-0.202c0.202-0.201,0.303-0.402,0.403-0.705
	c0.101-0.101,0.101-0.201,0.101-0.303c0.101-0.201,0.202-0.402,0.303-0.604c0-0.102,0.101-0.202,0.101-0.303
	c0.101-0.201,0.202-0.403,0.202-0.706c0-0.101,0-0.201,0.101-0.302c0.101-0.303,0.101-0.504,0.201-0.807v-0.101
	C527.936,333.916,526.524,330.59,523.501,328.876z M267.294,287.553c-0.101,2.419-3.326,4.132-6.451,4.132
	c-3.225,0-6.551-1.814-6.652-4.233v-0.101c0-1.008,0.604-1.915,1.915-2.722c2.419-1.411,6.35-1.411,8.971-0.101
	c0.101,0.101,0.201,0.101,0.302,0.202c0.101,0.101,0.202,0.101,0.302,0.202C266.79,285.638,267.294,286.544,267.294,287.553
	L267.294,287.553z M227.18,460.81c-5.241,0-10.482-2.822-10.684-6.753v-0.101c0-1.612,1.008-3.125,3.023-4.334
	c3.931-2.218,10.281-2.318,14.413-0.201c0.101,0.101,0.302,0.201,0.504,0.302c0.101,0.101,0.302,0.202,0.403,0.303
	c1.814,1.209,2.722,2.721,2.722,4.233C237.46,457.987,232.42,460.81,227.18,460.81z M282.11,454.057
	c0-0.705,0.504-1.411,1.411-1.915c1.814-1.008,4.636-1.108,6.551-0.101c0.101,0,0.101,0.101,0.202,0.101
	c0.101,0.101,0.101,0.101,0.202,0.101c0.806,0.504,1.209,1.21,1.209,1.915c-0.101,1.814-2.419,3.024-4.737,3.024
	C284.629,457.282,282.21,455.972,282.11,454.057C282.11,454.157,282.11,454.157,282.11,454.057z M256.005,361.33
	c-2.419,0-4.737-1.311-4.838-3.023v-0.101c0-0.706,0.504-1.411,1.411-1.915c1.814-1.008,4.636-1.008,6.551-0.102
	c0.101,0.102,0.101,0.102,0.202,0.102c0.101,0,0.101,0.101,0.202,0.101c0.907,0.504,1.209,1.21,1.209,1.915
	C260.642,360.02,258.324,361.33,256.005,361.33z M305.795,269.007c-4.535,0.706-7.458-1.613-10.179-0.806
	c0,0,0.504-8.265,8.063-5.947c7.459,2.318,11.188-0.907,11.188-0.907S310.331,268.302,305.795,269.007z M349.941,293.096v0.303l0,0
	c-0.403,7.761-10.684,13.305-20.863,13.305c-10.079,0-20.158-5.443-20.461-13.104l0,0c0-0.302,0-0.504,0-0.806v-2.621v-0.504l0,0
	c0.102-2.822,1.814-5.543,5.241-7.861c0.303-0.202,0.604-0.302,0.907-0.504s0.706-0.403,1.008-0.504
	c8.164-4.133,20.562-4.032,28.322,0.504c4.031,2.318,6.047,5.342,6.047,8.466v3.326H349.941z M399.429,273.14
	c0-1.008,0.604-1.915,1.915-2.621c2.419-1.411,6.35-1.512,8.971-0.101c0.101,0,0.201,0.101,0.302,0.101
	c0.101,0.101,0.202,0.101,0.303,0.202c1.209,0.706,1.713,1.713,1.713,2.621c-0.101,2.419-3.325,4.132-6.551,4.132
	C402.755,277.474,399.529,275.76,399.429,273.14C399.429,273.24,399.429,273.24,399.429,273.14z M364.959,359.214
	c-3.226,0-6.45-1.714-6.652-4.233v-0.101c0-1.008,0.604-1.915,1.915-2.722c2.419-1.41,6.35-1.41,8.971-0.101
	c0.101,0.101,0.201,0.101,0.302,0.202c0.101,0.101,0.202,0.101,0.303,0.201c1.108,0.705,1.713,1.713,1.612,2.621
	C371.309,357.5,368.185,359.214,364.959,359.214z M380.884,272.535c-2.822-3.628-2.218-7.357-4.133-9.373
	c0,0,7.56-3.528,9.071,4.233s6.148,9.474,6.148,9.474S383.706,276.163,380.884,272.535z M440.047,369.293
	c-6.45-0.807-2.016-7.357,4.838-9.071s8.87-11.894,5.946-15.724c0,0,0.605,4.738-5.24,8.77s-10.482,7.761-13.506,5.846
	c-0.101,0-0.101-0.102-0.202-0.102c0,0,0,0,0.102,0.102c-0.403,0.504-1.613,1.814-3.729,2.318c-2.52,0.705-4.233-1.916-3.729-3.023
	l-2.318,1.713l0,0l-1.915,1.311l1.613,1.713c0,0,0.907,1.109-0.403,2.117s-12.901,6.047-12.901,6.047
	c-2.822,4.133-4.636,4.535-10.18,4.133c-4.334-0.303-6.753-2.924-6.753-2.924s-5.241-0.504-6.954-3.93c0,0,1.108-2.318,5.241-2.42
	c0,0-1.008-6.148,4.838-9.07c0,0-0.504-4.334,5.342-9.071c0.302-0.202,0.604-0.504,0.906-0.706l0.102-0.101
	c2.317-2.116,5.241-5.644,9.07-9.172c-0.101,0.101-0.101,0.101-0.201,0.202c6.45-6.048,15.118-11.994,26.608-10.583
	c0,0,20.058,2.317,21.468,19.149C459.398,363.648,446.498,370.1,440.047,369.293z M467.865,331.598
	c-4.737,0-9.575-2.621-9.777-6.249c0-0.101,0-0.101,0-0.101c0-1.411,0.907-2.822,2.822-3.932c3.629-2.116,9.475-2.116,13.305-0.201
	c0.101,0.102,0.302,0.201,0.504,0.303c0.101,0.101,0.303,0.101,0.403,0.201c1.713,1.109,2.52,2.52,2.419,3.932
	C477.339,328.977,472.603,331.598,467.865,331.598z M362.439,432.689l2.317,2.116l-35.175,20.259
	c-0.605-0.705-1.008-1.31-1.311-1.612l1.915-1.714l-4.133-5.442l-0.906,0.907l-14.917-18.041l-3.226-6.048l25.903-17.638
	l27.414,25.197c0,0.907,0.102,1.713,0.706,1.915C361.33,432.79,361.936,432.79,362.439,432.689z M332.706,385.419
	c-0.806,0.101-1.311,0.303-1.311,0.303l-29.935,11.994c1.21-4.637,5.141-9.475,8.668-13.103c1.411,0.604,2.924,0.906,4.436,1.108
	c2.52,0.302,5.14,0,7.559-0.706c1.311-0.402,2.419-0.807,3.427-1.209L332.706,385.419z"></path>
<path id="color_x5F_3" fill="#E84393" d="M378.263,428.557c-0.705,1.714-2.62,6.148-3.83,6.955
	c-1.512,1.108-6.047,2.318-6.248,2.419l-3.428-3.125l-2.317-2.116c1.008-0.201,1.915-0.807,1.915-0.807s0.504,0.605,1.813,1.008
	c1.311,0.403,3.024-1.411,3.024-1.411c1.411-0.101,2.317-2.016,2.317-2.016c1.411-0.604,1.109-2.419,1.109-2.419l-3.427-8.063l0,0
	c0.201-0.504,0.302-0.907,0.302-1.311c3.427,4.133,6.249,7.66,7.963,9.776C377.658,427.852,377.961,428.255,378.263,428.557z
	 M139.493,339.156C139.493,339.156,139.593,339.156,139.493,339.156c0.605,0.102,1.008,0.102,1.512,0.202c0.101,0,0.101,0,0.202,0
	c0.403,0,0.907,0.101,1.311,0.101c0.101,0,0.201,0,0.302,0c0.403,0,0.907,0,1.31,0.102c0.101,0,0.202,0,0.403,0
	c0.604,0,1.108,0,1.713,0c0.604,0,1.109,0,1.713,0c0.101,0,0.302,0,0.403,0c0.403,0,0.806,0,1.209-0.102c0.101,0,0.302,0,0.403,0
	c0.403,0,0.807-0.101,1.209-0.101c0.101,0,0.303,0,0.403,0c0.403,0,0.806-0.101,1.31-0.101c0.101,0,0.202,0,0.303,0
	c0.403-0.102,0.907-0.102,1.31-0.201c0.101,0,0.101,0,0.202,0c0.504-0.102,0.907-0.102,1.411-0.202h0.101
	c0.504-0.101,1.008-0.202,1.411-0.303l0,0c8.265-1.714,14.917-5.241,18.747-9.776c0,0,0-0.101,0.101-0.101
	c0.202-0.202,0.403-0.504,0.605-0.706c0.101-0.101,0.101-0.201,0.201-0.303c0.101-0.201,0.202-0.302,0.403-0.504
	c0.101-0.201,0.202-0.302,0.302-0.504c0.101-0.1,0.101-0.201,0.202-0.402c0.101-0.201,0.202-0.403,0.302-0.605
	c0-0.1,0.101-0.201,0.101-0.302c0.101-0.202,0.202-0.504,0.302-0.706c0-0.101,0-0.101,0.101-0.201
	c0.101-0.303,0.202-0.504,0.303-0.807v-0.101c0.101-0.302,0.202-0.604,0.202-0.907l0,0c0.101-0.303,0.101-0.604,0.201-0.906
	c-1.31-8.467-15.824-15.22-33.462-15.22s-32.051,6.651-33.462,15.118v0.102C113.993,330.389,125.08,337.443,139.493,339.156z
	 M189.686,361.834c-3.729,6.451-8.265,11.592-12.7,15.018c-1.915,9.777-14.917,17.438-30.741,17.438
	c-17.134,0-30.942-8.87-30.942-19.855l-2.621-16.127l0,0l-5.342-32.656l0,0c1.411,4.334,4.536,8.164,8.87,11.39l0.101,0.101
	c0.302,0.202,0.605,0.504,1.008,0.706c0.101,0,0.101,0.101,0.202,0.101c0.302,0.201,0.706,0.403,1.008,0.604
	c0.101,0,0.101,0.101,0.202,0.101c0.302,0.202,0.706,0.404,1.109,0.605h0.101c1.109,0.604,2.318,1.311,3.628,1.814
	c0.101,0,0.202,0.1,0.302,0.1c0.303,0.102,0.605,0.303,1.008,0.404c0.201,0.1,0.403,0.1,0.504,0.201
	c0.302,0.101,0.604,0.201,0.907,0.303c0.202,0.101,0.403,0.201,0.605,0.201c0.302,0.101,0.604,0.201,0.907,0.303
	c0.202,0.101,0.504,0.201,0.706,0.201c0.302,0.101,0.604,0.201,0.907,0.303c0.303,0.101,0.504,0.201,0.807,0.201
	c0.302,0.102,0.504,0.201,0.806,0.201c0.302,0.102,0.706,0.202,1.008,0.303c0.202,0.102,0.403,0.102,0.706,0.201
	c0.504,0.102,1.109,0.202,1.713,0.404c0.202,0,0.403,0.1,0.706,0.1c0.302,0.102,0.605,0.102,0.907,0.202l0,0
	c0.101,0,0.101,0,0.202,0c0.201,0,0.504,0.101,0.706,0.101c0.403,0.102,0.705,0.102,1.108,0.201c0.302,0,0.504,0.102,0.806,0.102
	c0.403,0,0.706,0.101,1.109,0.101c0.302,0,0.504,0.101,0.806,0.101c0.403,0,0.807,0.102,1.109,0.102c0.202,0,0.504,0,0.706,0.1
	c0.403,0,0.806,0,1.31,0.102c0.202,0,0.403,0,0.605,0c0.604,0,1.31,0,1.915,0c0.604,0,1.31,0,1.915,0c0.202,0,0.403,0,0.604,0
	c0.403,0,0.807,0,1.311-0.102c0.201,0,0.504,0,0.706-0.1c0.403,0,0.806-0.102,1.108-0.102s0.504,0,0.806-0.101
	c0.403,0,0.706-0.101,1.109-0.101c0.302,0,0.504-0.102,0.806-0.102c0.403,0,0.706-0.1,1.109-0.201c0.202,0,0.504-0.101,0.706-0.101
	c0.403-0.101,0.806-0.101,1.109-0.202c0.201,0,0.403-0.1,0.604-0.1c0.605-0.102,1.109-0.202,1.713-0.404
	c0.202,0,0.403-0.1,0.605-0.1l0,0c0.403-0.102,0.706-0.202,1.108-0.303c0.302-0.102,0.504-0.102,0.807-0.201
	c0.302-0.102,0.604-0.202,0.907-0.303c0.303-0.102,0.504-0.202,0.807-0.303c0.302-0.101,0.504-0.201,0.806-0.303
	c0.302-0.101,0.605-0.201,0.806-0.302c0.202-0.101,0.504-0.202,0.706-0.303c0.303-0.101,0.605-0.201,0.807-0.302
	c0.101-0.102,0.302-0.102,0.403-0.202c0.101,0,0.202-0.101,0.202-0.101c0.302-0.101,0.605-0.201,0.907-0.403
	c0.202-0.101,0.302-0.202,0.504-0.202c1.109-0.504,2.217-1.008,3.225-1.611c0.101-0.102,0.202-0.102,0.303-0.202
	c0.302-0.202,0.604-0.403,0.907-0.504c0.101-0.101,0.303-0.202,0.403-0.202c0.302-0.201,0.604-0.402,0.907-0.604
	c0.101-0.101,0.201-0.201,0.403-0.201c0.303-0.202,0.605-0.403,0.807-0.604c0.101-0.102,0.201-0.102,0.302-0.202
	c0.302-0.202,0.604-0.403,0.806-0.604c0.101,0,0.101-0.102,0.202-0.102c1.713-1.31,3.125-2.821,4.334-4.334c0,0,0-0.1,0.101-0.1
	c0.202-0.303,0.403-0.605,0.706-0.908c0,0,0-0.1,0.101-0.1c0.202-0.303,0.403-0.605,0.604-0.908l0,0
	c0.807-1.31,1.512-2.721,2.016-4.132l0,0l-0.504,3.226c1.31-0.403,2.62-0.504,3.931-0.605c0.403,0,0.806,0,1.31,0.102
	c0.403,0,0.907,0.101,1.311,0.201h0.101c0.504,0.101,1.109,0.303,1.613,0.504C198.958,333.916,197.648,348.127,189.686,361.834z
	 M191.298,343.793c0-0.402,0-0.705,0-1.108c0-0.101,0-0.202,0-0.403c0-0.403-0.101-0.807-0.101-1.209l0,0
	c-0.302-2.218-1.209-3.932-2.52-5.04c-0.403-0.202-0.907-0.302-1.31-0.403c-1.109-0.201-2.318-0.201-3.528,0l-4.233,25.903
	l-1.411,8.365c0.202-0.202,0.403-0.403,0.605-0.604c0.201-0.201,0.504-0.504,0.706-0.705c0.201-0.202,0.504-0.504,0.706-0.706
	c0.604-0.706,1.31-1.411,1.915-2.116c0.101-0.102,0.101-0.202,0.202-0.303c0.706-0.807,1.411-1.713,2.016-2.621
	c0.201-0.201,0.302-0.504,0.504-0.705c0.202-0.303,0.504-0.705,0.706-1.008c0.302-0.403,0.504-0.907,0.806-1.311
	c0.504-0.807,0.907-1.713,1.31-2.52c0.101-0.201,0.202-0.403,0.303-0.705c0.705-1.412,1.31-2.822,1.713-4.233
	c0.101-0.403,0.302-0.807,0.403-1.21c0.101-0.303,0.202-0.705,0.303-1.008c0.101-0.402,0.201-0.807,0.302-1.209
	c0-0.202,0.101-0.303,0.101-0.504c0-0.202,0.101-0.403,0.101-0.706c0.101-0.302,0.101-0.706,0.202-1.008
	c0.101-0.907,0.201-1.915,0.302-2.722C191.298,343.994,191.298,343.895,191.298,343.793z M328.675,473.912
	c-1.512-0.101-1.612-1.713-1.612-1.713s-2.218,1.411-3.024,0.907c-0.907-0.504,0.604-2.318,0.504-5.04
	c0-2.721-3.83-5.039-3.931-6.047c-0.101-0.504,0.101-1.311,0.303-1.915l-1.714,1.612l-4.838-3.729l1.714-1.713l-29.128-25.903
	l-5.947-16.227c-6.35,3.829-13.103,7.659-18.848,11.086c-7.559,2.42-13.203-3.527-14.413-4.938c0,0-7.156,14.816-3.628,19.352
	c3.628,4.637,11.289,9.676,15.622,9.878c4.334,0.201,28.322-9.878,28.322-9.878l20.763,27.415l3.931,5.241l11.389,15.018
	c1.613-0.303,5.241-1.108,6.753-1.915c1.411-0.807,3.83-5.039,4.939-7.257l-4.334-8.265
	C330.489,472.3,329.38,474.013,328.675,473.912z M360.121,427.247c0,0-2.419-1.311-2.117-2.117c0.202-0.604,1.109-1.108,1.714-2.016
	c-1.008-0.101-1.311-0.302-1.311-0.302l-3.023-5.947c0,0,0.604,0.303,1.512,0.504c-2.52-6.854-8.668-22.274-10.684-27.213
	c-0.705-0.807-1.311-1.411-1.814-1.915l-11.691-2.822c-0.806,0.101-1.311,0.303-1.311,0.303l-29.935,11.994c0,0.101,0,0.101,0,0.201
	c-0.302,1.008-1.108,2.218-2.418,3.629l4.737,20.259l6.35,7.659l-3.225-6.047l25.902-17.639l27.415,25.197
	c0.101-1.209,0.403-2.62,0.202-3.225L360.121,427.247z"></path>
<path id="color_x5F_2" fill="#FBC02D" d="M396.708,442.668c-1.009,2.317-7.56,1.209-15.119,1.411
	c-2.217,0.101-4.132,0.201-5.342,0.504c-3.326,0.806-4.233-1.714-4.535-3.729c1.108-0.202,3.023-0.706,5.241-2.52
	c2.52-1.915,3.225-4.838,3.527-6.451l0,0c0.303,0.403,0.604,0.706,0.807,0.907c0.504,0.504,1.108,0.604,2.217,0.907
	C390.861,435.209,399.429,436.016,396.708,442.668z M348.43,491.147c-6.854-2.923-9.575-6.954-10.382-8.467
	c-0.604,1.814-1.915,4.436-4.535,6.148c-2.722,1.814-4.938,2.218-6.249,2.318c0,3.527,2.923,6.551,10.18,6.753
	c3.527,0.101,9.071,3.023,12.296,2.822C357.903,500.219,356.996,494.775,348.43,491.147z M183.538,246.632
	c0-0.403-0.101-0.706-0.302-0.806l-13.002,15.521l13.405,0.605v-15.32H183.538z M155.72,261.649
	c-0.101,0.101-0.101,0.303-0.101,0.504v15.018l12.498-14.816L155.72,261.649z M156.929,260.743l11.893,0.604l12.196-14.514
	l-24.996,14.413L156.929,260.743z M208.937,263.666l-24.088,13.909l11.893,0.605L208.937,263.666z M155.72,278.582
	c0,0.101,0.101,0.101,0.101,0.101c0.201,0.202,0.504,0.202,0.806,0.101l26.508-15.32c0.101-0.101,0.302-0.302,0.403-0.504
	l-14.11-0.706L155.72,278.582z M317.789,283.924c0.202-0.101,0.403-0.303,0.605-0.403c0.201-0.101,0.504-0.302,0.705-0.403
	c6.048-3.023,15.118-2.923,20.863,0.302c5.947,3.427,5.846,8.971-0.101,12.397c-6.048,3.427-15.622,3.527-21.569,0.101
	C312.649,292.693,312.447,287.351,317.789,283.924z M326.76,289.165l-4.737,3.125c-0.604,0.403-0.705,1.109-0.403,1.713
	c0.403,0.605,1.109,0.706,1.714,0.303l5.745-3.729l5.745,3.729c0.604,0.403,1.31,0.201,1.713-0.303
	c0.403-0.604,0.202-1.31-0.403-1.713l-4.736-3.125l4.736-3.023c0.605-0.403,0.706-1.109,0.403-1.713
	c-0.302-0.605-1.108-0.706-1.713-0.403l-5.745,3.729l-5.745-3.729c-0.604-0.403-1.311-0.202-1.714,0.403
	c-0.403,0.604-0.201,1.31,0.403,1.713L326.76,289.165z M440.047,369.293c-6.45-0.807-2.016-7.357,4.838-9.071
	s8.87-11.894,5.946-15.724c-2.116-6.551-8.769-2.922-8.769-2.922c5.745,0.201,8.769,2.922,8.769,2.922s0.605,4.738-5.24,8.77
	s-10.482,7.761-13.506,5.846c-0.101,0-0.101-0.102-0.202-0.102c-0.101-0.1-0.201-0.201-0.302-0.201l-0.102-0.101
	c0-0.101-0.101-0.202-0.101-0.202c0-0.1,0-0.1,0-0.201c0-0.101,0-0.201,0-0.201c0-0.102,0-0.102,0-0.202s0-0.101,0-0.201
	s0.101-0.202,0.101-0.303c0,0,0-0.101,0.102-0.101c0.101-0.102,0.101-0.201,0.201-0.403l0.101-0.101
	c0.102-0.102,0.202-0.201,0.303-0.403l0.101-0.101c0.101-0.102,0.202-0.201,0.303-0.303c0.101-0.101,0.101-0.101,0.201-0.201
	c0.101-0.102,0.202-0.201,0.303-0.303c0.101-0.101,0.201-0.101,0.201-0.201c0.101-0.102,0.202-0.201,0.303-0.201
	c0.101-0.102,0.201-0.102,0.302-0.202c0.102-0.101,0.202-0.101,0.202-0.202c0.101-0.101,0.201-0.101,0.302-0.201
	c0.102,0,0.102-0.101,0.202-0.101c0.101-0.101,0.201-0.101,0.303-0.202c0,0,0.101,0,0.101-0.101l-1.109,0.706
	c5.645,1.311,10.18-3.83,10.18-3.83c-2.821,2.721-8.163,2.52-8.163,2.52l-3.83-0.605c0,0-7.156-2.619-9.071-7.559
	c-2.016-4.938,0-8.769,0-8.769s-2.016,3.226-1.512,7.56c0.705,5.846,5.745,8.668,4.636,12.296l-0.302,0.907l-1.714,1.209l0,0
	l-2.318,1.714l-8.667-5.241l6.752,6.551l1.613,1.714c0,0,0.907,1.108-0.403,2.116s-12.901,6.048-12.901,6.048
	s2.016-0.907,4.436-2.016c-2.117-0.101-1.009-3.024-1.714-4.737c-0.706-1.713-3.527-3.225-3.527-3.225s1.411,0.906,2.016,3.225
	c0.705,2.318-1.21,6.652-1.21,6.652c-2.822,4.133-4.636,4.535-10.18,4.133c-4.334-0.303-6.753-2.924-6.753-2.924
	s-5.241-0.504-6.954-3.93c0,0,1.108-2.318,5.241-2.42c0,0-1.008-6.148,4.838-9.07l2.419-1.109l2.016-5.846
	c6.45,2.923,4.233,9.676,4.233,9.979c0,0.504,3.931-9.172-2.318-11.087c0,0,5.342-7.257,8.869-10.886
	c6.451-6.047,15.118-11.994,26.608-10.582c0,0,20.058,2.317,21.469,19.149C459.398,363.648,446.498,370.1,440.047,369.293z
	 M401.243,372.014c-1.411,1.916-3.83,1.916-3.83,1.916C400.537,374.836,401.243,372.014,401.243,372.014z M404.771,366.168
	c0.202,2.42-1.612,3.932-1.612,3.932C405.98,368.89,404.771,366.168,404.771,366.168z M190.593,250.865
	c-0.302,0.101-0.504,0.604-0.504,0.907v14.917l12.397-14.816l-12.296-0.605C190.291,251.067,190.492,250.865,190.593,250.865z
	 M191.198,235.948l-58.76,34.167l-8.164,15.421l-6.451-7.156l-2.318,1.31l-14.816,8.668v-44.75l30.136-17.437l60.373-34.874V235.948
	L191.198,235.948z M150.176,237.863l11.792-12.599c0.605-0.706,0.605-1.713-0.101-2.318c-0.706-0.604-1.714-0.604-2.318,0.101
	l-14.312,15.32l-14.111,1.209c-0.907,0.101-1.612,0.907-1.512,1.814c0.101,0.907,0.907,1.612,1.814,1.512l10.482-0.907
	l-11.893,12.599c-0.605,0.706-0.605,1.713,0.101,2.318c0.706,0.604,1.713,0.604,2.318-0.101l14.312-15.42l14.11-1.209
	c0.907-0.101,1.613-0.907,1.512-1.814c-0.101-0.907-0.907-1.613-1.814-1.512L150.176,237.863z M329.985,380.178
	c0.806-0.201,1.612-0.504,2.419-0.906C331.598,379.674,330.791,379.977,329.985,380.178z M217.706,235.444L217.706,235.444
	L217.706,235.444C217.806,235.444,217.706,235.444,217.706,235.444z M217.101,235.545c0.302-0.101,0.504-0.101,0.605,0l0,0
	C217.504,235.344,217.302,235.344,217.101,235.545z M203.393,250.865l12.196-14.514l1.512-0.907L191.5,250.26L203.393,250.865z
	 M303.779,421.603l-4.737-20.259c1.31-1.311,2.217-2.52,2.418-3.628c0-0.102,0-0.102,0-0.202c1.21-4.637,5.141-9.475,8.668-13.103
	c-2.52-1.008-4.736-2.722-6.35-5.342c-0.101-0.101-0.101-0.101-0.101-0.202v0.102l-2.722,6.551c0,0-10.179-8.869-10.381-9.172
	c-0.302-0.302-1.512-10.986-1.512-10.986c2.822-1.611,11.893-4.838,11.893-4.838l-6.551,3.73l8.265-4.738
	c1.512-1.209,3.124-2.317,4.737-3.426c-0.706,0-13.002,0.705-21.267,4.434c-6.35,2.924-28.322,39.006-38.603,59.668
	c1.209,1.411,6.753,7.357,14.413,4.938c5.745-3.326,12.498-7.257,18.848-11.087l5.946,16.228l29.128,25.903l8.971-8.971
	l-14.917-18.041L303.779,421.603z M340.467,367.882c0.202,4.334-2.016,7.861-5.241,9.978c-0.907,0.605-1.813,1.109-2.721,1.512
	c0.201-0.1,0.403-0.201,0.604-0.302c0,0-1.915,2.419-7.458,4.636l7.055,1.714l11.691,2.822l1.109,0.302c0,0,0.201,0.605,0.604,1.613
	c2.016,4.938,8.265,20.359,10.684,27.213c1.512,0.403,4.031,0.907,6.249,0.504c2.016-0.402,3.628-2.016,4.535-3.326
	c-0.604-3.325-6.047-32.957-8.063-36.385C358.407,376.146,348.833,371.611,340.467,367.882z M211.053,262.758l-13.002,15.421
	l13.304,0.604v-15.32C211.457,263.061,211.255,262.859,211.053,262.758z M183.538,295.414
	C183.538,295.414,183.639,295.515,183.538,295.414c0.101,0.101,0.101,0.202,0.202,0.202c0.202,0.101,0.403,0.202,0.706,0
	l26.508-15.32c0.101-0.101,0.302-0.202,0.403-0.403l-14.11-0.706L183.538,295.414z M183.538,278.481
	c0.101-0.202,0.202-0.403,0.403-0.504c-0.302,0.101-0.504,0.604-0.504,0.907v14.917l12.397-14.816L183.538,278.481z
	 M190.291,268.201c0,0.101,0.101,0.201,0.202,0.201c0.202,0.101,0.403,0.202,0.706,0l26.508-15.32
	c0.101-0.101,0.302-0.202,0.403-0.403l-14.11-0.706L190.291,268.201z M204.704,250.966l13.304,0.605v-15.32
	c0-0.403-0.101-0.706-0.302-0.806L204.704,250.966z"></path>
<path id="color_x5F_1_1_" fill="#013643" d="M302.973,359.617c-0.806,0.604-1.611,1.209-2.418,1.915
	c-7.156,6.753,6.954,15.925,6.954,15.925c-1.209-1.311-0.705-3.125,3.527-5.039c4.133-1.916,5.947-1.21,6.652,1.512
	c0.706,2.62-1.512,5.039-1.209,4.938c0.302-0.1,4.132-1.008,4.132-1.008c0.101,0.202,0.303,0.404,0.403,0.605l0,0
	c0,0.101,0.101,0.101,0.201,0.201c0.102,0.102,0.202,0.303,0.403,0.403c0.101,0.101,0.101,0.101,0.202,0.202
	c0.101,0.1,0.302,0.201,0.403,0.302c0.101,0,0.201,0.101,0.201,0.101c0.201,0.102,0.303,0.201,0.504,0.303
	c0.101,0,0.101,0.101,0.201,0.101c0.202,0.101,0.403,0.202,0.605,0.202c0.101,0,0.101,0,0.201,0.101
	c3.125,0.907,7.459,0,11.39-2.521c3.225-2.116,5.442-5.543,5.24-9.978c-0.201-3.326-1.713-7.156-5.24-11.188
	c-8.87-10.181-18.848-6.45-27.616-0.403c-1.613,1.108-3.226,2.318-4.738,3.427V359.617z"></path>
</svg>