<?xml version="1.0" standalone="no"?>
<svg version="1.1" id="color_x5F_1" xmlns="http://www.w3.org/2000/svg" xmlns:xlink="http://www.w3.org/1999/xlink" x="0px" y="0px" width="600px" height="600px" viewBox="0 0 600 600" enable-background="new 0 0 600 600" xml:space="preserve">
<path id="color_x5F_9" fill="#2B7471" d="M174.164,288.561c-0.604,0.604-1.209,1.209-1.713,1.814
	c2.822-5.543,5.947-10.381,8.97-13.909c13.305-15.119,28.927-19.855,28.927-19.855c-16.933-2.923-28.422,2.217-36.184,11.086
	c-4.031,4.637-7.055,10.381-9.373,16.53c0.101-17.94-1.411-34.874-6.35-44.146c-4.737,8.769-6.249,24.391-6.148,41.324
	c-2.117-5.04-4.838-9.776-8.265-13.708c-7.761-8.97-19.352-14.01-36.184-11.087c0,0,15.623,4.838,28.927,19.856
	c3.125,3.527,6.148,8.365,8.97,13.909c-0.605-0.604-1.109-1.209-1.713-1.814c-7.761-7.56-19.352-11.792-36.184-9.374
	c0,0,15.623,4.032,28.927,16.832c6.753,6.45,13.203,17.739,17.537,30.036c0.303,0.705,0.504,1.41,0.706,2.217
	c0.202,0.705,0.403,1.411,0.706,2.117c0.101,1.107,0.202,2.116,0.403,3.124c0.504,3.83,0.907,7.257,1.31,10.18
	c-8.365,0.403-15.118,3.729-15.723,7.861c0.706,5.241,8.265,9.272,17.538,9.272c9.272,0,16.832-4.132,17.537-9.272
	c-0.706-4.233-7.66-7.659-16.328-7.962c0.302-2.52,0.706-5.544,1.108-8.77c0.101-0.504,0.202-0.906,0.403-1.41
	c0.504-1.714,1.008-3.527,1.512-5.241c1.008-3.226,2.217-6.351,3.528-9.374c4.031-9.373,9.272-17.638,14.715-22.778
	c13.304-12.8,28.926-16.832,28.926-16.832C193.516,276.768,181.925,281.001,174.164,288.561z M159.046,352.26
	c0-0.706,0-1.412,0-2.117c0,0.605,0,1.109,0,1.714s0,1.31,0,1.915C159.046,353.268,159.046,352.764,159.046,352.26z"></path>
<path id="color_x5F_8" fill="#D0E7DF" d="M433.697,191.399c-20.763-11.994-48.58-6.652-75.088,11.389
	c0.907,3.528,0.604,6.249,0.604,6.249l-0.504,25.601c1.612,0.907,7.962,4.938,10.28,5.644c2.419,0.806,3.528,3.528,0.403,5.543
	c-4.132,2.721-13.405-4.939-17.437-5.14c-2.822-0.101-1.612-6.652-1.612-6.652l-2.521-14.917l-0.806-7.66
	c-0.202,0.101-0.303,0.302-0.504,0.403l0.201,6.753l-2.52,24.794c0,0,0.101,0.604-0.101,1.31c0.101-0.403,0.101-0.706,0.101-1.008
	c1.612,0.907,7.962,4.938,10.28,5.645c2.318,0.806,3.427,3.527,0.403,5.543c-4.132,2.722-13.405-4.938-17.437-5.14
	c-2.722-0.101-1.612-6.652-1.612-6.652l0,0c-0.102-0.403-0.102-0.605-0.102-0.605l-1.813-19.049
	c-10.886,11.289-21.065,24.593-29.834,39.812c-35.176,60.876-34.067,127.297,2.419,148.362
	c36.485,21.065,94.541-11.188,129.716-72.063C471.292,278.885,470.184,212.464,433.697,191.399z M307.609,265.581
	c0.907-1.512,1.714-2.923,2.621-4.334l13.606,7.861c2.419,1.411,3.226,4.536,1.814,6.955s-4.536,3.225-6.955,1.814l-13.606-7.862
	C305.896,268.503,306.702,267.092,307.609,265.581z M285.839,356.09c-0.705,0.402-1.411,0.604-2.217,0.705
	c-0.302-3.527-0.403-7.156-0.302-10.885l16.529-9.475c2.419-1.411,5.544-0.605,6.955,1.814c1.411,2.418,0.604,5.543-1.814,6.954
	L285.839,356.09z M327.364,385.621l-13.002,22.576c-1.512-0.705-3.023-1.411-4.535-2.317c-1.411-0.907-2.923-1.814-4.233-2.822
	l13.002-22.577c1.411-2.419,4.535-3.225,6.954-1.814C327.969,380.077,328.775,383.201,327.364,385.621z M369.998,228.49
	c-2.822,0-5.039-2.217-5.039-5.04v-19.049c3.226-1.915,6.35-3.629,9.575-5.141c0.302,0.706,0.504,1.411,0.504,2.318v21.972
	C375.139,226.272,372.82,228.49,369.998,228.49z M375.139,398.824c-3.226,1.915-6.35,3.628-9.575,5.241
	c-0.403-0.706-0.504-1.512-0.504-2.318v-21.871c0-2.822,2.218-5.04,5.04-5.04c2.821,0,5.039,2.318,5.039,5.04V398.824z
	 M384.613,310.028c-7.762,13.405-20.562,20.562-28.625,15.925c-8.063-4.637-8.265-19.25-0.504-32.756
	c4.637-7.962,10.986-13.708,17.034-16.025l25.6-24.19l-8.163,33.866C391.063,293.398,389.35,301.965,384.613,310.028z
	 M412.632,217.706l13.002-22.577c1.613,0.706,3.125,1.411,4.536,2.318c1.512,0.806,2.923,1.814,4.232,2.721L421.3,222.745
	c-1.411,2.419-4.535,3.226-6.954,1.814C412.128,223.148,411.222,220.125,412.632,217.706z M432.488,337.746
	c-0.907,1.512-1.714,2.922-2.621,4.334l-13.606-7.861c-2.419-1.412-3.226-4.536-1.814-6.955s4.536-3.226,6.955-1.814l13.606,7.861
	C434.201,334.723,433.395,336.234,432.488,337.746z M456.476,246.531c0.303,3.527,0.403,7.156,0.303,10.885l-16.529,9.474
	c-2.419,1.411-5.544,0.605-6.854-1.814c-1.41-2.419-0.604-5.543,1.814-6.955l18.948-10.986
	C454.964,246.833,455.67,246.632,456.476,246.531z M343.793,245.624c0.101-0.202,0.101-0.302,0.202-0.504
	C343.894,245.322,343.793,245.523,343.793,245.624z M343.994,245.02c0,0.101,0,0.201-0.101,0.201
	C343.994,245.12,343.994,245.02,343.994,245.02z M344.096,244.818c0,0.101,0,0.101,0,0.202
	C343.994,244.918,344.096,244.818,344.096,244.818z M192.206,354.678c0-0.1,0.101-0.201,0.101-0.302l-6.854,41.727
	c0,0.202,0,0.403,0,0.706c-0.504,9.071-12.195,16.227-26.407,16.227s-25.802-7.257-26.407-16.227c0-0.202,0-0.403,0-0.706
	l-6.854-41.727c0,0.101,0.101,0.202,0.101,0.202c2.721,7.861,12.095,14.109,24.088,16.227c0.101,0,0.101,0,0.202,0
	c0.302,0.101,0.706,0.101,1.008,0.201c0.202,0,0.403,0.102,0.504,0.102c0.302,0,0.604,0.101,0.907,0.101
	c0.202,0,0.504,0.101,0.706,0.101c0.302,0,0.504,0.102,0.807,0.102c0.302,0,0.604,0,0.806,0.1c0.202,0,0.504,0,0.706,0.102
	c0.302,0,0.706,0,1.008,0c0.202,0,0.403,0,0.604,0c0.504,0,1.109,0,1.613,0s1.109,0,1.613,0c0.202,0,0.403,0,0.604,0
	c0.303,0,0.706,0,1.008,0c0.202,0,0.504,0,0.706-0.102c0.303,0,0.605,0,0.907-0.1c0.302,0,0.504-0.102,0.806-0.102
	c0.202,0,0.504-0.101,0.706-0.101c0.303,0,0.605-0.101,0.907-0.101c0.202,0,0.403-0.102,0.605-0.102
	c0.302,0,0.604-0.101,1.008-0.201c0.101,0,0.202,0,0.302-0.101c9.272-1.612,16.933-5.745,21.267-11.188l0,0
	c0.202-0.201,0.403-0.504,0.605-0.806l0.101-0.101c0.202-0.201,0.302-0.504,0.504-0.705c0-0.102,0.101-0.102,0.101-0.202
	c0.101-0.202,0.303-0.504,0.403-0.706c0-0.101,0.101-0.101,0.101-0.201C191.601,356.189,191.903,355.484,192.206,354.678z
	 M348.53,179.002c-0.101,0-0.101,0-0.202,0c0,0,1.21,3.729,2.017,4.133c0.806,0.302,1.008-0.403,1.008-0.403
	s1.411,1.814,2.721,1.512c1.311-0.302,3.629-4.938,3.226-5.846c-0.504-1.008-6.552-3.023-6.552-3.023c0,0.302,0,0.705-0.101,1.209
	c0.101-0.806,0.101-1.512,0.101-1.512l-10.985-22.073c0-0.202,0-0.806,0-2.419c2.116-0.806,4.233-1.512,6.249-2.217
	c1.813,3.326,5.442,6.249,10.18,8.265v3.527c0,5.241,7.055,9.475,15.723,9.475c5.342,0,15.724-2.52,15.724-9.475
	c0-0.504,0-2.116,0-3.931c3.427-1.411,6.35-3.427,8.365-6.047c1.008,0.504,1.915,1.008,2.923,1.512l40.316,23.282
	c-0.102,0-0.202-0.101-0.303-0.101c-0.504-0.202-0.907-0.403-1.411-0.605c-0.201-0.101-0.403-0.202-0.604-0.202
	c-0.504-0.202-1.008-0.403-1.512-0.604c-0.202-0.101-0.303-0.101-0.504-0.202c-0.504-0.202-1.009-0.403-1.513-0.605
	c-0.201-0.101-0.302-0.101-0.504-0.201c-0.504-0.202-1.108-0.403-1.612-0.504c-0.201,0-0.303-0.101-0.504-0.101
	c-0.504-0.202-1.108-0.302-1.612-0.504c-0.102,0-0.303-0.101-0.403-0.101c-0.604-0.101-1.108-0.302-1.714-0.403
	c-0.101,0-0.302-0.101-0.403-0.101c-0.604-0.101-1.108-0.201-1.713-0.302c-0.101,0-0.303-0.101-0.403-0.101
	c-0.604-0.101-1.108-0.202-1.713-0.303c-0.202,0-0.303,0-0.504-0.101c-0.605-0.101-1.109-0.202-1.714-0.202
	c-0.202,0-0.303,0-0.504,0c-0.604-0.101-1.108-0.101-1.714-0.202c-0.201,0-0.302,0-0.504,0c-0.604,0-1.108-0.101-1.713-0.101
	c-0.202,0-0.403,0-0.504,0c-0.605,0-1.109,0-1.714,0c-0.201,0-0.403,0-0.604,0c-0.604,0-1.108,0-1.714,0c-0.201,0-0.403,0-0.604,0
	c-0.504,0-1.108,0-1.612,0.101c-0.202,0-0.504,0-0.706,0.101c-0.504,0-1.108,0.101-1.612,0.101c-0.303,0-0.504,0.101-0.807,0.101
	c-0.504,0.101-1.008,0.101-1.512,0.201c-0.302,0-0.604,0.101-0.907,0.101c-0.504,0.101-0.907,0.101-1.411,0.202
	c-0.302,0.101-0.705,0.101-1.008,0.202c-0.403,0.101-0.907,0.101-1.31,0.201c-0.403,0.101-0.807,0.202-1.21,0.202
	c-0.403,0.101-0.705,0.101-1.108,0.202c-0.504,0.101-1.008,0.202-1.512,0.403c-0.303,0.101-0.605,0.101-0.807,0.201
	c-0.705,0.202-1.411,0.303-2.016,0.504c-0.101,0-0.202,0.101-0.303,0.101c-8.97,2.52-18.142,6.451-27.313,11.792l0,0
	c-0.807,0.504-1.613,1.008-2.419,1.411h-0.102c-0.806,0.504-1.612,1.008-2.419,1.512l-0.101,0.101
	c-0.806,0.504-1.512,1.008-2.318,1.512c-0.101,0-0.101,0.101-0.201,0.101c-0.807,0.504-1.512,1.008-2.318,1.512
	c-0.101,0.101-0.101,0.101-0.201,0.202c-0.706,0.504-1.512,1.008-2.218,1.613c-0.101,0.101-0.201,0.101-0.302,0.202
	c-0.303,0.201-0.504,0.403-0.807,0.604c-0.504-0.403-1.008-0.706-1.512-1.109c-9.776-6.35-13.405-12.8-13.405-12.8
	c-0.504-0.705-0.907-9.172-0.907-12.397C336.436,166.504,345.91,178.801,348.53,179.002z M344.7,127.398c0-0.202,0-0.403,0-0.706
	c0-8.87,11.994-16.025,26.81-16.025c14.816,0,26.71,7.156,26.811,15.925c0,0,0,0,0,0.101s0,0.302,0,0.403c0,0.101,0,0.302,0,0.403
	c0,0.101,0,0.302-0.101,0.403c0,0.101,0,0.302-0.102,0.403c0,0.202-0.101,0.403-0.101,0.504c0,0.101,0,0.202-0.101,0.302
	c-0.101,0.302-0.101,0.504-0.201,0.807l0,0c-2.521,7.357-13.305,12.8-26.206,12.8c-0.504,0-0.906,0-1.41,0c-0.102,0-0.202,0-0.303,0
	c-0.403,0-0.706,0-1.108,0c-0.102,0-0.102,0-0.202,0c-0.403,0-0.705-0.101-1.108-0.101h-0.101c-0.403,0-0.807-0.101-1.21-0.101l0,0
	c-8.265-1.008-15.118-4.334-18.646-8.769c0,0,0,0-0.102-0.101c-0.201-0.202-0.302-0.403-0.402-0.605l-0.102-0.101
	c-0.101-0.202-0.201-0.302-0.302-0.504c0-0.101-0.102-0.202-0.102-0.202c-0.101-0.101-0.201-0.302-0.302-0.504
	c-0.101-0.101-0.101-0.202-0.202-0.302c-0.101-0.101-0.101-0.202-0.201-0.403c-0.101-0.101-0.101-0.302-0.201-0.403
	c0-0.101-0.102-0.201-0.102-0.302c-0.101-0.202-0.101-0.302-0.201-0.504c0-0.101,0-0.101-0.101-0.202
	c-0.102-0.202-0.102-0.403-0.202-0.604v-0.101c-0.101-0.202-0.101-0.504-0.101-0.706l0,0C344.801,127.902,344.7,127.7,344.7,127.398
	z M565.731,262.053v0.403v0.403l-0.101,0.403v0.403l-0.101,0.302l-0.101,0.302l-0.102,0.302l-0.101,0.303l-0.101,0.302l-0.101,0.302
	l-0.101,0.302l-0.102,0.202l-0.201,0.202l-0.201,0.202l-0.202,0.202l-0.201,0.202l-8.87,5.14c1.008-0.806,1.613-2.419,1.613-4.536
	c0-4.334-2.52-9.272-5.645-10.986c-0.403-0.303-0.807-0.403-1.209-0.504c-1.008-4.636-3.729-9.171-6.854-11.59
	c-0.806-10.885-7.257-22.678-15.018-27.213c-6.954-3.931-12.699-1.008-14.514,6.551c-1.512-2.117-3.326-3.83-5.241-4.938
	c-2.317-1.311-4.435-1.512-6.147-0.706c0.101-0.101,0.201-0.101,0.302-0.202l8.87-5.14l0.403-0.101l0.402-0.101l0.504-0.101h0.504
	h0.504l0.504,0.101l0.505,0.101l0.504,0.101l0.504,0.201l0.504,0.202l0.504,0.303l0.504,0.302l0.201,0.101l0.202,0.101l0.201,0.101
	l0.201,0.101l0.202,0.101l0.201,0.101l0.202,0.101l0.201,0.101l0.202,0.101l0.201,0.101l0.202,0.101l0.201,0.101l0.201,0.101
	l0.102,0.101l0.201,0.101l0.101,0.101l8.467-4.838l0.504-0.202l0.504-0.101l0.504-0.101l0.504-0.101h0.504h0.604l0.604,0.101
	l0.605,0.101l0.604,0.101l0.604,0.101l0.604,0.202l0.605,0.202l0.604,0.302l0.604,0.302l0.705,0.303l0.706,0.403l0.705,0.504
	l0.706,0.504l0.705,0.504l0.706,0.604l0.705,0.706l0.706,0.706l0.604,0.706l0.705,0.706l0.605,0.806l0.604,0.806l0.604,0.807
	l0.604,0.907l0.504,0.907l0.504,0.907l0.504,0.907l0.504,0.907l0.504,0.907l0.505,1.008l0.402,1.008l0.403,1.008l0.403,1.008
	l0.303,1.008l0.302,1.008l0.303,1.008l0.303,1.008l0.201,1.008l0.201,1.008l0.202,1.008l0.201,1.008l0.101,1.008l0.102,1.008
	l0.302,0.202l0.303,0.302l0.302,0.302l0.303,0.302l0.303,0.302l0.302,0.303l0.303,0.302l0.303,0.302l0.302,0.303l0.303,0.302
	l0.302,0.302l0.303,0.302l0.201,0.403l0.303,0.302l0.202,0.403l0.201,0.403l0.201,0.403l0.202,0.403l0.201,0.403l0.202,0.403
	l0.201,0.403l0.201,0.403l0.202,0.403l0.201,0.403l0.102,0.403l0.201,0.403l0.101,0.403l0.101,0.403l0.101,0.403l0.102,0.403
	l0.101,0.504l0.101,0.403h0.101h0.101h0.102h0.101h0.101h0.101h0.101h0.102l0.101,0.101h0.101h0.101l0.101,0.101h0.101l0.102,0.101
	h0.101l0.101,0.101l0.303,0.202l0.302,0.202l0.303,0.202l0.302,0.202l0.303,0.302l0.303,0.302l0.302,0.302l0.303,0.302l0.303,0.303
	l0.302,0.302l0.202,0.302l0.201,0.303l0.201,0.302l0.202,0.403l0.201,0.303l0.202,0.403l0.201,0.403l0.202,0.403l0.201,0.403
	l0.201,0.403l0.102,0.403l0.101,0.403l0.101,0.403l0.101,0.403l0.101,0.403l0.101,0.403l0.102,0.403l0.101,0.403v0.403l0.101,0.403
	v0.403L565.731,262.053z M297.027,426.34c-14.211-8.164-28.423-16.328-42.634-24.492c-3.931-2.318-7.458-4.938-10.583-7.761
	c-27.516-25.399-24.492-72.468-12.498-112.279c5.644-18.646,13.103-35.78,20.359-48.278c12.498-21.67,27.616-40.215,43.642-54.628
	c0.201,1.411,0.504,2.923,0.806,4.435h0.604c0,0,0,5.04,0.202,6.048c0.202,1.008,5.241,3.427,7.156,1.814s0.201-4.233,0.201-4.233
	s1.008-0.101,0.403-1.21c-0.705-1.209-1.612-2.419-1.612-2.419h0.402c0,0-0.302-5.745,0-11.288c2.924-2.318,5.746-4.435,8.669-6.551
	l-0.605,14.614c0,0-2.821,9.978,0.706,15.521c2.721,4.334,13.606,12.397,18.344,15.824c-0.403,0.403-0.706,0.806-1.108,1.108
	c-0.202,0.202-0.403,0.403-0.605,0.605c-0.604,0.604-1.108,1.108-1.713,1.713c-0.202,0.202-0.403,0.504-0.605,0.706
	c-0.504,0.604-1.108,1.108-1.612,1.713c-0.201,0.202-0.504,0.504-0.705,0.706c-0.504,0.604-1.008,1.108-1.512,1.713
	c-0.202,0.302-0.505,0.504-0.706,0.806c-0.504,0.605-1.008,1.109-1.512,1.713c-0.202,0.303-0.504,0.605-0.706,0.807
	c-0.504,0.604-1.008,1.108-1.512,1.713c-0.302,0.302-0.504,0.604-0.806,0.907c-0.504,0.604-0.907,1.108-1.411,1.713
	c-0.303,0.302-0.504,0.604-0.807,1.008c-0.504,0.604-0.907,1.108-1.411,1.713c-0.302,0.302-0.504,0.706-0.806,1.008
	c-0.403,0.605-0.907,1.109-1.311,1.713c-0.303,0.403-0.504,0.706-0.807,1.109c-0.403,0.604-0.807,1.108-1.311,1.713
	c-0.302,0.403-0.604,0.706-0.806,1.108c0,0.101-0.101,0.101-0.101,0.202c-0.403,0.504-0.706,1.008-1.109,1.512
	c-0.302,0.403-0.604,0.807-0.806,1.21c-0.403,0.604-0.807,1.108-1.21,1.713c-0.303,0.403-0.604,0.806-0.807,1.209
	c-0.402,0.604-0.806,1.108-1.209,1.713c-0.303,0.403-0.605,0.806-0.807,1.31c-0.402,0.605-0.807,1.209-1.108,1.713
	c-0.302,0.403-0.604,0.907-0.806,1.311c-0.404,0.604-0.807,1.209-1.109,1.814c-0.302,0.403-0.504,0.806-0.806,1.311
	c-0.403,0.705-0.806,1.31-1.209,2.016c-0.202,0.403-0.403,0.706-0.706,1.108c-0.605,1.008-1.209,2.117-1.915,3.125
	c-6.249,10.785-11.49,21.771-15.723,32.656c0,0.101-0.101,0.202-0.101,0.303c-0.403,1.008-0.806,2.016-1.108,3.023
	c-0.202,0.403-0.302,0.807-0.403,1.209c-0.202,0.706-0.504,1.311-0.706,2.016c-0.202,0.705-0.504,1.31-0.706,2.016
	c-0.101,0.403-0.302,0.806-0.403,1.209C257.517,355.484,264.673,406.888,297.027,426.34z M506.468,170.838l-8.87,5.14
	c-0.101,0.101-0.201,0.101-0.302,0.202c1.209-0.706,1.915-2.419,1.915-4.737c0-4.334-2.521-9.272-5.645-11.087
	c-0.504-0.202-0.907-0.403-1.311-0.504c-1.008-4.636-3.729-9.272-6.854-11.591c-0.807-10.885-7.257-22.778-15.018-27.213
	c-6.854-3.931-12.699-1.008-14.514,6.551c-1.512-2.117-3.326-3.83-5.241-4.939c-2.116-1.209-4.132-1.512-5.745-0.907l8.87-5.141
	l0.402-0.101l0.504-0.101l0.403-0.101h0.504h0.504l0.504,0.101l0.504,0.101l0.504,0.101l0.504,0.202l0.505,0.202l0.504,0.302
	l0.504,0.303l0.201,0.101l0.202,0.101l0.201,0.101l0.201,0.101l0.202,0.101l0.201,0.101l0.202,0.101l0.201,0.101l0.201,0.101
	l0.202,0.101l0.201,0.101l0.202,0.101l0.201,0.101l0.202,0.101l0.101,0.202h0.101l8.467-4.838l0.504-0.202l0.504-0.101l0.504-0.101
	l0.504-0.101h0.604h0.504h0.604l0.605,0.101l0.604,0.101l0.604,0.202l0.604,0.202l0.605,0.302l0.604,0.302l0.604,0.302l0.706,0.303
	l0.705,0.504l0.706,0.504l0.705,0.504l0.705,0.604l0.706,0.605l0.705,0.604l0.706,0.706l0.604,0.706l0.706,0.706l0.604,0.806
	l0.604,0.807l0.604,0.806l0.605,0.806l0.504,0.907l0.504,0.907l0.504,0.907l0.504,0.907l0.504,0.907l0.504,0.907l0.403,1.008
	l0.403,1.008l0.402,1.008l0.303,1.008l0.303,1.008l0.302,1.008l0.303,1.008l0.201,1.008l0.202,1.008l0.201,1.008l0.202,1.008
	l0.101,1.008l0.101,1.008l0.303,0.202l0.302,0.202l0.303,0.302l0.302,0.302l0.303,0.303l0.303,0.302l0.302,0.302l0.303,0.302
	l0.302,0.303l0.303,0.302l0.303,0.302l0.302,0.303l0.202,0.302l0.302,0.403l0.202,0.403l0.201,0.403l0.202,0.403l0.201,0.403
	l0.202,0.403l0.201,0.403l0.201,0.403l0.202,0.403l0.201,0.403l0.202,0.403l0.201,0.403l0.101,0.403l0.102,0.403l0.101,0.403
	l0.101,0.403l0.101,0.403l0.101,0.403l0.102,0.504h0.101h0.101h0.101h0.101h0.102h0.101h0.101h0.101h0.102h0.101l0.101,0.101h0.101
	l0.101,0.101h0.102l0.101,0.101h0.101l0.303,0.202l0.302,0.202l0.303,0.201l0.302,0.202l0.303,0.202l0.303,0.302l0.302,0.302
	l0.303,0.303l0.201,0.302l0.303,0.302l0.201,0.303l0.202,0.302l0.201,0.302l0.202,0.302l0.201,0.403l0.202,0.403l0.201,0.403
	l0.201,0.403l0.202,0.403l0.201,0.403l0.101,0.403l0.102,0.403l0.101,0.403l0.101,0.403l0.101,0.403l0.102,0.403l0.101,0.403
	l0.101,0.403v0.403l0.101,0.403v0.403v0.403v0.403v0.403l-0.101,0.403v0.302l-0.101,0.302l-0.101,0.303l-0.102,0.302l-0.101,0.302
	l-0.101,0.303l-0.101,0.302l-0.102,0.202l-0.101,0.201l-0.201,0.202l-0.202,0.202l-0.201,0.202L506.468,170.838z"></path>
<path id="color_x5F_7" fill="#67A4BF" d="M221.636,411.222c0-2.722,1.411-5.141,3.729-6.552l18.445-10.583
	c3.125,2.923,6.652,5.544,10.583,7.761c14.211,8.164,28.423,16.328,42.634,24.492c0.202,0.101,0.504,0.302,0.706,0.403
	c19.956,11.489,45.657,8.97,71.358-4.536l-64.202,37.091c-2.42,1.411-5.141,1.411-7.56,0l-71.964-41.525
	C223.047,416.361,221.636,414.043,221.636,411.222z M159.046,366.27c15.723,0,28.624-7.357,28.624-16.43
	c0-8.566-11.49-15.621-26.003-16.428c-0.101,0.504-0.202,0.906-0.403,1.41c-0.403,3.226-0.706,6.25-1.109,8.77
	c8.668,0.303,15.724,3.628,16.328,7.962c-0.706,5.241-8.265,9.272-17.537,9.272c-9.273,0-16.832-4.132-17.538-9.272
	c0.706-4.132,7.357-7.458,15.723-7.861c-0.403-2.923-0.907-6.35-1.31-10.18c-14.313,0.907-25.5,7.861-25.5,16.327
	C130.422,358.912,143.323,366.27,159.046,366.27z M159.046,419.587c15.723,0,28.624-7.357,28.624-16.429
	c0-2.218-0.806-4.435-2.217-6.35c-0.504,9.071-12.195,16.227-26.407,16.227s-25.802-7.257-26.407-16.227
	c-1.411,1.915-2.217,4.132-2.217,6.35C130.422,412.229,143.323,419.587,159.046,419.587z M288.459,518.563L54.124,383.504v13.405
	l234.335,136.268L585.285,361.33v-17.638L288.459,518.563z"></path>
<path id="color_x5F_6" fill="#F6FBFF" d="M470.989,277.07c-4.233,21.972-12.901,45.254-26.004,67.832
	c-20.661,35.779-48.277,62.791-75.793,77.305c-25.702,13.506-51.403,16.025-71.359,4.536c-0.302-0.102-0.504-0.303-0.706-0.403
	c-32.354-19.452-39.61-70.754-21.166-125.584c0.101-0.403,0.302-0.806,0.403-1.209c0.202-0.706,0.504-1.31,0.706-2.016
	s0.504-1.311,0.706-2.016c0.202-0.403,0.302-0.806,0.403-1.209c0.403-1.008,0.706-2.016,1.108-3.024
	c0-0.101,0.101-0.202,0.101-0.302c4.233-10.885,9.474-21.872,15.723-32.656c0.604-1.109,1.209-2.117,1.915-3.125
	c0.202-0.403,0.403-0.706,0.706-1.109c0.403-0.706,0.806-1.31,1.209-2.016c0.302-0.403,0.504-0.807,0.806-1.311
	c0.403-0.604,0.706-1.209,1.109-1.814c0.302-0.403,0.604-0.907,0.806-1.311c0.403-0.604,0.706-1.209,1.108-1.713
	c0.303-0.403,0.605-0.806,0.807-1.31c0.403-0.605,0.807-1.109,1.209-1.713c0.303-0.403,0.605-0.806,0.807-1.209
	c0.403-0.605,0.807-1.109,1.21-1.713c0.302-0.403,0.604-0.807,0.806-1.209c0.403-0.504,0.706-1.008,1.109-1.512
	c0-0.101,0.101-0.101,0.101-0.202c0.302-0.403,0.604-0.807,0.806-1.109c0.403-0.604,0.807-1.108,1.311-1.713
	c0.303-0.403,0.504-0.706,0.807-1.109c0.403-0.604,0.907-1.108,1.311-1.713c0.302-0.302,0.504-0.706,0.806-1.008
	c0.403-0.604,0.907-1.109,1.411-1.713c0.303-0.302,0.504-0.604,0.807-1.008c0.504-0.605,0.907-1.109,1.411-1.713
	c0.201-0.302,0.504-0.605,0.806-0.907c0.504-0.604,1.008-1.209,1.512-1.713c0.202-0.302,0.504-0.604,0.706-0.806
	c0.504-0.605,1.008-1.209,1.512-1.713c0.201-0.303,0.504-0.504,0.705-0.807c0.505-0.604,1.009-1.209,1.513-1.713
	c0.201-0.202,0.402-0.504,0.705-0.706c0.504-0.604,1.108-1.209,1.612-1.713c0.202-0.202,0.403-0.504,0.605-0.706
	c0.504-0.604,1.108-1.209,1.713-1.713c0.202-0.202,0.403-0.403,0.604-0.604c0.403-0.403,0.706-0.706,1.109-1.109
	c1.411,1.008,2.217,1.613,2.217,1.613l1.008,10.482c-10.885,11.289-21.064,24.593-29.833,39.812
	c-35.176,60.877-34.067,127.297,2.419,148.362c36.485,21.065,94.54-11.188,129.716-72.064
	c35.176-60.876,34.067-127.297-2.419-148.362c-20.763-11.994-48.58-6.652-75.088,11.389c-0.807-3.125-2.52-6.854-6.35-9.877
	c0.302-0.202,0.504-0.403,0.806-0.605c0.101-0.101,0.202-0.101,0.303-0.201c0.705-0.504,1.512-1.109,2.218-1.613
	c0.101-0.101,0.101-0.101,0.201-0.202c0.807-0.504,1.512-1.008,2.318-1.512c0.101,0,0.101-0.101,0.201-0.101
	c0.807-0.504,1.512-1.008,2.318-1.512l0.101-0.101c0.807-0.504,1.612-1.008,2.419-1.512h0.101c0.807-0.504,1.613-1.008,2.419-1.411
	l0,0c9.172-5.342,18.344-9.273,27.314-11.792c0.101,0,0.201-0.101,0.302-0.101c0.706-0.202,1.411-0.403,2.017-0.504
	c0.302-0.101,0.604-0.101,0.806-0.202c0.504-0.101,1.008-0.201,1.512-0.403c0.403-0.101,0.706-0.202,1.109-0.202
	c0.403-0.101,0.806-0.202,1.209-0.202c0.403-0.101,0.907-0.202,1.311-0.202c0.303-0.101,0.705-0.101,1.008-0.201
	c0.504-0.101,0.907-0.101,1.411-0.202c0.303,0,0.604-0.101,0.907-0.101c0.504-0.101,1.008-0.101,1.512-0.201
	c0.303,0,0.504-0.101,0.807-0.101c0.504-0.101,1.108-0.101,1.612-0.101c0.201,0,0.504,0,0.705-0.101
	c0.504,0,1.109-0.101,1.613-0.101c0.201,0,0.403,0,0.604,0c0.604,0,1.108,0,1.714,0c0.201,0,0.402,0,0.604,0
	c0.604,0,1.108,0,1.713,0c0.202,0,0.403,0,0.504,0c0.605,0,1.109,0.101,1.714,0.101c0.201,0,0.303,0,0.504,0
	c0.604,0,1.108,0.101,1.714,0.202c0.201,0,0.302,0,0.504,0c0.604,0.101,1.108,0.101,1.713,0.202c0.202,0,0.303,0,0.504,0.101
	c0.604,0.101,1.108,0.202,1.714,0.303c0.101,0,0.302,0.101,0.403,0.101c0.604,0.101,1.108,0.202,1.713,0.302
	c0.101,0,0.303,0.101,0.403,0.101c0.604,0.101,1.108,0.302,1.714,0.403c0.101,0,0.302,0.101,0.402,0.101
	c0.504,0.101,1.109,0.302,1.613,0.504c0.201,0,0.302,0.101,0.504,0.101c0.504,0.202,1.108,0.303,1.612,0.504
	c0.201,0.101,0.303,0.101,0.504,0.202c0.504,0.202,1.008,0.403,1.512,0.605c0.202,0.101,0.303,0.101,0.504,0.201
	c0.504,0.202,1.008,0.403,1.512,0.605c0.202,0.101,0.403,0.202,0.605,0.202c0.504,0.202,0.907,0.403,1.411,0.604
	c1.108,0.504,2.217,1.109,3.325,1.714C470.082,192.609,479.758,232.018,470.989,277.07z M356.19,156.627
	c4.334,1.814,9.575,2.822,15.219,2.822c4.334,0,10.785-1.008,16.127-3.326c3.427-1.411,6.35-3.427,8.365-6.047
	c1.411-1.915,2.217-4.132,2.217-6.652c0-2.217,0-4.536,0-6.753c0-0.202,0-0.403,0-0.706c0-3.124,0-6.148,0-9.272
	c0,0.101,0,0.302,0,0.403c0,0.101,0,0.302,0,0.403c0,0.101,0,0.302-0.101,0.403c0,0.101,0,0.302-0.101,0.403
	c0,0.202-0.101,0.403-0.101,0.504c0,0.101,0,0.202-0.101,0.302c-0.102,0.302-0.102,0.504-0.202,0.807l0,0
	c-2.52,7.357-13.304,12.8-26.205,12.8c-0.504,0-0.907,0-1.411,0c-0.101,0-0.201,0-0.303,0c-0.402,0-0.705,0-1.108,0
	c-0.101,0-0.101,0-0.201,0c-0.403,0-0.706-0.101-1.109-0.101h-0.101c-0.403,0-0.806-0.101-1.209-0.101l0,0
	c-8.265-1.008-15.119-4.334-18.646-8.769c0,0,0,0-0.101-0.101c-0.202-0.202-0.303-0.403-0.403-0.605l-0.101-0.101
	c-0.101-0.202-0.202-0.302-0.303-0.504c0-0.101-0.101-0.202-0.101-0.202c-0.101-0.101-0.201-0.302-0.303-0.504
	c-0.101-0.101-0.101-0.202-0.201-0.302c-0.101-0.101-0.101-0.202-0.201-0.403c-0.102-0.101-0.102-0.302-0.202-0.403
	c0-0.101-0.101-0.201-0.101-0.302c-0.101-0.202-0.101-0.302-0.202-0.504c0-0.101,0-0.101-0.101-0.202
	c-0.101-0.202-0.101-0.403-0.201-0.604v-0.101c-0.101-0.202-0.101-0.504-0.101-0.706l0,0c0-0.302-0.102-0.504-0.102-0.806v7.358
	v8.567c0,1.713,0.504,3.427,1.311,4.938C347.824,151.789,351.453,154.611,356.19,156.627z M326.961,135.461
	c4.334,0,6.148-1.108,6.955-2.217c-1.008-0.504-1.915-0.706-2.318-0.806l0,0c-0.101,0-0.202,0-0.202-0.101
	c0,0-2.923,1.109-6.45,0.706c-3.427-0.403-5.745-4.031-5.745-4.031c-0.302,0.201-0.604,0.403-0.907,0.604l0,0l0,0l-0.302,0.202
	l-0.202,0.101l0,0l0,0l0,0l0,0l0,0l0,0l0,0l0,0l0,0l0,0l0,0l0,0l0,0l0,0C318.696,131.934,322.325,135.461,326.961,135.461z
	 M493.566,160.356c-0.504-0.202-0.907-0.403-1.311-0.504c-1.008-4.636-3.729-9.272-6.854-11.591
	c-0.807-10.885-7.257-22.778-15.018-27.213c-6.854-3.931-12.699-1.008-14.514,6.551c-1.512-2.117-3.326-3.83-5.241-4.939
	c-2.116-1.209-4.132-1.512-5.745-0.907c-0.302,0.101-0.705,0.302-1.008,0.504c0,0,0,0-0.101,0c-0.303,0.202-0.504,0.403-0.807,0.604
	l-0.101,0.101c-0.201,0.202-0.403,0.504-0.604,0.706l-0.101,0.101c-0.403,0.604-0.807,1.31-1.109,2.217
	c0,0.101-0.101,0.202-0.101,0.302c-0.101,0.303-0.201,0.605-0.303,1.008c0,0.201-0.101,0.302-0.101,0.504
	c-0.101,0.302-0.101,0.706-0.201,1.008c0,0.202,0,0.302-0.101,0.504c0,0.504-0.102,1.008-0.102,1.613
	c0,7.861,4.637,16.933,10.382,20.258l19.755,11.389l14.01,8.063l9.172,5.241c0.604,0.302,1.108,0.504,1.612,0.604
	s1.108,0,1.512-0.101c1.512-0.504,2.52-2.318,2.52-5.04C499.211,167.109,496.69,162.17,493.566,160.356z M551.117,256.207
	c-0.403-0.302-0.807-0.403-1.21-0.504c-1.008-4.636-3.729-9.172-6.854-11.591c-0.806-10.885-7.257-22.678-15.018-27.213
	c-6.954-3.931-12.699-1.008-14.514,6.551c-1.512-2.116-3.326-3.83-5.241-4.938c-2.318-1.311-4.435-1.512-6.147-0.706
	c-0.202,0.101-0.303,0.101-0.505,0.202c-0.101,0.101-0.302,0.202-0.402,0.302c-0.102,0.101-0.303,0.202-0.403,0.302
	c-0.101,0.101-0.202,0.202-0.403,0.303c-0.101,0.101-0.303,0.302-0.403,0.403c-0.101,0.101-0.201,0.302-0.302,0.403
	c-0.102,0.202-0.303,0.403-0.403,0.706c-0.101,0.202-0.202,0.302-0.303,0.504c-0.101,0.302-0.201,0.504-0.403,0.806
	c-0.101,0.202-0.101,0.302-0.201,0.504c-0.101,0.303-0.202,0.504-0.202,0.807c0,0.202-0.101,0.403-0.101,0.504
	c-0.101,0.302-0.101,0.604-0.101,1.008c0,0.202,0,0.302-0.101,0.504c0,0.504-0.101,1.008-0.101,1.613
	c0,7.861,4.636,16.933,10.381,20.259l19.755,11.389l14.01,8.063l9.172,5.342c1.512,0.806,2.822,0.806,3.83,0.202
	c0.101,0,0.101-0.101,0.201-0.101c1.008-0.806,1.613-2.419,1.613-4.535C556.762,262.96,554.241,258.021,551.117,256.207z
	 M163.178,328.271c-0.605,1.713-1.109,3.427-1.512,5.241c14.514,0.806,26.003,7.861,26.003,16.429
	c0,9.07-12.901,16.429-28.624,16.429s-28.624-7.358-28.624-16.429c0-8.467,11.188-15.421,25.5-16.328
	c-0.101-1.008-0.202-2.016-0.403-3.125c-0.201-0.705-0.403-1.41-0.706-2.116c-2.016,0.202-4.031,0.403-5.946,0.807
	c-9.474,1.915-17.134,6.35-21.065,12.095c-1.814,2.621-2.822,5.645-2.822,8.668c0,1.612,0.302,3.225,0.806,4.736
	c2.722,7.862,12.095,14.111,24.089,16.228c0.101,0,0.101,0,0.202,0c0.302,0.101,0.706,0.101,1.008,0.202
	c0.202,0,0.403,0.101,0.504,0.101c0.302,0,0.605,0.101,0.907,0.101c0.202,0,0.504,0.101,0.706,0.101
	c0.302,0,0.504,0.101,0.806,0.101s0.605,0,0.806,0.102c0.202,0,0.504,0,0.706,0.101c0.303,0,0.706,0,1.008,0
	c0.201,0,0.403,0,0.604,0c0.504,0,1.109,0,1.613,0s1.108,0,1.612,0c0.202,0,0.403,0,0.605,0c0.302,0,0.706,0,1.008,0
	c0.202,0,0.504,0,0.706-0.101c0.302,0,0.605,0,0.907-0.102c0.302,0,0.504-0.101,0.806-0.101c0.202,0,0.504-0.101,0.706-0.101
	c0.302,0,0.605-0.101,0.907-0.101c0.202,0,0.403-0.101,0.604-0.101c0.303,0,0.605-0.102,1.008-0.202c0.101,0,0.202,0,0.303-0.101
	c9.272-1.613,16.933-5.745,21.267-11.188l0,0c0.202-0.201,0.403-0.504,0.604-0.807l0.101-0.101c0.201-0.202,0.302-0.504,0.504-0.706
	c0-0.101,0.101-0.101,0.101-0.201c0.101-0.201,0.302-0.504,0.403-0.705c0-0.102,0.101-0.102,0.101-0.202
	c0.403-0.706,0.706-1.512,1.008-2.218c0.504-1.512,0.807-3.225,0.807-4.838C193.012,338.754,180.01,329.582,163.178,328.271z"></path>
<path id="color_x5F_5" fill="#FFD2BB" d="M339.762,114.799c0.302,6.249-3.125,14.413-6.955,14.816c0,0-1.209,0-1.915-0.403
	l0.504,3.125c0,0-2.923,1.108-6.45,0.705c-3.427-0.403-5.745-4.031-5.745-4.031l0.907-5.645c0,0-0.705-0.201-1.612-3.628
	c-0.907-3.527,0.302-6.551,2.217-7.861c1.814-1.209,3.83,2.217,3.427,4.334c0,0,2.218,0.907,1.814-2.016
	c-0.302-2.923-1.814-6.551-0.604-7.66c1.209-1.008,8.869,2.117,13.103-0.403C338.451,106.131,339.459,108.651,339.762,114.799z
	 M304.687,185.654c-0.706-1.209-1.612-2.419-1.612-2.419h-6.35c0,0,0,5.04,0.202,6.047s5.241,3.427,7.156,1.814
	c1.915-1.612,0.201-4.233,0.201-4.233S305.393,186.864,304.687,185.654z M357.299,178.397c-0.504-1.008-6.552-3.023-6.552-3.023
	c0,0.302,0,0.907-0.201,1.512c0,0.101,0,0.201-0.101,0.302c0,0.101,0,0.101-0.101,0.202c-0.102,0.202-0.102,0.302-0.202,0.403
	c0,0,0,0,0,0.101c-0.101,0.101-0.201,0.302-0.302,0.403c0,0,0,0.101-0.102,0.101c-0.101,0.101-0.201,0.202-0.402,0.302
	c0,0-0.102,0-0.102,0.101c-0.201,0.101-0.302,0.201-0.504,0.201c-0.101,0-0.201,0-0.302,0c-0.102,0-0.102,0-0.202,0
	c0,0,1.21,3.729,2.016,4.133c0.807,0.302,1.009-0.403,1.009-0.403s1.41,1.814,2.721,1.512
	C355.384,184.042,357.702,179.405,357.299,178.397z"></path>
<path id="color_x5F_4" fill="#00CEC9" d="M585.285,343.692L470.989,277.07c-4.233,21.972-12.9,45.254-26.004,67.832
	c-20.661,35.779-48.277,62.791-75.793,77.305l-64.203,37.091c-2.419,1.411-5.141,1.411-7.56,0l-71.963-41.525
	c-2.419-1.411-3.729-3.729-3.729-6.551c0-2.722,1.411-5.141,3.729-6.552l18.444-10.583c-27.516-25.399-24.492-72.468-12.498-112.279
	l-64.606,37.091c-1.31,3.023-2.52,6.148-3.527,9.373c16.832,1.311,29.833,10.482,29.833,21.568c0,1.714-0.302,3.326-0.806,4.838
	c0-0.1,0.101-0.201,0.101-0.302l-6.955,41.727c0,0.202,0,0.403,0,0.706c1.411,1.915,2.217,4.132,2.217,6.35
	c0,9.071-12.901,16.429-28.624,16.429s-28.624-7.357-28.624-16.429c0-2.218,0.806-4.435,2.217-6.35c0-0.202,0-0.403,0-0.706
	l-6.854-41.727c0,0.101,0.101,0.202,0.101,0.202c-0.504-1.512-0.807-3.125-0.807-4.738c0-3.124,1.008-6.047,2.822-8.668
	l-73.778,42.332l234.335,135.059L585.285,343.692z"></path>
<path id="color_x5F_3" fill="#E84393" d="M318.696,277.877l-13.606-7.862c0.807-1.411,1.612-2.923,2.52-4.435
	c0.907-1.512,1.714-2.923,2.621-4.334l13.606,7.861c2.419,1.411,3.226,4.536,1.814,6.955S321.115,279.288,318.696,277.877z
	 M456.476,246.531c-0.806,0.101-1.512,0.302-2.217,0.706l-18.949,10.986c-2.419,1.411-3.225,4.536-1.813,6.955
	s4.535,3.225,6.854,1.814l16.529-9.474C456.879,253.687,456.778,250.059,456.476,246.531z M325.55,378.666
	c-2.419-1.41-5.543-0.604-6.954,1.814l-13.002,22.577c1.311,1.008,2.722,1.915,4.233,2.821c1.512,0.907,3.023,1.613,4.535,2.318
	l13.002-22.576C328.775,383.201,327.969,380.077,325.55,378.666z M364.959,223.45c0,2.822,2.217,5.04,5.039,5.04
	s5.04-2.217,5.04-5.04v-21.871c0-0.807-0.202-1.613-0.504-2.318c-3.226,1.512-6.35,3.226-9.575,5.141V223.45z M371.913,169.528
	c5.342,0,15.724-2.52,15.724-9.474c0-0.504,0-2.117,0-3.931c-5.442,2.318-11.793,3.326-16.127,3.326
	c-5.644,0-10.885-1.109-15.219-2.822v3.527C356.19,165.295,363.245,169.528,371.913,169.528z M306.702,338.25
	c-1.411-2.42-4.535-3.226-6.954-1.814l-16.529,9.475c-0.101,3.729,0,7.357,0.302,10.885c0.806-0.101,1.512-0.303,2.217-0.705
	l19.049-10.986C307.308,343.692,308.113,340.668,306.702,338.25z M414.446,327.264c-1.411,2.419-0.604,5.543,1.814,6.955
	l13.606,7.861c0.907-1.412,1.714-2.924,2.621-4.334c0.906-1.412,1.612-2.924,2.419-4.436l-13.607-7.861
	C418.982,324.038,415.857,324.845,414.446,327.264z M421.401,222.745l13.103-22.577c-1.411-1.008-2.722-1.915-4.233-2.721
	c-1.411-0.907-2.923-1.613-4.535-2.318l-13.104,22.577c-1.41,2.419-0.604,5.543,1.814,6.954
	C416.966,225.97,419.99,225.164,421.401,222.745z M369.998,374.735c-2.822,0-5.039,2.318-5.039,5.04v21.871
	c0,0.806,0.201,1.612,0.504,2.318c3.226-1.513,6.35-3.226,9.575-5.241v-19.05C375.139,377.054,372.82,374.735,369.998,374.735z
	 M384.109,277.373c-3.326-1.915-7.358-1.814-11.591-0.201c-6.048,2.419-12.498,8.164-17.034,16.025
	c-7.761,13.506-7.559,28.12,0.504,32.756c8.063,4.637,20.863-2.52,28.625-15.925c4.736-8.063,6.45-16.63,5.342-23.181
	C389.249,282.614,387.233,279.187,384.109,277.373z M351.554,235.243L351.554,235.243c0.101,0.101,0.202,0.202,0.303,0.302
	l0.101,0.101c0.101,0.101,0.101,0.101,0.201,0.202c0.102,0.101,0.202,0.101,0.202,0.201l0.101,0.101
	c0.101,0.101,0.201,0.202,0.303,0.202c0,0,0.101,0,0.101,0.101c0.101,0.101,0.302,0.202,0.403,0.302l0,0
	c0.705,0.403,1.31,0.706,1.813,0.605c0.907-0.202,1.915-1.209,2.621-1.915l0,0c0.201-0.202,0.403-0.403,0.504-0.604
	c0.101-0.101,0.201-0.202,0.201-0.202l0.504-25.601c0,0,0.303-2.721-0.604-6.249c-0.807-3.125-2.52-6.854-6.35-9.877l0,0
	c-0.504-0.403-1.008-0.706-1.512-1.108c-9.776-6.35-13.405-12.801-13.405-12.801s-3.226,8.265-13.002,7.761
	c-9.877-0.504-12.8-6.451-12.8-6.451s-2.822,9.978,0.705,15.521c2.722,4.334,13.606,12.397,18.344,15.824l0,0
	c1.411,1.008,2.218,1.612,2.218,1.612l1.008,10.482l1.814,19.049c0,0,0,0.202,0.101,0.605l0,0c0.101,0.302,0.201,0.706,0.403,1.209
	c0,0,0,0.101,0.101,0.101c0,0.101,0.101,0.202,0.101,0.303l0.101,0.101c0,0.101,0.102,0.202,0.102,0.202l0.101,0.101
	c0.101,0.101,0.201,0.303,0.302,0.403c0,0.101,0.102,0.101,0.102,0.202c0.101,0.101,0.101,0.101,0.201,0.202
	c0.101,0.101,0.101,0.101,0.201,0.202c0.102,0.101,0.102,0.101,0.202,0.201c0.101,0,0.101,0.101,0.201,0.101
	c0.101,0.101,0.202,0.101,0.303,0.202c0.101,0.101,0.201,0.101,0.303,0.201c0.101,0,0.201,0.101,0.201,0.101
	c0.101,0,0.201,0.101,0.303,0.101c0.101,0,0.201,0,0.302,0.101c0.101,0,0.202,0,0.303,0.101c0.101,0,0.201,0,0.302,0
	c0.202,0,0.403,0,0.605,0c0.201,0,0.402-0.101,0.604-0.101c0.101,0,0.201,0,0.201-0.101c0.102,0,0.202-0.101,0.303-0.101
	s0.201-0.101,0.201-0.101c0.102,0,0.202-0.101,0.202-0.101c0.101,0,0.101-0.101,0.201-0.101s0.202-0.101,0.202-0.101
	c0.101,0,0.101-0.101,0.201-0.101c0.101-0.101,0.202-0.202,0.303-0.303l0.101-0.101c0.101-0.101,0.101-0.101,0.201-0.202
	c0,0,0-0.101,0.102-0.101c0.101-0.101,0.101-0.202,0.201-0.303l0,0c0.604-1.008,0.403-2.116,0.403-2.116l2.52-24.794l-0.201-6.753
	l-0.202-6.753l0.706,6.35l0.806,7.66l2.521,14.917C350.345,234.134,350.849,234.638,351.554,235.243z"></path>
<path id="color_x5F_2" fill="#FBC02D" d="M398.118,252.981l-8.163,33.866c-0.706-4.233-2.722-7.66-5.846-9.475
	c-3.326-1.915-7.358-1.814-11.591-0.201L398.118,252.981z M336.436,166.504c0,0,9.474,12.296,12.095,12.599c0.101,0,0.201,0,0.302,0
	c0.202-0.101,0.403-0.101,0.505-0.202c0,0,0.101,0,0.101-0.101c0.101-0.101,0.302-0.202,0.403-0.303c0,0,0-0.101,0.101-0.101
	c0.101-0.101,0.201-0.202,0.302-0.403c0,0,0,0,0-0.101c0.102-0.101,0.102-0.302,0.202-0.403c0-0.101,0-0.101,0.101-0.202
	c0-0.101,0.101-0.202,0.101-0.302c0.202-0.907,0.202-1.814,0.202-1.814l-10.986-22.073c0-0.202,0-0.806,0-2.419
	c0-1.31,0-3.326,0-6.35c0-10.482-8.365-11.792-8.365-11.792s0.101,0,0.201,0.101l0,0c0.403,0.101,1.21,0.302,2.318,0.806
	c-0.807,1.008-2.621,2.217-6.954,2.217c-4.536,0-8.164-3.527-9.374-5.241l0,0c-21.569,14.715-25.601,27.515-22.173,48.681
	c0.201,1.411,0.504,2.923,0.806,4.435h0.604h6.35h0.403c0,0-0.302-5.745,0-11.289c0.202-3.527,0.604-6.954,1.513-8.769
	c2.317-4.838,7.659-7.66,7.659-7.66l-0.403,9.978l-0.604,14.614c0,0,2.923,5.947,12.801,6.451
	c9.877,0.605,13.001-7.761,13.001-7.761C336.839,178.196,336.436,169.729,336.436,166.504z M368.99,240.282
	c-2.318-0.706-8.769-4.737-10.28-5.644l0,0c0,0-0.101,0.101-0.202,0.201c-0.101,0.101-0.302,0.303-0.504,0.605l0,0l0,0
	c-0.705,0.706-1.612,1.613-2.62,1.814h-0.101c-0.504,0.101-1.108-0.101-1.814-0.605l0,0c-0.101-0.101-0.303-0.202-0.403-0.302
	c0,0-0.101,0-0.101-0.101c-0.101-0.101-0.201-0.202-0.303-0.202c-0.101,0-0.101-0.101-0.101-0.101
	c-0.101-0.101-0.201-0.101-0.201-0.202c-0.101-0.101-0.101-0.101-0.202-0.202l-0.101-0.101c-0.101-0.101-0.201-0.202-0.302-0.202
	c0,0,0,0-0.102,0c-0.705-0.604-1.209-1.109-1.209-1.109s-1.21,6.552,1.612,6.652c4.133,0.202,13.305,7.862,17.437,5.14
	C372.417,243.709,371.309,241.088,368.99,240.282z M354.477,249.454c-2.318-0.806-8.668-4.737-10.28-5.644
	c0,0.403,0,1.108-0.403,1.814l0,0c-0.101,0.101-0.101,0.202-0.201,0.302c0,0,0,0.101-0.102,0.101
	c-0.101,0.101-0.101,0.202-0.201,0.202l-0.101,0.101c-0.101,0.101-0.202,0.202-0.303,0.302c0,0-0.101,0.101-0.201,0.101
	s-0.101,0.101-0.202,0.101c-0.101,0-0.101,0.101-0.201,0.101s-0.202,0.101-0.202,0.101c-0.101,0-0.201,0.101-0.201,0.101
	c-0.101,0-0.201,0.101-0.303,0.101c-0.101,0-0.201,0-0.201,0.101c-0.201,0-0.403,0.101-0.604,0.101c-0.202,0-0.403,0-0.605,0
	c-0.101,0-0.201,0-0.302,0s-0.202,0-0.303-0.101c-0.101,0-0.201,0-0.302-0.101c-0.102,0-0.202-0.101-0.303-0.101
	s-0.201-0.101-0.201-0.101c-0.102-0.101-0.202-0.101-0.303-0.202c-0.101-0.101-0.201-0.101-0.303-0.202
	c-0.101,0-0.101-0.101-0.201-0.101c-0.101-0.101-0.101-0.101-0.201-0.202c-0.102-0.101-0.102-0.101-0.202-0.202
	c-0.101-0.101-0.101-0.101-0.201-0.202c0-0.101-0.102-0.101-0.102-0.201c-0.101-0.101-0.201-0.303-0.302-0.403l-0.101-0.101
	c-0.102-0.101-0.102-0.201-0.102-0.201l-0.101-0.101c0-0.101-0.101-0.202-0.101-0.302c0,0,0-0.101-0.101-0.101
	c-0.202-0.403-0.303-0.807-0.403-1.209l0,0l0,0c0,0-1.21,6.551,1.612,6.652c4.133,0.202,13.405,7.862,17.437,5.14
	C357.903,252.981,356.795,250.26,354.477,249.454z"></path>
<path id="color_x5F_1_1_" fill="#02394D" d="M318.495,119.738c-0.907-3.527,0.302-6.551,2.217-7.861
	c1.814-1.209,3.83,2.217,3.427,4.334c0,0,2.218,0.907,1.814-2.016c-0.302-2.923-1.814-6.551-0.604-7.66
	c1.209-1.008,8.869,2.117,13.103-0.403c0,0,2.722-2.217,1.21-5.644c-1.411-3.427-17.941-4.132-19.856-1.008l-0.604,1.209
	c0,0-2.419,0.101-2.52,2.621c-0.101,2.52-4.637,18.042,3.124,21.67l0.303-1.512C320.107,123.366,319.402,123.165,318.495,119.738z"></path>
</svg>