<?xml version="1.0" encoding="UTF-8" standalone="no"?>
<!-- Created with Inkscape (http://www.inkscape.org/) -->

<svg
   width="18mm"
   height="18mm"
   viewBox="0 0 18 18"
   version="1.1"
   id="svg2047"
   inkscape:version="1.2.2 (732a01da63, 2022-12-09)"
   sodipodi:docname="bantuan.svg"
   xmlns:inkscape="http://www.inkscape.org/namespaces/inkscape"
   xmlns:sodipodi="http://sodipodi.sourceforge.net/DTD/sodipodi-0.dtd"
   xmlns="http://www.w3.org/2000/svg"
   xmlns:svg="http://www.w3.org/2000/svg">
  <sodipodi:namedview
     id="namedview2049"
     pagecolor="#505050"
     bordercolor="#ffffff"
     borderopacity="1"
     inkscape:showpageshadow="0"
     inkscape:pageopacity="0"
     inkscape:pagecheckerboard="1"
     inkscape:deskcolor="#505050"
     inkscape:document-units="mm"
     showgrid="false"
     inkscape:zoom="5.8012346"
     inkscape:cx="54.471164"
     inkscape:cy="45.421366"
     inkscape:window-width="958"
     inkscape:window-height="991"
     inkscape:window-x="952"
     inkscape:window-y="0"
     inkscape:window-maximized="0"
     inkscape:current-layer="layer1" />
  <defs
     id="defs2044" />
  <g
     inkscape:label="Layer 1"
     inkscape:groupmode="layer"
     id="layer1">
    <rect
       style="fill:#3481ac;fill-opacity:1;stroke-width:0.331361"
       id="rect893"
       width="16.583332"
       height="16.583334"
       x="0.70833331"
       y="0.70833337"
       ry="1.1620063" />
    <g
       id="g2265"
       transform="matrix(0.45698383,0,0,-0.45698384,4.4301581,13.57166)">
      <path
         d="m 9.950001,4.003994 c 0.35,0 0.646001,0.121002 0.888,0.363002 0.242,0.241999 0.362666,0.537665 0.362,0.886999 -6.67e-4,0.349334 -0.121333,0.645333 -0.362,0.887999 -0.240666,0.242667 -0.536667,0.363334 -0.888,0.362001 -0.351334,-0.00133 -0.647001,-0.122334 -0.887,-0.363 -0.24,-0.240666 -0.361,-0.536333 -0.363,-0.887 -0.002,-0.350667 0.118999,-0.646668 0.363,-0.888001 0.244,-0.241333 0.539667,-0.362 0.887,-0.362 z m -0.9,3.850001 h 1.85 c 0,0.550001 0.06267,0.983333 0.188,1.3 0.125334,0.316666 0.479333,0.75 1.062,1.3 0.433333,0.433333 0.775,0.845999 1.025,1.238 0.25,0.392 0.375,0.862667 0.375,1.411999 0,0.933335 -0.341667,1.65 -1.025,2.15 -0.683334,0.5 -1.491666,0.75 -2.425,0.75 -0.949999,0 -1.720667,-0.25 -2.311999,-0.75 -0.591334,-0.5 -1.004,-1.1 -1.238,-1.799999 l 1.649999,-0.65 c 0.083333,0.299999 0.271,0.624999 0.562999,0.974999 0.292,0.35 0.737668,0.525001 1.337001,0.525001 0.533334,0 0.933334,-0.146 1.2,-0.438 0.266667,-0.291999 0.4,-0.612668 0.4,-0.962001 0,-0.333333 -0.100001,-0.645999 -0.3,-0.937999 -0.2,-0.292 -0.45,-0.562667 -0.75,-0.812 -0.733334,-0.65 -1.183333,-1.141667 -1.35,-1.475 -0.166667,-0.333333 -0.25,-0.941666 -0.25,-1.825 z m 0.95,-7.850001 c -1.383333,0 -2.683332,0.262335 -3.899999,0.787001 C 4.883335,1.31566 3.825001,2.028326 2.925001,2.928993 2.025002,3.82966 1.312668,4.887996 0.788001,6.103995 c -0.524666,1.216 -0.787333,2.516 -0.788,3.9 -6.66e-4,1.384 0.262,2.683999 0.788,3.899999 0.526,1.216 1.238334,2.274334 2.137,3.175001 0.898667,0.900667 1.957001,1.612999 3.175001,2.136999 1.218,0.524 2.517999,0.786667 3.899999,0.788 1.382,0.0013 2.681999,-0.261333 3.9,-0.788 1.218,-0.526667 2.276335,-1.239 3.175002,-2.136999 0.898666,-0.898001 1.611332,-1.956334 2.137998,-3.175001 0.526667,-1.218666 0.789002,-2.518666 0.787001,-3.899999 -0.002,-1.381333 -0.264668,-2.681333 -0.788,-3.9 C 18.688669,4.885328 17.976336,3.826994 17.075003,2.928993 16.17367,2.030993 15.115334,1.318329 13.900001,0.790995 12.684668,0.26366 11.384667,0.001328 10.000001,0.003994 Z"
         style="fill:#ffffff;fill-opacity:1;fill-rule:nonzero;stroke:none"
         id="path2267" />
    </g>
  </g>
</svg>
