<?xml version="1.0" encoding="UTF-8" standalone="no"?>
<!-- Created with Inkscape (http://www.inkscape.org/) -->

<svg
   width="18mm"
   height="18mm"
   viewBox="0 0 18 18"
   version="1.1"
   id="svg2047"
   inkscape:version="1.2.2 (732a01da63, 2022-12-09)"
   sodipodi:docname="data.svg"
   xmlns:inkscape="http://www.inkscape.org/namespaces/inkscape"
   xmlns:sodipodi="http://sodipodi.sourceforge.net/DTD/sodipodi-0.dtd"
   xmlns="http://www.w3.org/2000/svg"
   xmlns:svg="http://www.w3.org/2000/svg">
  <sodipodi:namedview
     id="namedview2049"
     pagecolor="#505050"
     bordercolor="#ffffff"
     borderopacity="1"
     inkscape:showpageshadow="0"
     inkscape:pageopacity="0"
     inkscape:pagecheckerboard="1"
     inkscape:deskcolor="#505050"
     inkscape:document-units="mm"
     showgrid="false"
     inkscape:zoom="8.6552965"
     inkscape:cx="4.5636796"
     inkscape:cy="24.782513"
     inkscape:window-width="1920"
     inkscape:window-height="1001"
     inkscape:window-x="-9"
     inkscape:window-y="-9"
     inkscape:window-maximized="1"
     inkscape:current-layer="g2032" />
  <defs
     id="defs2044" />
  <g
     inkscape:label="Layer 1"
     inkscape:groupmode="layer"
     id="layer1">
    <g
       id="g2032"
       transform="matrix(0.7709627,0,0,0.78038773,-73.908418,-0.78340641)">
      <rect
         style="fill:#3481ac;fill-opacity:1;stroke-width:0.427198"
         id="rect893"
         width="21.509903"
         height="21.250122"
         x="96.783867"
         y="1.9115367"
         ry="1.4890114" />
      <g
         id="g252"
         transform="matrix(0.53833342,0,0,-0.53183181,101.88632,17.589)">
        <path
           d="m 2,19 h 14 c 0.530434,0 1.039141,-0.210714 1.414213,-0.585787 C 17.789286,18.039141 18,17.530434 18,17 V 9.92 C 16.495403,10.173797 14.950633,9.844817 13.68,9 H 10 V 5 h 1.08 c -0.11,-0.68 -0.11,-1.35 0,-2 H 2 C 1.469567,3 0.960859,3.210714 0.585786,3.585787 0.210714,3.960859 0,4.469567 0,5 v 12 c 0,1.1 0.9,2 2,2 z m 0,-4 v -4 h 6 v 4 z m 8,0 v -4 h 6 v 4 z M 2,9 V 5 H 8 V 9 Z M 21,0 V 1 C 21,2.33 18.33,3 17,3 15.67,3 13,2.33 13,1 V 0 Z m -4,8 c -1.1,0 -2,-0.9 -2,-2 0,-1.1 0.9,-2 2,-2 1.1,0 2,0.89 2,2 0,1.11 -0.889999,2 -2,2 z"
           style="fill:#ffffff;fill-opacity:1;fill-rule:nonzero;stroke:none"
           id="path254" />
      </g>
    </g>
  </g>
</svg>
