<?xml version="1.0" encoding="UTF-8" standalone="no"?>
<!-- Created with Inkscape (http://www.inkscape.org/) -->

<svg
   width="18mm"
   height="18mm"
   viewBox="0 0 18 18"
   version="1.1"
   id="svg2047"
   inkscape:version="1.2.2 (732a01da63, 2022-12-09)"
   sodipodi:docname="kotak-penilaian.svg"
   xmlns:inkscape="http://www.inkscape.org/namespaces/inkscape"
   xmlns:sodipodi="http://sodipodi.sourceforge.net/DTD/sodipodi-0.dtd"
   xmlns="http://www.w3.org/2000/svg"
   xmlns:svg="http://www.w3.org/2000/svg">
  <sodipodi:namedview
     id="namedview2049"
     pagecolor="#505050"
     bordercolor="#ffffff"
     borderopacity="1"
     inkscape:showpageshadow="0"
     inkscape:pageopacity="0"
     inkscape:pagecheckerboard="1"
     inkscape:deskcolor="#505050"
     inkscape:document-units="mm"
     showgrid="false"
     inkscape:zoom="17.310593"
     inkscape:cx="30.934815"
     inkscape:cy="20.652094"
     inkscape:window-width="1920"
     inkscape:window-height="1001"
     inkscape:window-x="-9"
     inkscape:window-y="-9"
     inkscape:window-maximized="1"
     inkscape:current-layer="g2032" />
  <defs
     id="defs2044" />
  <g
     inkscape:label="Layer 1"
     inkscape:groupmode="layer"
     id="layer1">
    <g
       id="g2032"
       transform="matrix(0.7709627,0,0,0.78038773,-73.908418,-0.78340641)">
      <rect
         style="fill:#3481ac;fill-opacity:1;stroke-width:0.427198"
         id="rect893"
         width="21.509903"
         height="21.250122"
         x="96.783867"
         y="1.9115367"
         ry="1.4890114" />
      <g
         id="g2273"
         transform="matrix(0.48244277,0,0,-0.47661616,102.37852,17.715089)">
        <path
           d="m 10.696197,3.965626 5.187499,-3.137501 c 0.95,-0.574999 2.112501,0.275002 1.862501,1.35 l -1.375,5.900002 4.587497,3.974999 c 0.837502,0.725 0.387501,2.1 -0.712497,2.187499 l -6.0375,0.512501 -2.3625,5.575001 c -0.425,1.012499 -1.875001,1.012499 -2.300001,0 l -2.3625,-5.562501 -6.037499,-0.5125 c -1.1,-0.0875 -1.55,-1.462499 -0.7125,-2.1875 L 5.021196,8.090627 3.646197,2.190626 c -0.25,-1.075001 0.912499,-1.924999 1.8625,-1.35 z"
           style="fill:#ffffff;fill-opacity:1;fill-rule:nonzero;stroke:none"
           id="path2275" />
      </g>
    </g>
  </g>
</svg>
