<?xml version="1.0" encoding="UTF-8" standalone="no"?>
<!-- Created with Inkscape (http://www.inkscape.org/) -->

<svg
   width="18mm"
   height="18mm"
   viewBox="0 0 18 18"
   version="1.1"
   id="svg2047"
   inkscape:version="1.2.2 (732a01da63, 2022-12-09)"
   sodipodi:docname="kritik-saran.svg"
   xmlns:inkscape="http://www.inkscape.org/namespaces/inkscape"
   xmlns:sodipodi="http://sodipodi.sourceforge.net/DTD/sodipodi-0.dtd"
   xmlns="http://www.w3.org/2000/svg"
   xmlns:svg="http://www.w3.org/2000/svg">
  <sodipodi:namedview
     id="namedview2049"
     pagecolor="#505050"
     bordercolor="#ffffff"
     borderopacity="1"
     inkscape:showpageshadow="0"
     inkscape:pageopacity="0"
     inkscape:pagecheckerboard="1"
     inkscape:deskcolor="#505050"
     inkscape:document-units="mm"
     showgrid="false"
     inkscape:zoom="2.9006173"
     inkscape:cx="47.231326"
     inkscape:cy="48.093211"
     inkscape:window-width="958"
     inkscape:window-height="991"
     inkscape:window-x="952"
     inkscape:window-y="0"
     inkscape:window-maximized="0"
     inkscape:current-layer="layer1" />
  <defs
     id="defs2044" />
  <g
     inkscape:label="Layer 1"
     inkscape:groupmode="layer"
     id="layer1">
    <g
       id="g2032"
       transform="matrix(0.7709627,0,0,0.78038773,-73.908418,-0.78340641)">
      <rect
         style="fill:#3481ac;fill-opacity:1;stroke-width:0.427198"
         id="rect893"
         width="21.509903"
         height="21.250122"
         x="96.783867"
         y="1.9115367"
         ry="1.4890114" />
    </g>
    <g
       id="g2261"
       transform="matrix(0.44517122,0,0,-0.44517124,4.5482867,13.177753)">
      <path
         d="M 4.000001,2.687668 1.700002,0.387669 C 1.383335,0.071001 1.020668,0 0.612002,0.174667 0.203335,0.349335 -6.65e-4,0.662001 2e-6,1.112667 v 15.575001 c 0,0.549999 0.196,1.020666 0.588,1.412001 0.392,0.391332 0.862666,0.587331 1.412,0.587999 h 16 c 0.549999,0 1.021,-0.195999 1.413,-0.587999 0.392,-0.392001 0.587667,-0.862668 0.587,-1.412001 v -12 c 0,-0.55 -0.195667,-1.021 -0.587,-1.413 -0.391333,-0.392 -0.862333,-0.587668 -1.413,-0.587 z m 6.000001,3 c 0.283334,0 0.521,0.096 0.713,0.288 0.192001,0.192 0.287667,0.429334 0.287,0.712 -6.67e-4,0.282666 -0.09667,0.519999 -0.288,0.712 -0.191334,0.192 -0.428666,0.288 -0.712,0.288 -0.283334,0 -0.520666,-0.096 -0.712,-0.288 -0.191334,-0.192001 -0.287333,-0.429334 -0.288,-0.712 -6.67e-4,-0.282666 0.095333,-0.520333 0.288,-0.713 0.192667,-0.192667 0.43,-0.288333 0.712,-0.287 z m 0,4 c 0.283334,0 0.521,0.096 0.713,0.288 0.192001,0.192 0.287667,0.429334 0.287,0.712 v 4 c 0,0.283333 -0.096,0.520666 -0.288,0.712 -0.192001,0.191334 -0.429334,0.287333 -0.712,0.288 -0.282666,6.66e-4 -0.52,-0.09533 -0.712,-0.288 -0.192,-0.192667 -0.288,-0.430001 -0.288,-0.712 v -4 c 0,-0.283334 0.096,-0.521 0.288,-0.713 0.192,-0.192001 0.429334,-0.287667 0.712,-0.287 z"
         style="fill:#ffffff;fill-opacity:1;fill-rule:nonzero;stroke:none"
         id="path2263" />
    </g>
  </g>
</svg>
