<?xml version="1.0" encoding="UTF-8" standalone="no"?>
<!-- Created with Inkscape (http://www.inkscape.org/) -->

<svg
   width="18mm"
   height="18mm"
   viewBox="0 0 18 18"
   version="1.1"
   id="svg2047"
   inkscape:version="1.2.2 (732a01da63, 2022-12-09)"
   sodipodi:docname="kotak-notifikasi.svg"
   xmlns:inkscape="http://www.inkscape.org/namespaces/inkscape"
   xmlns:sodipodi="http://sodipodi.sourceforge.net/DTD/sodipodi-0.dtd"
   xmlns="http://www.w3.org/2000/svg"
   xmlns:svg="http://www.w3.org/2000/svg">
  <sodipodi:namedview
     id="namedview2049"
     pagecolor="#505050"
     bordercolor="#ffffff"
     borderopacity="1"
     inkscape:showpageshadow="0"
     inkscape:pageopacity="0"
     inkscape:pagecheckerboard="1"
     inkscape:deskcolor="#505050"
     inkscape:document-units="mm"
     showgrid="false"
     inkscape:zoom="2.9006173"
     inkscape:cx="45.852309"
     inkscape:cy="42.577144"
     inkscape:window-width="1920"
     inkscape:window-height="1001"
     inkscape:window-x="-9"
     inkscape:window-y="-9"
     inkscape:window-maximized="1"
     inkscape:current-layer="g2032" />
  <defs
     id="defs2044" />
  <g
     inkscape:label="Layer 1"
     inkscape:groupmode="layer"
     id="layer1">
    <g
       id="g2032"
       transform="matrix(0.7709627,0,0,0.78038773,-73.908418,-0.78340641)">
      <rect
         style="fill:#3481ac;fill-opacity:1;stroke-width:0.427198"
         id="rect893"
         width="21.509903"
         height="21.250122"
         x="96.783867"
         y="1.9115367"
         ry="1.4890114" />
      <g
         id="g4491"
         transform="matrix(1.2965491,0,0,1.2965491,-72.397126,8.163369)">
        <g
           id="g2277"
           transform="matrix(0.44527634,0,0,-0.43989859,135.03445,6.6976146)">
          <path
             d="m 15.184484,1.571727 0.04197,0.748825 c -0.01397,7.83e-4 -0.02797,0.00117 -0.04197,0.00117 v -0.75 z m 1.512,2.175 -0.712035,-0.2356 c 0.0072,-0.021905 0.0155,-0.043465 0.02474,-0.06461 z m -3.199001,8.953001 0.574931,0.481625 -0.0018,0.0021 -0.57314,-0.483746 z m -1.652999,1.282999 -0.327459,-0.674738 10e-4,-5.01e-4 0.326423,0.675239 z m -0.783,0.38 -0.384683,-0.643831 c 0.01862,-0.01113 0.03771,-0.02144 0.05723,-0.03091 l 0.327458,0.674738 z m -0.511,0.73 -0.741241,-0.114289 c 0.00138,-0.009 0.00292,-0.01789 0.00463,-0.02679 l 0.736613,0.141076 z m -2.176,1.706999 -0.044956,-0.748651 c 0.0368,-0.0022 0.073712,-0.0017 0.110438,0.0015 L 8.374484,16.79971 Z m -2.12,-1.706999 0.73158,-0.165199 c 0.00369,0.01636 0.00684,0.03283 0.00943,0.04939 l -0.741006,0.115804 z m -0.567001,-0.73 0.327459,-0.674738 c 0.00456,0.0022 0.00911,0.0045 0.013626,0.0068 l -0.341085,0.667953 z m -0.783,-0.38 0.326676,-0.675117 7.83e-4,3.79e-4 z m -1.651999,-1.282999 -0.573247,0.483627 -0.00185,-0.0022 0.575096,-0.481419 z m -3.133,-8.887001 -0.715916,0.22353 -1.81e-4,-5.85e-4 z m 8.255,-2.991 h 6.81 v 1.5 h -6.81 z m 6.768034,0.001175 c 0.393096,-0.022031 0.785285,0.056996 1.139175,0.229548 L 15.624296,2.400719 C 15.500705,2.340458 15.363736,2.312858 15.226449,2.320552 Z m 1.139175,0.229548 c 0.353893,0.172552 0.657682,0.432878 0.882411,0.756149 l -1.231635,0.8562 c -0.07849,-0.112905 -0.184584,-0.20382 -0.308173,-0.26408 z m 0.882411,0.756149 c 0.22473,0.323274 0.362912,0.698724 0.401368,1.090559 L 16.072643,3.045665 C 16.059214,2.908823 16.010956,2.7777 15.932469,2.664799 Z m 0.401368,1.090559 c 0.03845,0.39183 -0.0241,0.786981 -0.181694,1.147779 L 16.00919,3.446517 c 0.05504,-0.126004 0.07688,-0.264008 0.06345,-0.400852 l 1.492829,-0.146507 z m -0.156954,1.083169 c -0.119042,0.359772 -0.315357,0.706913 -0.50889,1.015684 -0.182623,0.291364 -0.430401,0.65036 -0.606333,0.92172 -0.410932,0.633827 -0.641811,1.109498 -0.641811,1.503996 h -1.5 c 0,-0.889502 0.486621,-1.708332 0.883189,-2.320003 0.227817,-0.35139 0.40629,-0.602895 0.593979,-0.902342 0.176779,-0.282044 0.294839,-0.506027 0.355797,-0.690255 z m -1.757034,3.4414 c 0,1.389848 0.0046,2.391568 -0.195064,3.248435 -0.212604,0.912499 -0.642799,1.624381 -1.384009,2.509187 l -1.149855,-0.963243 c 0.66279,-0.791194 0.934595,-1.292313 1.072991,-1.886313 0.151359,-0.649634 0.155937,-1.447914 0.155937,-2.908066 z m -1.580861,5.759747 c -0.522755,0.619358 -1.170024,1.121746 -1.899715,1.474493 l -0.652847,-1.350479 c 0.54016,-0.261123 1.019307,-0.633021 1.406282,-1.091507 z m -1.89868,1.473991 -0.783,0.379999 -0.654917,-1.349475 0.783,-0.38 z m -0.725775,0.349092 c -0.04104,0.02452 -0.07643,0.05744 -0.103843,0.09661 l -1.228847,-0.860194 c 0.14872,-0.212458 0.340696,-0.391059 0.563323,-0.524076 z m -0.103843,0.09661 c -0.02742,0.03917 -0.04624,0.08369 -0.05523,0.130637 L 9.813871,14.951651 c 0.048783,-0.254711 0.150887,-0.496222 0.299607,-0.708679 l 1.228847,0.860194 z m -0.0506,0.10385 c -0.107278,0.695775 -0.475177,1.324701 -1.029078,1.759218 L 9.336824,15.786042 c 0.25428,-0.199473 0.423171,-0.488194 0.472419,-0.807604 l 1.482481,0.228578 z m -1.029078,1.759218 c -0.553901,0.434517 -1.252335,0.642094 -1.953644,0.58063 l 0.130964,-1.494273 c 0.321949,0.02822 0.642578,-0.06707 0.896858,-0.266549 z M 8.41944,17.548378 C 7.730796,17.589731 7.051466,17.372902 6.514119,16.940237 l 0.940734,-1.168341 c 0.24668,0.198624 0.558539,0.298163 0.874675,0.279179 z M 6.514119,16.940237 C 5.976772,16.50757 5.62,15.890142 5.513478,15.208531 L 6.99549,14.976923 c 0.0489,0.312906 0.212684,0.59635 0.459363,0.794973 z M 5.522903,15.257925 C 5.51195,15.209419 5.49046,15.163918 5.459958,15.124647 l 1.18464,-0.920124 C 6.81007,14.417564 6.926647,14.6644 6.986064,14.927528 Z M 5.459958,15.124647 C 5.429456,15.085376 5.390687,15.053295 5.346399,15.03068 l 0.682169,-1.335906 c 0.240243,0.122677 0.450557,0.296707 0.61603,0.509749 z m -0.099933,-0.08718 -0.783,-0.379999 0.654917,-1.349476 0.783,0.38 z M 4.577807,14.657845 C 3.848531,14.304962 3.201663,13.802582 2.679241,13.183352 l 1.146486,-0.967249 c 0.386728,0.458391 0.865578,0.830283 1.405432,1.091508 z M 2.677388,13.181147 C 1.936686,12.296317 1.506828,11.584461 1.294396,10.672047 1.094912,9.815248 1.099483,8.813598 1.099483,7.423727 h 1.5 c 0,1.460129 0.00457,2.258479 0.155839,2.90818 0.138317,0.594086 0.40996,1.09523 1.072257,1.8864 z M 1.099483,7.423727 c 0,-0.396394 -0.217104,-0.84123 -0.609448,-1.446832 C 0.31674,5.709405 0.085561,5.373976 -0.097846,5.074618 -0.28862,4.763238 -0.479109,4.412015 -0.596431,4.036257 l 1.43183,-0.44706 C 0.898076,3.789939 1.013837,4.017841 1.181188,4.290992 1.355906,4.576166 1.534727,4.830674 1.748932,5.161309 2.131588,5.751958 2.599483,6.53612 2.599483,7.423727 Z M -0.596613,4.035672 C -0.726867,3.617302 -0.858415,2.871145 -0.609086,2.177241 -0.476704,1.808809 -0.234079,1.451235 0.164138,1.193928 0.55601,0.940721 1.040814,0.821727 1.599483,0.821727 v 1.5 c -0.34983,0 -0.531401,0.074006 -0.621279,0.13208 C 0.894671,2.507782 0.840171,2.579769 0.802554,2.684463 0.711882,2.936809 0.748834,3.311152 0.835581,3.589782 Z M 1.599483,0.821727 h 6.775001 v 1.5 H 1.599483 Z"
             style="fill:#ffffff;fill-opacity:1;fill-rule:nonzero;stroke:none"
             id="path2279" />
        </g>
        <g
           id="g2281"
           transform="matrix(0.44527634,0,0,-0.43989859,137.31058,8.1101796)">
          <path
             d="M 7.275581,4.798254 C 7.267075,5.21238 6.924464,5.5412 6.510338,5.532694 6.096211,5.524188 5.767392,5.181576 5.775898,4.76745 Z M 3.262739,1.519852 3.278141,2.269694 c -0.010433,2.14e-4 -0.02087,2.1e-4 -0.031303,-1.1e-5 z M 0.750566,4.766721 C 0.759475,5.180839 0.430988,5.52377 0.01687,5.532679 -0.397248,5.541588 -0.740178,5.213101 -0.749087,4.798983 Z M 5.775898,4.76745 C 5.782673,4.437581 5.722697,4.109746 5.599572,3.803642 L 6.991212,3.243878 C 7.189782,3.737545 7.286509,4.26626 7.275581,4.798254 Z M 5.599572,3.803642 C 5.476447,3.497539 5.292713,3.219483 5.059411,2.986181 L 6.120071,1.92552 C 6.496326,2.301776 6.792642,2.750209 6.991212,3.243878 Z M 5.059411,2.986181 C 4.826108,2.752879 4.548053,2.569146 4.241949,2.446021 L 4.801714,1.05438 c 0.493668,0.19857 0.9421,0.494884 1.318357,0.87114 z M 4.241949,2.446021 C 3.935844,2.322895 3.608009,2.262918 3.278141,2.269694 L 3.247337,0.77001 C 3.779333,0.759082 4.308047,0.855811 4.801714,1.05438 Z M 3.246838,2.269683 C 2.917041,2.262689 2.589238,2.322504 2.283165,2.445526 L 1.723757,1.053742 C 2.217605,0.855247 2.746513,0.758736 3.27864,0.77002 Z M 2.283165,2.445526 C 1.977093,2.568547 1.699078,2.752233 1.465859,2.985523 L 0.405036,1.925026 C 0.781333,1.548614 1.229908,1.252238 1.723757,1.053742 Z M 1.465859,2.985523 C 1.23264,3.218813 1.049041,3.496884 0.926113,3.802995 L -0.465843,3.244014 C -0.267499,2.750104 0.028739,2.301439 0.405036,1.925026 Z M 0.926113,3.802995 C 0.803185,4.109106 0.743471,4.436926 0.750566,4.766721 l -1.499653,0.032262 c -0.011448,-0.532123 0.0849,-1.06106 0.283244,-1.554969 z"
             style="fill:#ffffff;fill-opacity:1;fill-rule:nonzero;stroke:none"
             id="path2283" />
        </g>
        <path
           style="fill:#ffffff;stroke-width:1.93383"
           d="m 138.73939,-0.55947888 0.53242,0.0876643 0.47325,0.65748243 0.843,0.55520738 0.76904,0.89125397 c 0,0 0.13311,0.6720931 0.14789,0.730536 0.0148,0.058443 0.1479,1.0811933 0.1479,1.0811933 l 0.29579,0.9058647 0.50283,1.1250254 -0.34015,0.4967647 h -6.87704 l -0.10353,-0.891254 0.60637,-1.0373612 c 0,0 0.0444,-1.1396362 0.0739,-1.3149649 0.0296,-0.1753286 0.57678,-1.5779578 0.57678,-1.5779578 l 0.96131,-0.52598595 0.50284,-0.55520736 0.44368,-0.59903955 z"
           id="path4484" />
      </g>
    </g>
  </g>
</svg>
