<?xml version="1.0" encoding="UTF-8" standalone="no"?>
<!-- Created with Inkscape (http://www.inkscape.org/) -->

<svg
   width="18mm"
   height="18mm"
   viewBox="0 0 18 18"
   version="1.1"
   id="svg2047"
   inkscape:version="1.2.2 (732a01da63, 2022-12-09)"
   sodipodi:docname="umpan-balik.svg"
   xmlns:inkscape="http://www.inkscape.org/namespaces/inkscape"
   xmlns:sodipodi="http://sodipodi.sourceforge.net/DTD/sodipodi-0.dtd"
   xmlns="http://www.w3.org/2000/svg"
   xmlns:svg="http://www.w3.org/2000/svg">
  <sodipodi:namedview
     id="namedview2049"
     pagecolor="#505050"
     bordercolor="#ffffff"
     borderopacity="1"
     inkscape:showpageshadow="0"
     inkscape:pageopacity="0"
     inkscape:pagecheckerboard="1"
     inkscape:deskcolor="#505050"
     inkscape:document-units="mm"
     showgrid="false"
     inkscape:zoom="2.9006173"
     inkscape:cx="61.021494"
     inkscape:cy="28.442222"
     inkscape:window-width="958"
     inkscape:window-height="991"
     inkscape:window-x="952"
     inkscape:window-y="0"
     inkscape:window-maximized="0"
     inkscape:current-layer="g2032" />
  <defs
     id="defs2044" />
  <g
     inkscape:label="Layer 1"
     inkscape:groupmode="layer"
     id="layer1">
    <g
       id="g2032"
       transform="matrix(0.7709627,0,0,0.78038773,-73.908418,-0.78340641)">
      <rect
         style="fill:#3481ac;fill-opacity:1;stroke-width:0.427198"
         id="rect893"
         width="21.509903"
         height="21.250122"
         x="96.783867"
         y="1.9115367"
         ry="1.4890114" />
      <g
         id="g2249"
         transform="matrix(0.47882428,0,0,-0.47304136,101.02149,18.668616)">
        <path
           d="m 17.674999,12.314815 c -0.155555,0 -0.317592,0.02593 -0.473148,0.07778 -0.292242,0.09295 -0.546938,0.277245 -0.726616,0.525763 -0.17968,0.248518 -0.274858,0.548141 -0.271532,0.854793 v 1.821296 c -1.464815,0.233333 -2.592592,1.510186 -2.592592,3.039814 v 4.212963 c 0,1.698149 1.380555,3.078705 3.078703,3.078705 h 7.453703 c 1.698148,0 3.078704,-1.380556 3.078704,-3.078705 v -4.212963 c 0,-1.698147 -1.380556,-3.078703 -3.078704,-3.078703 H 20.824999 L 18.828703,12.898151 C 18.543518,12.522222 18.122221,12.314815 17.674999,12.314815 Z M 8.425925,10.694444 c -2.683333,0 -4.86111,2.177778 -4.86111,4.861111 0,2.683333 2.177777,4.861111 4.86111,4.861111 2.683334,0 4.861112,-2.177778 4.861112,-4.861111 0,-2.683333 -2.177778,-4.861111 -4.861112,-4.861111 z M 0,5.969442 C 0,5.91111 0.097222,0 8.425925,0 c 8.328704,0 8.425926,5.91111 8.425926,5.969442 v 0.674076 c 0,1.341666 -1.088889,2.430556 -2.430555,2.430556 H 2.430555 C 1.088889,9.074074 0,7.985184 0,6.643518 Z"
           style="fill:#ffffff;fill-opacity:1;fill-rule:nonzero;stroke:none"
           id="path2251" />
      </g>
    </g>
  </g>
</svg>
