<?xml version="1.0" encoding="UTF-8" standalone="no"?>
<!-- Created with Inkscape (http://www.inkscape.org/) -->

<svg
   width="18mm"
   height="18mm"
   viewBox="0 0 18 18"
   version="1.1"
   id="svg2047"
   inkscape:version="1.2.2 (732a01da63, 2022-12-09)"
   sodipodi:docname="user-activity.svg"
   xmlns:inkscape="http://www.inkscape.org/namespaces/inkscape"
   xmlns:sodipodi="http://sodipodi.sourceforge.net/DTD/sodipodi-0.dtd"
   xmlns="http://www.w3.org/2000/svg"
   xmlns:svg="http://www.w3.org/2000/svg">
  <sodipodi:namedview
     id="namedview2049"
     pagecolor="#505050"
     bordercolor="#ffffff"
     borderopacity="1"
     inkscape:showpageshadow="0"
     inkscape:pageopacity="0"
     inkscape:pagecheckerboard="1"
     inkscape:deskcolor="#505050"
     inkscape:document-units="mm"
     showgrid="false"
     inkscape:zoom="5.8012346"
     inkscape:cx="49.730794"
     inkscape:cy="31.114067"
     inkscape:window-width="1920"
     inkscape:window-height="1001"
     inkscape:window-x="-9"
     inkscape:window-y="-9"
     inkscape:window-maximized="1"
     inkscape:current-layer="layer1" />
  <defs
     id="defs2044" />
  <g
     inkscape:label="Layer 1"
     inkscape:groupmode="layer"
     id="layer1">
    <rect
       style="fill:#3481ac;fill-opacity:1;stroke-width:0.331361"
       id="rect893"
       width="16.583332"
       height="16.583334"
       x="0.70833331"
       y="0.70833337"
       ry="1.1620063" />
    <g
       id="g322"
       transform="matrix(0.32041073,0,0,-0.32041073,4.033633,12.844929)">
      <path
         d="M 24,7 H 23.979 C 23.765299,7.00466 23.558712,7.077673 23.389542,7.20833 23.220371,7.338987 23.097517,7.520412 23.039,7.726 L 19.870001,18.810001 17.934999,13.65 C 17.863785,13.459398 17.736124,13.295057 17.569057,13.178915 17.401991,13.062773 17.20347,13.000356 17,13 h -4 v 2 h 3.306999 l 2.757,7.351 c 0.07382,0.197098 0.207939,0.365881 0.383267,0.482313 0.175327,0.116434 0.382923,0.17458 0.593221,0.166159 0.210299,-0.0084 0.412581,-0.08298 0.578038,-0.213057 C 20.783981,22.656336 20.904179,22.477369 20.962,22.275 L 24.073,11.382999 26.052,17.316 c 0.0663,0.199043 0.193512,0.372196 0.363644,0.494951 C 26.585775,17.933704 26.790207,17.99984 27,18 h 4 V 16 H 27.719999 L 24.948,7.684 C 24.881704,7.484957 24.754488,7.311804 24.584356,7.189051 24.414225,7.066298 24.209793,7.00016 24,7 Z M 14,0 H 12 V 7 C 11.999206,7.795406 11.68288,8.558006 11.120443,9.120443 10.558006,9.68288 9.795405,9.999206 9,10 H 5 C 4.204594,9.999206 3.441994,9.68288 2.879557,9.120443 2.31712,8.558006 2.000794,7.795406 2,7 V 0 H 0 V 7 C 0.001588,8.325595 0.528882,9.596443 1.46622,10.533781 2.403558,11.471119 3.674405,11.998412 5,12 h 4 c 1.325595,-0.0016 2.596442,-0.528881 3.53378,-1.466219 C 13.471118,9.596443 13.998412,8.325595 14,7 Z M 7,22 C 7.593344,22 8.173364,21.824053 8.666711,21.494408 9.160058,21.164764 9.544576,20.696228 9.771639,20.14805 9.998702,19.599873 10.058112,18.996672 9.942356,18.41473 9.8266,17.832787 9.540878,17.298237 9.121321,16.878679 8.701763,16.459122 8.167213,16.173399 7.585271,16.057644 7.003328,15.941888 6.400128,16.001299 5.85195,16.228361 5.303771,16.455423 4.835236,16.839941 4.505591,17.33329 4.175947,17.826637 4,18.406656 4,19 4,19.79565 4.316071,20.558712 4.87868,21.121321 5.441289,21.683929 6.20435,22 7,22 Z m 0,2 C 6.011094,24 5.044394,23.706755 4.222149,23.157349 3.399903,22.607941 2.759041,21.827047 2.380602,20.913418 2.002164,19.999786 1.903147,18.994453 2.096074,18.024548 2.289,17.054644 2.765203,16.163729 3.464466,15.464466 4.163729,14.765203 5.054644,14.289 6.024549,14.096073 c 0.969904,-0.192926 1.975237,-0.09391 2.888868,0.284529 0.91363,0.378438 1.694524,1.019301 2.243931,1.841547 C 11.706755,17.044395 12,18.011093 12,19 12,20.326082 11.473216,21.597853 10.535534,22.535534 9.597852,23.473215 8.326082,24 7,24 Z"
         style="fill:#ffffff;fill-opacity:1;fill-rule:nonzero;stroke:none"
         id="path324" />
    </g>
  </g>
</svg>
