<?xml version="1.0" encoding="UTF-8" standalone="no"?>
<!-- Created with Inkscape (http://www.inkscape.org/) -->

<svg
   width="18mm"
   height="18mm"
   viewBox="0 0 18 18"
   version="1.1"
   id="svg2047"
   inkscape:version="1.2.2 (732a01da63, 2022-12-09)"
   sodipodi:docname="verifikasi.svg"
   xmlns:inkscape="http://www.inkscape.org/namespaces/inkscape"
   xmlns:sodipodi="http://sodipodi.sourceforge.net/DTD/sodipodi-0.dtd"
   xmlns="http://www.w3.org/2000/svg"
   xmlns:svg="http://www.w3.org/2000/svg">
  <sodipodi:namedview
     id="namedview2049"
     pagecolor="#505050"
     bordercolor="#ffffff"
     borderopacity="1"
     inkscape:showpageshadow="0"
     inkscape:pageopacity="0"
     inkscape:pagecheckerboard="1"
     inkscape:deskcolor="#505050"
     inkscape:document-units="mm"
     showgrid="false"
     inkscape:zoom="1.5300547"
     inkscape:cx="-75.487497"
     inkscape:cy="33.005356"
     inkscape:window-width="1920"
     inkscape:window-height="1001"
     inkscape:window-x="-9"
     inkscape:window-y="-9"
     inkscape:window-maximized="1"
     inkscape:current-layer="g2032" />
  <defs
     id="defs2044" />
  <g
     inkscape:label="Layer 1"
     inkscape:groupmode="layer"
     id="layer1">
    <g
       id="g2032"
       transform="matrix(0.7709627,0,0,0.78038773,-73.908418,-0.78340641)">
      <rect
         style="fill:#3481ac;fill-opacity:1;stroke-width:0.427198"
         id="rect893"
         width="21.509903"
         height="21.250122"
         x="96.783867"
         y="1.9115367"
         ry="1.4890114" />
      <g
         id="g1002"
         transform="matrix(0.48861077,0,0,0.48861077,43.611189,1.7582434)">
        <g
           id="g256"
           transform="matrix(1.070511,0,0,-1.0575822,120.01542,30.935844)">
          <path
             d="m -0.75,1.5 c 0,-0.414213 0.335786,-0.75 0.75,-0.75 0.414214,0 0.75,0.335787 0.75,0.75 z M 7,8.75 c 0.414214,0 0.75,0.335787 0.75,0.75 0,0.414213 -0.335786,0.75 -0.75,0.75 z M 0.75,1.5 v 1 h -1.5 v -1 z m 0,1 c 0,1.657603 0.65848,3.247314 1.830583,4.419417 L 1.519922,7.980077 C 0.066515,6.52667 -0.75,4.555428 -0.75,2.5 Z M 2.580583,6.919417 C 3.752685,8.091519 5.342397,8.75 7,8.75 v 1.5 C 4.944572,10.25 2.973329,9.433484 1.519922,7.980077 Z"
             style="fill:#ffffff;fill-opacity:1;fill-rule:nonzero;stroke:none"
             id="path258" />
        </g>
        <g
           id="g260"
           transform="matrix(1.070511,0,0,-1.0575822,130.49114,33.976323)">
          <path
             d="m 4.018304,12.060937 h -0.75 C 3.44457,10.439788 4.572008,11.555059 4.572008,11.555059 Z m 1.196,0.527305 v 0.75 z m 1.195999,-0.527305 0.553898,0.505665 -1.94e-4,2.12e-4 z m 1.272001,-0.526 -0.034109,0.749226 -0.00164,-7.9e-5 0.035747,-0.749147 z m 1.692,-1.692 0.749146,-0.035821 7.8e-5,0.00171 -0.749224,0.034109 z m 0.526001,-1.272 -0.505666,-0.553899 6.91e-4,-6.29e-4 z m 0,-2.391999 -0.504975,0.554528 -6.9e-4,-6.3e-4 z m -0.526001,-1.272001 0.749225,0.034109 -7.8e-5,0.00164 -0.749147,-0.035747 z m -1.692,-1.692 -0.03499,-0.749183 8.81e-4,-4e-5 z M 6.410303,2.688936 6.964007,2.183059 l 1.94e-4,2.12e-4 z m -2.391999,0 L 3.464406,2.183271 3.4646,2.183059 Z m -1.272,0.526001 0.034109,-0.749224 8.81e-4,4.1e-5 z m -1.692,1.692 -0.749202,0.034585 -2.2e-5,-4.76e-4 z m -0.527,1.272001 -0.505878,-0.553704 6.57e-4,-5.99e-4 z m 0,2.391999 -0.504892,0.554605 -9.86e-4,-9.01e-4 z m 0.527,1.272 -0.749226,-0.034109 7.9e-5,-0.00164 0.749147,0.035747 z m 1.692,1.692 0.035821,0.749145 -0.00171,7.9e-5 -0.034109,-0.749224 z m 1.272,0.527 h 0.75 l -0.510107,1.07489 -0.794496,-0.569998 z m 0.553704,-0.506878 c 0.081519,0.08923 0.180734,0.16049 0.29132,0.209245 L 4.258197,13.136827 C 3.956943,13.004006 3.686668,12.809877 3.4646,12.566814 Z m 0.29132,0.209245 c 0.110586,0.04876 0.230118,0.07394 0.350976,0.07394 v 1.5 c -0.329233,0 -0.654854,-0.0686 -0.956107,-0.201415 l 0.605131,-1.372523 z m 0.350976,0.07394 c 0.120858,0 0.24039,-0.02518 0.350976,-0.07394 l 0.605131,1.372523 c -0.301253,0.132819 -0.626874,0.201415 -0.956107,0.201415 v -1.5 z m 0.350976,-0.07394 c 0.110585,-0.04875 0.209799,-0.120018 0.291319,-0.209245 l 1.107408,1.011755 C 6.74194,12.809876 6.471666,13.004006 6.170411,13.136827 Z M 5.856405,11.555272 C 6.331283,11.035098 7.012119,10.752104 7.718052,10.785789 L 7.646557,12.284084 C 7.38849,12.27177 7.139323,12.374776 6.964201,12.566602 Z m 1.860009,-0.769559 c 0.120789,0.0055 0.241398,-0.01424 0.354132,-0.05796 l 0.542357,1.398517 c -0.307104,0.119097 -0.63566,0.172871 -0.964708,0.157891 z m 0.354132,-0.05796 c 0.112735,-0.04372 0.215118,-0.110458 0.300617,-0.195957 l 1.06066,1.06066 C 9.198911,11.825369 8.920005,12.007174 8.612903,12.12627 Z M 8.371163,10.531796 C 8.456662,10.446297 8.5234,10.343914 8.56712,10.23118 l 1.398517,0.542355 C 9.84654,11.080638 9.664736,11.359544 9.431823,11.592456 Z M 8.56712,10.23118 C 8.610839,10.118444 8.630579,9.997835 8.62508,9.877047 l 1.498448,-0.068219 c 0.01498,0.329049 -0.03879,0.657605 -0.157891,0.964707 z M 8.62516,9.878759 C 8.591459,9.173969 8.874322,8.492048 9.39464,8.017039 l 1.01133,1.107796 c -0.191682,0.174991 -0.294821,0.425071 -0.282523,0.682281 z m 0.77017,-1.86235 c 0.378299,-0.344493 0.378299,-0.93845 0,-1.282943 L 10.405279,5.62441 c 1.031701,0.939507 1.031701,2.561549 0,3.501055 z M 9.39464,6.732836 C 8.874466,6.257958 8.591471,5.577123 8.625156,4.871189 l 1.498295,0.071495 c -0.01231,0.258066 0.09069,0.507233 0.282519,0.682356 z M 8.62508,4.872827 C 8.630579,4.752038 8.610839,4.631429 8.56712,4.518695 L 9.965637,3.976338 c 0.119097,0.307104 0.172871,0.63566 0.157891,0.964708 z M 8.56712,4.518695 C 8.5234,4.40596 8.456662,4.303577 8.371163,4.218078 l 1.06066,-1.06066 C 9.664736,3.39033 9.84654,3.669236 9.965637,3.976338 Z M 8.371163,4.218078 C 8.285664,4.132579 8.183281,4.065841 8.070546,4.022121 L 8.612903,2.623604 c 0.307102,0.119097 0.586008,0.300901 0.81892,0.533814 z M 8.070546,4.022121 C 7.957812,3.978402 7.837203,3.958662 7.716414,3.964161 L 7.648195,2.465714 c 0.329048,-0.014981 0.657604,0.038793 0.964708,0.15789 z m -0.353251,-0.058 C 7.369641,3.980358 7.022677,3.919827 6.701058,3.786831 L 7.274265,2.400673 C 7.392328,2.449494 7.519694,2.471714 7.647314,2.465754 Z M 6.701058,3.786831 C 6.379439,3.653834 6.091056,3.451634 5.856405,3.194601 l 1.107796,-1.01133 c 0.086138,0.094354 0.192001,0.16858 0.310064,0.217402 z M 5.856599,3.194814 C 5.77508,3.105588 5.675866,3.034326 5.56528,2.98557 L 6.170411,1.613048 C 6.471664,1.745867 6.741939,1.939996 6.964007,2.183059 Z M 5.56528,2.98557 C 5.454694,2.936813 5.335162,2.911633 5.214304,2.911633 v -1.5 c 0.329233,0 0.654854,0.068595 0.956107,0.201415 z M 5.214304,2.911633 c -0.120858,0 -0.24039,0.02518 -0.350976,0.073937 L 4.258197,1.613048 C 4.55945,1.480228 4.885071,1.411633 5.214304,1.411633 Z M 4.863328,2.98557 C 4.75274,3.034327 4.653526,3.105589 4.572008,3.194814 L 3.4646,2.183059 C 3.686669,1.939995 3.956945,1.745867 4.258197,1.613048 Z M 4.572202,3.194601 C 4.337553,3.451632 4.049172,3.653833 3.727551,3.786831 L 3.154344,2.400673 C 3.272405,2.351852 3.378267,2.277627 3.464406,2.183271 Z M 3.727551,3.786831 C 3.405931,3.919827 3.058967,3.980358 2.711313,3.964121 L 2.781294,2.465754 c 0.127621,0.00596 0.254988,-0.01626 0.37305,-0.065081 z M 2.712194,3.964161 C 2.591405,3.958662 2.470796,3.978402 2.358061,4.022121 L 1.815706,2.623604 C 2.122808,2.504507 2.451365,2.450733 2.780413,2.465714 Z M 2.358061,4.022121 C 2.245327,4.065841 2.142944,4.132579 2.057445,4.218078 L 0.996785,3.157418 C 1.229697,2.924505 1.508603,2.742701 1.815706,2.623604 Z M 2.057445,4.218078 C 1.971946,4.303577 1.905207,4.40596 1.861488,4.518695 L 0.462971,3.976338 C 0.582068,3.669236 0.763872,3.39033 0.996785,3.157418 Z M 1.861488,4.518695 C 1.817769,4.631429 1.798029,4.752038 1.803528,4.872827 L 0.30508,4.941046 C 0.2901,4.611998 0.343874,4.283442 0.462971,3.976338 Z M 1.803506,4.872351 C 1.81956,5.220119 1.758801,5.567152 1.625548,5.888778 L 0.239776,5.314641 C 0.288691,5.196575 0.310995,5.069183 0.305102,4.941522 Z M 1.625548,5.888778 C 1.492297,6.210403 1.289824,6.498725 1.032524,6.733241 L 0.022083,5.624635 C 0.116533,5.538548 0.190859,5.432708 0.239776,5.314641 Z M 1.033181,6.732642 C 0.943955,6.814161 0.872694,6.913375 0.823937,7.023961 L -0.548585,6.41883 C -0.415765,6.117577 -0.221637,5.847302 0.021426,5.625234 Z M 0.823937,7.023961 C 0.775181,7.134547 0.75,7.254079 0.75,7.374937 h -1.5 c 0,-0.329233 0.068596,-0.654854 0.201415,-0.956107 z M 0.75,7.374937 c 0,0.120858 0.025181,0.24039 0.073937,0.350976 L -0.548585,8.331044 C -0.681404,8.029791 -0.75,7.70417 -0.75,7.374937 Z m 0.073937,0.350976 c 0.048757,0.110588 0.120019,0.209802 0.209244,0.29132 L 0.021426,9.124641 C -0.221638,8.902572 -0.415766,8.632296 -0.548585,8.331044 Z M 1.032195,8.016334 C 1.554018,8.491383 1.837144,9.172613 1.803452,9.878685 L 0.305157,9.80719 C 0.317464,9.549262 0.21459,9.300491 0.022413,9.125541 Z m 0.771333,1.860713 c -0.0055,0.120788 0.014241,0.241397 0.05796,0.354133 L 0.462971,10.773535 C 0.343874,10.466433 0.2901,10.137877 0.30508,9.808828 Z m 0.05796,0.354133 c 0.043719,0.112734 0.110458,0.215117 0.195957,0.300616 l -1.06066,1.06066 C 0.763872,11.359544 0.582068,11.080638 0.462971,10.773535 Z m 0.195957,0.300616 c 0.085499,0.0855 0.187882,0.152237 0.300616,0.195957 L 1.815706,12.12627 C 1.508603,12.007174 1.229697,11.825369 0.996785,11.592456 Z m 0.300616,0.195957 c 0.112735,0.04372 0.233344,0.06346 0.354133,0.05796 l 0.068219,1.498448 C 2.451365,12.299141 2.122808,12.245367 1.815706,12.12627 Z m 0.352421,0.05804 c 0.704927,-0.03371 1.387244,0.249285 1.862425,0.771253 L 3.463701,12.566829 C 3.288882,12.374797 3.039198,12.271789 2.782125,12.284081 Z m 0.557822,1.276144 v -0.001 h 1.5 v 0.001 z"
             style="fill:#ffffff;fill-opacity:1;fill-rule:nonzero;stroke:none"
             id="path262"
             sodipodi:nodetypes="ccccccccccccccccccccccccccccccccccccccccccccccccccccccccccccccccccccccccccccccccccsccccssccccscccccccccccccccccccccccccccccccccccccccccccccccccccccccccccccccccccccccccccccccccccccccccccccccccccccccccccccccccccccccccccccccccccccccccccccccccccccccccccccccccccccccccccccccccccccccccccccc" />
        </g>
        <g
           id="g264"
           transform="matrix(1.070511,0,0,-1.0575822,123.22698,28.99331)">
          <path
             d="m 10.89433,3.193568 c -0.292892,0.292894 -0.767767,0.292894 -1.060659,0 -0.292894,-0.292892 -0.292894,-0.767767 0,-1.060659 z M 11.454,1.573238 10.923671,1.042909 c 0.292798,-0.292799 0.767484,-0.292908 1.060417,-2.44e-4 z m 2.712087,1.649428 c 0.293027,0.292759 0.293245,0.767632 4.86e-4,1.06066 -0.292759,0.293027 -0.767633,0.293245 -1.060661,4.86e-4 z M 4,7.663239 v -0.75 z m 4,4 h 0.75 z m -4,4 v 0.75 z m -4,-4 h -0.75 z m 9.833671,-9.53033 1.09,-1.09 1.060659,1.060659 -1.09,1.09 z M 11.984088,1.042665 14.166087,3.222666 13.105912,4.283812 10.923913,2.103811 Z M 4,6.913239 c 1.259778,0 2.467959,0.500444 3.358757,1.391243 L 6.298097,9.365141 C 5.688604,8.755648 4.861954,8.413239 4,8.413239 Z M 7.358757,8.304482 C 8.249556,9.195279 8.75,10.403461 8.75,11.663239 H 7.25 C 7.25,10.801285 6.90759,9.974634 6.298097,9.365141 Z M 8.75,11.663239 c 0,1.259778 -0.500444,2.467959 -1.391243,3.358757 l -1.06066,-1.06066 C 6.90759,13.351843 7.25,12.525192 7.25,11.663239 Z M 7.358757,15.021996 C 6.467959,15.912794 5.259778,16.413239 4,16.413239 v -1.5 c 0.861954,0 1.688604,-0.34241 2.298097,-0.951903 z M 4,16.413239 c -1.259778,0 -2.46796,-0.500445 -3.358757,-1.391243 l 1.06066,-1.06066 C 2.311396,14.570829 3.138046,14.913239 4,14.913239 Z M 0.641243,15.021996 C -0.249555,14.131198 -0.75,12.923017 -0.75,11.663239 h 1.5 c 0,0.861953 0.34241,1.688604 0.951903,2.298097 z M -0.75,11.663239 c 0,-1.259778 0.500445,-2.46796 1.391243,-3.358757 l 1.06066,1.060659 C 1.09241,9.974634 0.75,10.801285 0.75,11.663239 Z M 0.641243,8.304482 C 1.53204,7.413683 2.740222,6.913239 4,6.913239 v 1.5 c -0.861954,0 -1.688604,0.342409 -2.298097,0.951902 z"
             style="fill:#ffffff;fill-opacity:1;fill-rule:nonzero;stroke:none"
             id="path266" />
        </g>
      </g>
    </g>
  </g>
</svg>
